M48
; DRILL file {KiCad (6.0.1)} date Sat Mar  4 18:11:41 2023
; FORMAT={-:-/ absolute / metric / decimal}
; #@! TF.CreationDate,2023-03-04T18:11:41-05:00
; #@! TF.GenerationSoftware,Kicad,Pcbnew,(6.0.1)
; #@! TF.FileFunction,Plated,1,2,PTH
FMAT,2
METRIC
; #@! TA.AperFunction,Plated,PTH,ComponentDrill
T1C0.800
; #@! TA.AperFunction,Plated,PTH,ComponentDrill
T2C0.900
; #@! TA.AperFunction,Plated,PTH,ComponentDrill
T3C1.000
; #@! TA.AperFunction,Plated,PTH,ComponentDrill
T4C1.010
; #@! TA.AperFunction,Plated,PTH,ComponentDrill
T5C1.300
; #@! TA.AperFunction,Plated,PTH,ComponentDrill
T6C1.500
; #@! TA.AperFunction,Plated,PTH,ComponentDrill
T7C1.600
; #@! TA.AperFunction,Plated,PTH,ComponentDrill
T8C3.200
%
G90
G05
T1
X17.405Y-70.7
X17.405Y-86.0
X19.475Y-133.168
X19.475Y-135.268
X19.475Y-137.868
X19.475Y-139.968
X19.475Y-165.052
X19.475Y-167.152
X19.475Y-169.752
X19.475Y-171.852
X19.945Y-70.7
X19.945Y-86.0
X22.275Y-133.168
X22.275Y-139.968
X22.275Y-165.052
X22.275Y-171.852
X30.96Y-123.9
X33.5Y-123.9
X33.763Y-133.945
X33.763Y-141.565
X33.763Y-146.645
X33.763Y-151.725
X33.763Y-159.624
X33.763Y-167.244
X33.763Y-172.324
X33.763Y-177.404
X34.0Y-43.655
X34.0Y-46.195
X34.183Y-49.13
X34.183Y-56.75
X37.0Y-43.655
X37.0Y-46.195
X40.0Y-43.655
X40.0Y-46.195
X41.383Y-133.945
X41.383Y-141.565
X41.383Y-146.645
X41.383Y-151.725
X41.383Y-159.624
X41.383Y-167.244
X41.383Y-172.324
X41.383Y-177.404
X41.803Y-49.13
X41.803Y-56.75
X43.0Y-43.66
X43.0Y-46.2
X46.0Y-43.655
X46.0Y-46.195
X46.883Y-49.13
X46.883Y-56.75
X48.88Y-133.945
X48.88Y-141.565
X48.88Y-146.645
X48.88Y-151.725
X48.881Y-159.624
X48.881Y-167.244
X48.881Y-172.324
X48.881Y-177.404
X49.0Y-43.655
X49.0Y-46.195
X51.963Y-49.13
X51.963Y-56.75
X52.0Y-43.655
X52.0Y-46.195
X55.433Y-49.13
X55.433Y-56.75
X55.459Y-27.13
X55.459Y-34.75
X55.459Y-38.13
X55.459Y-45.75
X56.5Y-133.945
X56.5Y-141.565
X56.5Y-146.645
X56.5Y-151.725
X56.501Y-159.624
X56.501Y-167.244
X56.501Y-172.324
X56.501Y-177.404
X63.053Y-49.13
X63.053Y-56.75
X63.079Y-27.13
X63.079Y-34.75
X63.079Y-38.13
X63.079Y-45.75
X64.0Y-133.945
X64.0Y-141.565
X64.0Y-146.645
X64.0Y-151.725
X64.0Y-159.624
X64.0Y-167.244
X64.0Y-172.324
X64.0Y-177.404
X68.133Y-49.13
X68.133Y-56.75
X68.159Y-27.13
X68.159Y-34.75
X68.159Y-38.13
X68.159Y-45.75
X71.62Y-133.945
X71.62Y-141.565
X71.62Y-146.645
X71.62Y-151.725
X71.62Y-159.624
X71.62Y-167.244
X71.62Y-172.324
X71.62Y-177.404
X73.213Y-49.13
X73.213Y-56.75
X73.239Y-27.13
X73.239Y-34.75
X73.239Y-38.13
X73.239Y-45.75
X75.555Y-123.9
X76.676Y-49.121
X76.676Y-56.741
X76.709Y-27.13
X76.709Y-34.75
X76.709Y-38.13
X76.709Y-45.75
X78.095Y-123.9
X81.756Y-49.121
X81.756Y-56.741
X84.329Y-27.13
X84.329Y-34.75
X84.329Y-38.13
X84.329Y-45.75
X86.836Y-49.121
X86.836Y-56.741
X89.409Y-27.13
X89.409Y-34.75
X89.409Y-38.13
X89.409Y-45.75
X94.456Y-49.121
X94.456Y-56.741
X94.489Y-27.13
X94.489Y-34.75
X94.489Y-38.13
X94.489Y-45.75
X113.93Y-67.263
X114.18Y-30.0
X116.47Y-67.263
X116.72Y-30.0
X120.93Y-67.263
X121.18Y-30.0
X122.8Y-120.86
X122.8Y-123.4
X123.47Y-67.263
X123.72Y-30.0
X127.405Y-25.5
X129.945Y-25.5
X133.183Y-172.88
X133.183Y-180.5
X133.22Y-161.262
X133.22Y-168.882
X133.288Y-149.525
X133.288Y-157.145
X133.433Y-137.63
X133.433Y-145.25
X134.183Y-39.38
X134.183Y-47.0
X134.183Y-54.38
X134.183Y-62.0
X134.183Y-69.38
X134.183Y-77.0
X138.3Y-161.262
X138.3Y-168.882
X138.368Y-149.525
X138.368Y-157.145
X140.803Y-172.88
X140.803Y-180.5
X141.053Y-137.63
X141.053Y-145.25
X141.803Y-39.38
X141.803Y-47.0
X141.803Y-54.38
X141.803Y-62.0
X141.803Y-69.38
X141.803Y-77.0
X143.38Y-161.262
X143.38Y-168.882
X143.448Y-149.525
X143.448Y-157.145
X145.883Y-172.88
X145.883Y-180.5
X146.133Y-137.63
X146.133Y-145.25
X146.883Y-39.38
X146.883Y-47.0
X146.883Y-54.38
X146.883Y-62.0
X146.883Y-69.38
X146.883Y-77.0
X150.963Y-172.88
X150.963Y-180.5
X151.0Y-161.262
X151.0Y-168.882
X151.068Y-149.525
X151.068Y-157.145
X151.213Y-137.63
X151.213Y-145.25
X151.963Y-39.38
X151.963Y-47.0
X151.963Y-54.38
X151.963Y-62.0
X151.963Y-69.38
X151.963Y-77.0
X159.68Y-69.375
X159.68Y-76.995
X159.683Y-54.38
X159.683Y-62.0
X160.0Y-39.642
X160.0Y-47.262
X164.22Y-136.728
X164.22Y-144.348
X164.22Y-148.478
X164.22Y-156.098
X164.365Y-124.82
X164.365Y-132.44
X164.365Y-160.083
X164.365Y-167.703
X167.3Y-69.375
X167.3Y-76.995
X167.303Y-54.38
X167.303Y-62.0
X167.62Y-39.642
X167.62Y-47.262
X169.3Y-136.728
X169.3Y-144.348
X169.3Y-148.478
X169.3Y-156.098
X170.855Y-121.2
X171.985Y-124.82
X171.985Y-132.44
X171.985Y-160.083
X171.985Y-167.703
X172.38Y-69.375
X172.38Y-76.995
X172.383Y-54.38
X172.383Y-62.0
X172.7Y-39.642
X172.7Y-47.262
X173.395Y-121.2
X174.38Y-136.728
X174.38Y-144.348
X174.38Y-148.478
X174.38Y-156.098
X174.955Y-25.5
X177.065Y-124.82
X177.065Y-132.44
X177.065Y-160.083
X177.065Y-167.703
X177.46Y-69.375
X177.46Y-76.995
X177.463Y-54.38
X177.463Y-62.0
X177.495Y-25.5
X177.78Y-39.642
X177.78Y-47.262
X182.0Y-136.728
X182.0Y-144.348
X182.0Y-148.478
X182.0Y-156.098
X182.145Y-124.82
X182.145Y-132.44
X182.145Y-160.083
X182.145Y-167.703
X184.5Y-61.012
X184.5Y-68.632
X184.5Y-73.712
X184.5Y-78.792
X184.525Y-37.445
X184.525Y-45.065
X184.525Y-50.145
X184.525Y-55.225
X192.12Y-61.012
X192.12Y-68.632
X192.12Y-73.712
X192.12Y-78.792
X192.145Y-37.445
X192.145Y-45.065
X192.145Y-50.145
X192.145Y-55.225
T2
X13.75Y-26.717
X13.75Y-29.258
X17.1Y-26.717
X17.1Y-29.258
X20.4Y-26.717
X20.4Y-29.258
X23.7Y-26.717
X23.7Y-29.258
X24.4Y-67.635
X24.4Y-70.175
X24.4Y-82.86
X24.4Y-85.4
X25.475Y-37.212
X25.475Y-39.762
X25.475Y-42.312
X25.475Y-44.862
X28.025Y-38.487
X28.025Y-41.038
X28.025Y-43.587
X28.025Y-46.137
X32.475Y-29.3
X32.5Y-35.9
X35.015Y-29.3
X35.04Y-35.9
X37.18Y-123.9
X38.253Y-29.3
X39.72Y-123.9
X40.793Y-29.3
X41.135Y-35.9
X43.675Y-35.9
X44.032Y-29.3
X44.552Y-122.0
X44.552Y-124.54
X46.572Y-29.3
X48.052Y-122.017
X48.052Y-124.557
X49.81Y-29.3
X49.835Y-35.9
X51.552Y-122.017
X51.552Y-124.557
X52.35Y-29.3
X52.375Y-35.9
X55.052Y-122.017
X55.052Y-124.557
X58.552Y-122.017
X58.552Y-124.557
X62.052Y-122.017
X62.052Y-124.557
X65.552Y-122.017
X65.552Y-124.557
X69.335Y-123.9
X71.875Y-123.9
X82.975Y-132.071
X82.975Y-134.621
X82.975Y-137.171
X82.975Y-139.721
X82.975Y-163.955
X82.975Y-166.505
X82.975Y-169.055
X82.975Y-171.605
X84.455Y-19.9
X84.455Y-24.0
X84.5Y-15.8
X85.525Y-133.346
X85.525Y-135.896
X85.525Y-138.446
X85.525Y-140.996
X85.525Y-165.23
X85.525Y-167.78
X85.525Y-170.33
X85.525Y-172.88
X86.995Y-19.9
X86.995Y-24.0
X87.04Y-15.8
X122.475Y-39.062
X122.475Y-41.612
X122.475Y-44.162
X122.475Y-46.712
X122.475Y-78.062
X122.475Y-80.612
X122.475Y-83.162
X122.475Y-85.712
X125.025Y-40.337
X125.025Y-42.887
X125.025Y-45.437
X125.025Y-47.987
X125.025Y-79.337
X125.025Y-81.887
X125.025Y-84.437
X125.025Y-86.987
X126.425Y-123.4
X128.965Y-123.4
X132.75Y-121.49
X132.75Y-124.03
X134.2Y-28.125
X134.2Y-30.665
X136.25Y-121.508
X136.25Y-124.048
X139.75Y-121.508
X139.75Y-124.048
X141.157Y-31.64
X141.654Y-24.145
X141.654Y-26.685
X143.25Y-121.508
X143.25Y-124.048
X143.697Y-31.64
X145.154Y-24.145
X145.154Y-26.685
X146.75Y-121.508
X146.75Y-124.048
X147.405Y-31.64
X148.654Y-24.145
X148.654Y-26.685
X149.945Y-31.64
X150.25Y-121.508
X150.25Y-124.048
X152.154Y-24.145
X152.154Y-26.685
X153.654Y-31.64
X153.75Y-121.508
X153.75Y-124.048
X155.654Y-24.145
X155.654Y-26.685
X156.194Y-31.64
X158.235Y-123.4
X159.154Y-24.145
X159.154Y-26.685
X159.902Y-31.64
X160.775Y-123.4
X162.442Y-31.64
X162.654Y-24.145
X162.654Y-26.685
X167.062Y-85.025
X168.337Y-82.475
X169.612Y-85.025
X170.5Y-28.125
X170.5Y-30.665
X170.887Y-82.475
X172.162Y-85.025
X173.437Y-82.475
X174.712Y-85.025
X175.987Y-82.475
T3
X31.95Y-89.67
X33.335Y-92.51
X34.17Y-15.26
X34.17Y-17.8
X34.17Y-112.222
X34.17Y-114.762
X34.72Y-89.67
X36.105Y-92.51
X36.71Y-15.26
X36.71Y-17.8
X36.71Y-112.222
X36.71Y-114.762
X37.49Y-89.67
X38.875Y-92.51
X39.25Y-15.26
X39.25Y-17.8
X39.25Y-112.222
X39.25Y-114.762
X40.26Y-89.67
X41.645Y-92.51
X41.79Y-15.26
X41.79Y-17.8
X41.79Y-112.222
X41.79Y-114.762
X43.03Y-89.67
X44.33Y-15.26
X44.33Y-17.8
X44.33Y-112.222
X44.33Y-114.762
X66.663Y-15.26
X66.663Y-17.8
X66.663Y-112.175
X66.663Y-114.715
X67.95Y-89.67
X69.203Y-15.26
X69.203Y-17.8
X69.203Y-112.175
X69.203Y-114.715
X69.335Y-92.51
X70.72Y-89.67
X71.743Y-15.26
X71.743Y-17.8
X71.743Y-112.175
X71.743Y-114.715
X72.105Y-92.51
X73.49Y-89.67
X74.283Y-15.26
X74.283Y-17.8
X74.283Y-112.175
X74.283Y-114.715
X74.875Y-92.51
X76.26Y-89.67
X76.823Y-15.26
X76.823Y-17.8
X76.823Y-112.175
X76.823Y-114.715
X77.645Y-92.51
X79.03Y-89.67
X113.49Y-130.335
X113.49Y-133.105
X113.49Y-135.875
X113.49Y-138.645
X113.49Y-166.335
X113.49Y-169.105
X113.49Y-171.875
X113.49Y-174.645
X116.33Y-128.95
X116.33Y-131.72
X116.33Y-134.49
X116.33Y-137.26
X116.33Y-140.03
X116.33Y-164.95
X116.33Y-167.72
X116.33Y-170.49
X116.33Y-173.26
X116.33Y-176.03
X131.177Y-112.25
X131.177Y-114.79
X131.22Y-15.21
X131.22Y-17.75
X133.717Y-112.25
X133.717Y-114.79
X133.76Y-15.21
X133.76Y-17.75
X136.257Y-112.25
X136.257Y-114.79
X136.3Y-15.21
X136.3Y-17.75
X138.797Y-112.25
X138.797Y-114.79
X138.84Y-15.21
X138.84Y-17.75
X141.337Y-112.25
X141.337Y-114.79
X141.38Y-15.21
X141.38Y-17.75
X146.91Y-187.17
X148.295Y-190.01
X149.68Y-187.17
X151.065Y-190.01
X152.45Y-187.17
X153.835Y-190.01
X155.22Y-187.17
X156.605Y-190.01
X157.99Y-187.17
X163.6Y-15.223
X163.6Y-17.762
X163.663Y-112.213
X163.663Y-114.753
X166.14Y-15.223
X166.14Y-17.762
X166.203Y-112.213
X166.203Y-114.753
X168.68Y-15.223
X168.68Y-17.762
X168.743Y-112.213
X168.743Y-114.753
X171.22Y-15.223
X171.22Y-17.762
X171.283Y-112.213
X171.283Y-114.753
X173.76Y-15.223
X173.76Y-17.762
X173.823Y-112.213
X173.823Y-114.753
T4
X28.0Y-75.763
X29.2Y-70.662
T5
X15.695Y-75.83
X15.695Y-80.83
X95.4Y-62.262
X95.4Y-67.263
X95.4Y-77.013
X95.4Y-82.013
T6
X16.145Y-61.907
X19.185Y-57.637
X23.235Y-61.907
X113.145Y-63.407
X113.145Y-26.145
X116.185Y-59.137
X116.185Y-21.875
X120.235Y-63.407
X120.235Y-26.145
X131.383Y-91.71
X135.653Y-87.66
X135.653Y-94.75
X147.865Y-91.71
X152.135Y-87.66
X152.135Y-94.75
T7
X15.47Y-34.215
X15.47Y-49.085
X95.53Y-129.123
X95.53Y-143.993
X95.53Y-161.007
X95.53Y-175.877
X112.47Y-36.065
X112.47Y-50.935
X112.47Y-75.065
X112.47Y-89.935
X164.065Y-95.03
X178.935Y-95.03
T8
X14.0Y-14.0
X14.0Y-97.0
X14.0Y-111.0
X14.0Y-194.0
X24.99Y-91.09
X49.99Y-91.09
X60.99Y-91.09
X85.99Y-91.09
X97.0Y-14.0
X97.0Y-97.0
X97.0Y-111.0
X97.0Y-194.0
X111.0Y-14.0
X111.0Y-97.0
X111.0Y-111.0
X111.0Y-194.0
X114.91Y-121.99
X114.91Y-146.99
X114.91Y-157.99
X114.91Y-182.99
X139.95Y-188.59
X164.95Y-188.59
X194.0Y-14.0
X194.0Y-97.0
X194.0Y-111.0
X194.0Y-194.0
T3
X15.825Y-135.568G85X15.825Y-137.568
G05
X15.825Y-167.452G85X15.825Y-169.452
G05
X17.375Y-129.718G85X15.875Y-129.718
G05
X17.375Y-143.418G85X15.875Y-143.418
G05
X17.375Y-161.602G85X15.875Y-161.602
G05
X17.375Y-175.302G85X15.875Y-175.302
G05
T0
M30
