G04 #@! TF.GenerationSoftware,KiCad,Pcbnew,(6.0.1)*
G04 #@! TF.CreationDate,2023-03-04T18:11:18-05:00*
G04 #@! TF.ProjectId,InterfaceModule,496e7465-7266-4616-9365-4d6f64756c65,rev?*
G04 #@! TF.SameCoordinates,Original*
G04 #@! TF.FileFunction,Profile,NP*
%FSLAX46Y46*%
G04 Gerber Fmt 4.6, Leading zero omitted, Abs format (unit mm)*
G04 Created by KiCad (PCBNEW (6.0.1)) date 2023-03-04 18:11:18*
%MOMM*%
%LPD*%
G01*
G04 APERTURE LIST*
G04 #@! TA.AperFunction,Profile*
%ADD10C,0.100000*%
G04 #@! TD*
G04 APERTURE END LIST*
D10*
X177850000Y-106500000D02*
G75*
G03*
X177850000Y-101500000I0J2500000D01*
G01*
X30150000Y-101500000D02*
G75*
G03*
X30150000Y-106500000I0J-2500000D01*
G01*
X111000002Y-197499999D02*
X194000001Y-197500000D01*
X100500000Y-187849998D02*
X101500000Y-187849998D01*
X20150000Y-107500000D02*
X20150000Y-106500000D01*
X90850000Y-101500000D02*
X90850000Y-100500000D01*
X101500000Y-50500003D02*
G75*
G03*
X106500000Y-50500003I2500000J0D01*
G01*
X101500000Y-147499998D02*
G75*
G03*
X106500000Y-147499998I2500000J0D01*
G01*
X106500000Y-60500003D02*
X106500000Y-65700003D01*
X194000001Y-197500000D02*
G75*
G03*
X197500001Y-194000000I1J3499999D01*
G01*
X111000001Y-107500000D02*
G75*
G03*
X107500001Y-111000000I-1J-3499999D01*
G01*
X106500000Y-30150003D02*
X106500000Y-35325003D01*
X107500000Y-90850003D02*
X106500000Y-90850003D01*
X197500001Y-194000000D02*
X197500000Y-111000001D01*
X60500000Y-101500000D02*
G75*
G03*
X60500000Y-106500000I0J-2500000D01*
G01*
X157500000Y-101500000D02*
G75*
G03*
X157500000Y-106500000I0J-2500000D01*
G01*
X101500002Y-162674998D02*
G75*
G03*
X106500000Y-162674999I2499999J3D01*
G01*
X101500000Y-20150003D02*
G75*
G03*
X106500000Y-20150003I2500000J0D01*
G01*
X106500000Y-157499998D02*
X106500000Y-162674999D01*
X197500000Y-111000001D02*
G75*
G03*
X194000000Y-107500001I-3499999J1D01*
G01*
X101500001Y-162674998D02*
X101500000Y-157499998D01*
X75675000Y-101500000D02*
G75*
G03*
X75675000Y-106500000I0J-2500000D01*
G01*
X101500000Y-177849998D02*
G75*
G03*
X106500000Y-177849998I2500000J0D01*
G01*
X107500002Y-193999999D02*
G75*
G03*
X111000002Y-197499999I3499999J-1D01*
G01*
X117150000Y-106500000D02*
G75*
G03*
X117150000Y-101500000I0J2500000D01*
G01*
X106500000Y-142299998D02*
G75*
G03*
X101500000Y-142299998I-2500000J0D01*
G01*
X106499998Y-45325003D02*
G75*
G03*
X101500000Y-45325002I-2499999J-3D01*
G01*
X96999999Y-107500001D02*
X90850000Y-107500000D01*
X10500001Y-193999999D02*
X10500000Y-111000000D01*
X177850000Y-106500000D02*
X172675000Y-106500000D01*
X97000000Y-197500000D02*
G75*
G03*
X100500000Y-194000000I1J3499999D01*
G01*
X132325000Y-106500000D02*
G75*
G03*
X132325000Y-101500000I0J2500000D01*
G01*
X14000000Y-107500000D02*
X20150000Y-107500000D01*
X106500000Y-90850003D02*
G75*
G03*
X101500000Y-90850003I-2500000J0D01*
G01*
X147500000Y-106500000D02*
G75*
G03*
X147500000Y-101500000I0J2500000D01*
G01*
X10500001Y-193999999D02*
G75*
G03*
X14000001Y-197499999I3499999J-1D01*
G01*
X162675000Y-106500000D02*
G75*
G03*
X162675000Y-101500000I0J2500000D01*
G01*
X194000001Y-100500001D02*
G75*
G03*
X197500001Y-97000001I1J3499999D01*
G01*
X117150000Y-107500000D02*
X117150000Y-106500000D01*
X97000001Y-100500001D02*
X90850000Y-100500000D01*
X147500000Y-106500000D02*
X142300000Y-106500000D01*
X157500000Y-101500000D02*
X162675000Y-101500000D01*
X101500000Y-80850003D02*
X101500000Y-75675003D01*
X106500000Y-75675003D02*
X106500000Y-80850003D01*
X100500000Y-90850003D02*
X101500000Y-90850003D01*
X106500000Y-157499998D02*
G75*
G03*
X101500000Y-157499998I-2500000J0D01*
G01*
X101500000Y-177849998D02*
X101500000Y-172674998D01*
X20150000Y-106500000D02*
G75*
G03*
X20150000Y-101500000I0J2500000D01*
G01*
X194000001Y-100500001D02*
X187850000Y-100500000D01*
X194000000Y-107500001D02*
X187850000Y-107500000D01*
X100500000Y-117149998D02*
X101500000Y-117149998D01*
X14000001Y-10500001D02*
X97000000Y-10500002D01*
X107500001Y-14000001D02*
X107500000Y-20150003D01*
X100499999Y-111000001D02*
X100500000Y-117149998D01*
X106500000Y-172674998D02*
G75*
G03*
X101500000Y-172674998I-2500000J0D01*
G01*
X100500001Y-97000001D02*
X100500000Y-90850003D01*
X107500000Y-117149998D02*
X106500000Y-117149998D01*
X101500000Y-65700003D02*
X101500000Y-60500003D01*
X142300000Y-101500000D02*
G75*
G03*
X142300000Y-106500000I0J-2500000D01*
G01*
X127150000Y-101500000D02*
X132325000Y-101500000D01*
X107500000Y-187849998D02*
X106500000Y-187849998D01*
X90850000Y-107500000D02*
X90850000Y-106500000D01*
X35325000Y-106500000D02*
G75*
G03*
X35325000Y-101500000I0J2500000D01*
G01*
X100500000Y-14000002D02*
G75*
G03*
X97000000Y-10500002I-3499999J1D01*
G01*
X50500000Y-106500000D02*
X45300000Y-106500000D01*
X101500000Y-117149998D02*
G75*
G03*
X106500000Y-117149998I2500000J0D01*
G01*
X14000000Y-107500000D02*
G75*
G03*
X10500000Y-111000000I-1J-3499999D01*
G01*
X101500000Y-35325003D02*
G75*
G03*
X106500000Y-35325003I2500000J0D01*
G01*
X106500000Y-142299998D02*
X106500000Y-147499998D01*
X101500000Y-50500003D02*
X101500000Y-45325002D01*
X100500000Y-14000002D02*
X100500000Y-20150003D01*
X117150000Y-100500000D02*
X117150000Y-101500000D01*
X10500002Y-97000000D02*
X10500001Y-14000001D01*
X101500000Y-80850003D02*
G75*
G03*
X106500000Y-80850003I2500000J0D01*
G01*
X14000001Y-197499999D02*
X97000000Y-197500000D01*
X101500000Y-147499998D02*
X101500000Y-142299998D01*
X80850000Y-106500000D02*
X75675000Y-106500000D01*
X101500000Y-132324998D02*
X101500000Y-127149998D01*
X187850000Y-107500000D02*
X187850000Y-106500000D01*
X35325000Y-106500000D02*
X30150000Y-106500000D01*
X197500001Y-97000001D02*
X197500000Y-14000002D01*
X101500000Y-35325003D02*
X101500000Y-30150003D01*
X187850000Y-101500000D02*
G75*
G03*
X187850000Y-106500000I0J-2500000D01*
G01*
X172675000Y-101500000D02*
X177850000Y-101500000D01*
X107500001Y-111000000D02*
X107500000Y-117149998D01*
X101500000Y-132324998D02*
G75*
G03*
X106500000Y-132324998I2500000J0D01*
G01*
X80850000Y-106500000D02*
G75*
G03*
X80850000Y-101500000I0J2500000D01*
G01*
X127150000Y-101500000D02*
G75*
G03*
X127150000Y-106500000I0J-2500000D01*
G01*
X111000001Y-107500000D02*
X117150000Y-107500000D01*
X106500000Y-60500003D02*
G75*
G03*
X101500000Y-60500003I-2500000J0D01*
G01*
X10500002Y-97000000D02*
G75*
G03*
X14000002Y-100500000I3499999J-1D01*
G01*
X132325000Y-106500000D02*
X127150000Y-106500000D01*
X106499999Y-45325003D02*
X106500000Y-50500003D01*
X107500002Y-97000000D02*
G75*
G03*
X111000002Y-100500000I3499999J-1D01*
G01*
X90850000Y-101500000D02*
G75*
G03*
X90850000Y-106500000I0J-2500000D01*
G01*
X106500000Y-172674998D02*
X106500000Y-177849998D01*
X187850000Y-100500000D02*
X187850000Y-101500000D01*
X100500000Y-20150003D02*
X101500000Y-20150003D01*
X107500002Y-97000000D02*
X107500000Y-90850003D01*
X111000001Y-10500001D02*
X194000000Y-10500002D01*
X14000001Y-10500001D02*
G75*
G03*
X10500001Y-14000001I-1J-3499999D01*
G01*
X111000002Y-100500000D02*
X117150000Y-100500000D01*
X106500000Y-30150003D02*
G75*
G03*
X101500000Y-30150003I-2500000J0D01*
G01*
X50500000Y-106500000D02*
G75*
G03*
X50500000Y-101500000I0J2500000D01*
G01*
X45300000Y-101500000D02*
X50500000Y-101500000D01*
X30150000Y-101500000D02*
X35325000Y-101500000D01*
X106500000Y-127149998D02*
X106500000Y-132324998D01*
X106500000Y-127149998D02*
G75*
G03*
X101500000Y-127149998I-2500000J0D01*
G01*
X60500000Y-101500000D02*
X65675000Y-101500000D01*
X20150000Y-100500000D02*
X20150000Y-101500000D01*
X14000002Y-100500000D02*
X20150000Y-100500000D01*
X100499999Y-111000001D02*
G75*
G03*
X96999999Y-107500001I-3499999J1D01*
G01*
X162675000Y-106500000D02*
X157500000Y-106500000D01*
X65675000Y-106500000D02*
X60500000Y-106500000D01*
X172675000Y-101500000D02*
G75*
G03*
X172675000Y-106500000I0J-2500000D01*
G01*
X45300000Y-101500000D02*
G75*
G03*
X45300000Y-106500000I0J-2500000D01*
G01*
X142300000Y-101500000D02*
X147500000Y-101500000D01*
X111000001Y-10500001D02*
G75*
G03*
X107500001Y-14000001I-1J-3499999D01*
G01*
X101500000Y-65700003D02*
G75*
G03*
X106500000Y-65700003I2500000J0D01*
G01*
X75675000Y-101500000D02*
X80850000Y-101500000D01*
X106500000Y-75675003D02*
G75*
G03*
X101500000Y-75675003I-2500000J0D01*
G01*
X107500002Y-193999999D02*
X107500000Y-187849998D01*
X97000001Y-100500001D02*
G75*
G03*
X100500001Y-97000001I1J3499999D01*
G01*
X65675000Y-106500000D02*
G75*
G03*
X65675000Y-101500000I0J2500000D01*
G01*
X197500000Y-14000002D02*
G75*
G03*
X194000000Y-10500002I-3499999J1D01*
G01*
X106500000Y-187849998D02*
G75*
G03*
X101500000Y-187849998I-2500000J0D01*
G01*
X100500000Y-194000000D02*
X100500000Y-187849998D01*
X107500000Y-20150003D02*
X106500000Y-20150003D01*
M02*
