%FSLAX45Y45*%
G04 Gerber Fmt 4.5, Leading zero omitted, Abs format (unit mm)*
G04 Created by KiCad (PCBNEW (6.0.1)) date 2023-03-04 18:11:42*
%MOMM*%
%LPD*%
G01*
G04 APERTURE LIST*
%TA.AperFunction,Profile*%
%ADD10C,0.100000*%
%TD*%
%ADD11C,0.200000*%
%ADD12C,0.080000*%
%ADD13C,0.090000*%
%ADD14C,0.100000*%
%ADD15C,0.101000*%
%ADD16C,0.130000*%
%ADD17C,0.150000*%
%ADD18C,0.160000*%
%ADD19C,0.320000*%
G04 APERTURE END LIST*
D10*
X17785000Y-10650000D02*
G75*
G03*
X17785000Y-10150000I0J250000D01*
G01*
X3015000Y-10150000D02*
G75*
G03*
X3015000Y-10650000I0J-250000D01*
G01*
X11100000Y-19750000D02*
X19400000Y-19750000D01*
X10050000Y-18785000D02*
X10150000Y-18785000D01*
X2015000Y-10750000D02*
X2015000Y-10650000D01*
X9085000Y-10150000D02*
X9085000Y-10050000D01*
X10150000Y-5050000D02*
G75*
G03*
X10650000Y-5050000I250000J0D01*
G01*
X10150000Y-14750000D02*
G75*
G03*
X10650000Y-14750000I250000J0D01*
G01*
X10650000Y-6050000D02*
X10650000Y-6570000D01*
X19400000Y-19750000D02*
G75*
G03*
X19750000Y-19400000I0J350000D01*
G01*
X11100000Y-10750000D02*
G75*
G03*
X10750000Y-11100000I0J-350000D01*
G01*
X10650000Y-3015000D02*
X10650000Y-3532500D01*
X10750000Y-9085000D02*
X10650000Y-9085000D01*
X19750000Y-19400000D02*
X19750000Y-11100000D01*
X6050000Y-10150000D02*
G75*
G03*
X6050000Y-10650000I0J-250000D01*
G01*
X15750000Y-10150000D02*
G75*
G03*
X15750000Y-10650000I0J-250000D01*
G01*
X10150000Y-16267500D02*
G75*
G03*
X10650000Y-16267500I250000J0D01*
G01*
X10150000Y-2015000D02*
G75*
G03*
X10650000Y-2015000I250000J0D01*
G01*
X10650000Y-15750000D02*
X10650000Y-16267500D01*
X19750000Y-11100000D02*
G75*
G03*
X19400000Y-10750000I-350000J0D01*
G01*
X10150000Y-16267500D02*
X10150000Y-15750000D01*
X7567500Y-10150000D02*
G75*
G03*
X7567500Y-10650000I0J-250000D01*
G01*
X10150000Y-17785000D02*
G75*
G03*
X10650000Y-17785000I250000J0D01*
G01*
X10750000Y-19400000D02*
G75*
G03*
X11100000Y-19750000I350000J0D01*
G01*
X11715000Y-10650000D02*
G75*
G03*
X11715000Y-10150000I0J250000D01*
G01*
X10650000Y-14230000D02*
G75*
G03*
X10150000Y-14230000I-250000J0D01*
G01*
X10650000Y-4532500D02*
G75*
G03*
X10150000Y-4532500I-250000J0D01*
G01*
X9700000Y-10750000D02*
X9085000Y-10750000D01*
X1050000Y-19400000D02*
X1050000Y-11100000D01*
X17785000Y-10650000D02*
X17267500Y-10650000D01*
X9700000Y-19750000D02*
G75*
G03*
X10050000Y-19400000I0J350000D01*
G01*
X13232500Y-10650000D02*
G75*
G03*
X13232500Y-10150000I0J250000D01*
G01*
X1400000Y-10750000D02*
X2015000Y-10750000D01*
X10650000Y-9085000D02*
G75*
G03*
X10150000Y-9085000I-250000J0D01*
G01*
X14750000Y-10650000D02*
G75*
G03*
X14750000Y-10150000I0J250000D01*
G01*
X1050000Y-19400000D02*
G75*
G03*
X1400000Y-19750000I350000J0D01*
G01*
X16267500Y-10650000D02*
G75*
G03*
X16267500Y-10150000I0J250000D01*
G01*
X19400000Y-10050000D02*
G75*
G03*
X19750000Y-9700000I0J350000D01*
G01*
X11715000Y-10750000D02*
X11715000Y-10650000D01*
X9700000Y-10050000D02*
X9085000Y-10050000D01*
X14750000Y-10650000D02*
X14230000Y-10650000D01*
X15750000Y-10150000D02*
X16267500Y-10150000D01*
X10150000Y-8085000D02*
X10150000Y-7567500D01*
X10650000Y-7567500D02*
X10650000Y-8085000D01*
X10050000Y-9085000D02*
X10150000Y-9085000D01*
X10650000Y-15750000D02*
G75*
G03*
X10150000Y-15750000I-250000J0D01*
G01*
X10150000Y-17785000D02*
X10150000Y-17267500D01*
X2015000Y-10650000D02*
G75*
G03*
X2015000Y-10150000I0J250000D01*
G01*
X19400000Y-10050000D02*
X18785000Y-10050000D01*
X19400000Y-10750000D02*
X18785000Y-10750000D01*
X10050000Y-11715000D02*
X10150000Y-11715000D01*
X1400000Y-1050000D02*
X9700000Y-1050000D01*
X10750000Y-1400000D02*
X10750000Y-2015000D01*
X10050000Y-11100000D02*
X10050000Y-11715000D01*
X10650000Y-17267500D02*
G75*
G03*
X10150000Y-17267500I-250000J0D01*
G01*
X10050000Y-9700000D02*
X10050000Y-9085000D01*
X10750000Y-11715000D02*
X10650000Y-11715000D01*
X10150000Y-6570000D02*
X10150000Y-6050000D01*
X14230000Y-10150000D02*
G75*
G03*
X14230000Y-10650000I0J-250000D01*
G01*
X12715000Y-10150000D02*
X13232500Y-10150000D01*
X10750000Y-18785000D02*
X10650000Y-18785000D01*
X9085000Y-10750000D02*
X9085000Y-10650000D01*
X3532500Y-10650000D02*
G75*
G03*
X3532500Y-10150000I0J250000D01*
G01*
X10050000Y-1400000D02*
G75*
G03*
X9700000Y-1050000I-350000J0D01*
G01*
X5050000Y-10650000D02*
X4530000Y-10650000D01*
X10150000Y-11715000D02*
G75*
G03*
X10650000Y-11715000I250000J0D01*
G01*
X1400000Y-10750000D02*
G75*
G03*
X1050000Y-11100000I0J-350000D01*
G01*
X10150000Y-3532500D02*
G75*
G03*
X10650000Y-3532500I250000J0D01*
G01*
X10650000Y-14230000D02*
X10650000Y-14750000D01*
X10150000Y-5050000D02*
X10150000Y-4532500D01*
X10050000Y-1400000D02*
X10050000Y-2015000D01*
X11715000Y-10050000D02*
X11715000Y-10150000D01*
X1050000Y-9700000D02*
X1050000Y-1400000D01*
X10150000Y-8085000D02*
G75*
G03*
X10650000Y-8085000I250000J0D01*
G01*
X1400000Y-19750000D02*
X9700000Y-19750000D01*
X10150000Y-14750000D02*
X10150000Y-14230000D01*
X8085000Y-10650000D02*
X7567500Y-10650000D01*
X10150000Y-13232500D02*
X10150000Y-12715000D01*
X18785000Y-10750000D02*
X18785000Y-10650000D01*
X3532500Y-10650000D02*
X3015000Y-10650000D01*
X19750000Y-9700000D02*
X19750000Y-1400000D01*
X10150000Y-3532500D02*
X10150000Y-3015000D01*
X18785000Y-10150000D02*
G75*
G03*
X18785000Y-10650000I0J-250000D01*
G01*
X17267500Y-10150000D02*
X17785000Y-10150000D01*
X10750000Y-11100000D02*
X10750000Y-11715000D01*
X10150000Y-13232500D02*
G75*
G03*
X10650000Y-13232500I250000J0D01*
G01*
X8085000Y-10650000D02*
G75*
G03*
X8085000Y-10150000I0J250000D01*
G01*
X12715000Y-10150000D02*
G75*
G03*
X12715000Y-10650000I0J-250000D01*
G01*
X11100000Y-10750000D02*
X11715000Y-10750000D01*
X10650000Y-6050000D02*
G75*
G03*
X10150000Y-6050000I-250000J0D01*
G01*
X1050000Y-9700000D02*
G75*
G03*
X1400000Y-10050000I350000J0D01*
G01*
X13232500Y-10650000D02*
X12715000Y-10650000D01*
X10650000Y-4532500D02*
X10650000Y-5050000D01*
X10750000Y-9700000D02*
G75*
G03*
X11100000Y-10050000I350000J0D01*
G01*
X9085000Y-10150000D02*
G75*
G03*
X9085000Y-10650000I0J-250000D01*
G01*
X10650000Y-17267500D02*
X10650000Y-17785000D01*
X18785000Y-10050000D02*
X18785000Y-10150000D01*
X10050000Y-2015000D02*
X10150000Y-2015000D01*
X10750000Y-9700000D02*
X10750000Y-9085000D01*
X11100000Y-1050000D02*
X19400000Y-1050000D01*
X1400000Y-1050000D02*
G75*
G03*
X1050000Y-1400000I0J-350000D01*
G01*
X11100000Y-10050000D02*
X11715000Y-10050000D01*
X10650000Y-3015000D02*
G75*
G03*
X10150000Y-3015000I-250000J0D01*
G01*
X5050000Y-10650000D02*
G75*
G03*
X5050000Y-10150000I0J250000D01*
G01*
X4530000Y-10150000D02*
X5050000Y-10150000D01*
X3015000Y-10150000D02*
X3532500Y-10150000D01*
X10650000Y-12715000D02*
X10650000Y-13232500D01*
X10650000Y-12715000D02*
G75*
G03*
X10150000Y-12715000I-250000J0D01*
G01*
X6050000Y-10150000D02*
X6567500Y-10150000D01*
X2015000Y-10050000D02*
X2015000Y-10150000D01*
X1400000Y-10050000D02*
X2015000Y-10050000D01*
X10050000Y-11100000D02*
G75*
G03*
X9700000Y-10750000I-350000J0D01*
G01*
X16267500Y-10650000D02*
X15750000Y-10650000D01*
X6567500Y-10650000D02*
X6050000Y-10650000D01*
X17267500Y-10150000D02*
G75*
G03*
X17267500Y-10650000I0J-250000D01*
G01*
X4530000Y-10150000D02*
G75*
G03*
X4530000Y-10650000I0J-250000D01*
G01*
X14230000Y-10150000D02*
X14750000Y-10150000D01*
X11100000Y-1050000D02*
G75*
G03*
X10750000Y-1400000I0J-350000D01*
G01*
X10150000Y-6570000D02*
G75*
G03*
X10650000Y-6570000I250000J0D01*
G01*
X7567500Y-10150000D02*
X8085000Y-10150000D01*
X10650000Y-7567500D02*
G75*
G03*
X10150000Y-7567500I-250000J0D01*
G01*
X10750000Y-19400000D02*
X10750000Y-18785000D01*
X9700000Y-10050000D02*
G75*
G03*
X10050000Y-9700000I0J350000D01*
G01*
X6567500Y-10650000D02*
G75*
G03*
X6567500Y-10150000I0J250000D01*
G01*
X19750000Y-1400000D02*
G75*
G03*
X19400000Y-1050000I-350000J0D01*
G01*
X10650000Y-18785000D02*
G75*
G03*
X10150000Y-18785000I-250000J0D01*
G01*
X10050000Y-19400000D02*
X10050000Y-18785000D01*
X10750000Y-2015000D02*
X10650000Y-2015000D01*
D11*
D12*
X1700500Y-7030000D02*
X1780500Y-7110000D01*
X1780500Y-7030000D02*
X1700500Y-7110000D01*
X1700500Y-8560000D02*
X1780500Y-8640000D01*
X1780500Y-8560000D02*
X1700500Y-8640000D01*
X1907500Y-13276833D02*
X1987500Y-13356833D01*
X1987500Y-13276833D02*
X1907500Y-13356833D01*
X1907500Y-13486833D02*
X1987500Y-13566833D01*
X1987500Y-13486833D02*
X1907500Y-13566833D01*
X1907500Y-13746833D02*
X1987500Y-13826833D01*
X1987500Y-13746833D02*
X1907500Y-13826833D01*
X1907500Y-13956833D02*
X1987500Y-14036833D01*
X1987500Y-13956833D02*
X1907500Y-14036833D01*
X1907500Y-16465166D02*
X1987500Y-16545166D01*
X1987500Y-16465166D02*
X1907500Y-16545166D01*
X1907500Y-16675166D02*
X1987500Y-16755166D01*
X1987500Y-16675166D02*
X1907500Y-16755166D01*
X1907500Y-16935166D02*
X1987500Y-17015166D01*
X1987500Y-16935166D02*
X1907500Y-17015166D01*
X1907500Y-17145166D02*
X1987500Y-17225166D01*
X1987500Y-17145166D02*
X1907500Y-17225166D01*
X1954500Y-7030000D02*
X2034500Y-7110000D01*
X2034500Y-7030000D02*
X1954500Y-7110000D01*
X1954500Y-8560000D02*
X2034500Y-8640000D01*
X2034500Y-8560000D02*
X1954500Y-8640000D01*
X2187500Y-13276833D02*
X2267500Y-13356833D01*
X2267500Y-13276833D02*
X2187500Y-13356833D01*
X2187500Y-13956833D02*
X2267500Y-14036833D01*
X2267500Y-13956833D02*
X2187500Y-14036833D01*
X2187500Y-16465166D02*
X2267500Y-16545166D01*
X2267500Y-16465166D02*
X2187500Y-16545166D01*
X2187500Y-17145166D02*
X2267500Y-17225166D01*
X2267500Y-17145166D02*
X2187500Y-17225166D01*
X3056000Y-12350000D02*
X3136000Y-12430000D01*
X3136000Y-12350000D02*
X3056000Y-12430000D01*
X3310000Y-12350000D02*
X3390000Y-12430000D01*
X3390000Y-12350000D02*
X3310000Y-12430000D01*
X3336250Y-13354500D02*
X3416250Y-13434500D01*
X3416250Y-13354500D02*
X3336250Y-13434500D01*
X3336250Y-14116500D02*
X3416250Y-14196500D01*
X3416250Y-14116500D02*
X3336250Y-14196500D01*
X3336250Y-14624500D02*
X3416250Y-14704500D01*
X3416250Y-14624500D02*
X3336250Y-14704500D01*
X3336250Y-15132500D02*
X3416250Y-15212500D01*
X3416250Y-15132500D02*
X3336250Y-15212500D01*
X3336250Y-15922416D02*
X3416250Y-16002416D01*
X3416250Y-15922416D02*
X3336250Y-16002416D01*
X3336250Y-16684416D02*
X3416250Y-16764416D01*
X3416250Y-16684416D02*
X3336250Y-16764416D01*
X3336250Y-17192416D02*
X3416250Y-17272416D01*
X3416250Y-17192416D02*
X3336250Y-17272416D01*
X3336250Y-17700416D02*
X3416250Y-17780416D01*
X3416250Y-17700416D02*
X3336250Y-17780416D01*
X3360000Y-4325500D02*
X3440000Y-4405500D01*
X3440000Y-4325500D02*
X3360000Y-4405500D01*
X3360000Y-4579500D02*
X3440000Y-4659500D01*
X3440000Y-4579500D02*
X3360000Y-4659500D01*
X3378250Y-4873000D02*
X3458250Y-4953000D01*
X3458250Y-4873000D02*
X3378250Y-4953000D01*
X3378250Y-5635000D02*
X3458250Y-5715000D01*
X3458250Y-5635000D02*
X3378250Y-5715000D01*
X3660000Y-4325500D02*
X3740000Y-4405500D01*
X3740000Y-4325500D02*
X3660000Y-4405500D01*
X3660000Y-4579500D02*
X3740000Y-4659500D01*
X3740000Y-4579500D02*
X3660000Y-4659500D01*
X3960000Y-4325500D02*
X4040000Y-4405500D01*
X4040000Y-4325500D02*
X3960000Y-4405500D01*
X3960000Y-4579500D02*
X4040000Y-4659500D01*
X4040000Y-4579500D02*
X3960000Y-4659500D01*
X4098250Y-13354500D02*
X4178250Y-13434500D01*
X4178250Y-13354500D02*
X4098250Y-13434500D01*
X4098250Y-14116500D02*
X4178250Y-14196500D01*
X4178250Y-14116500D02*
X4098250Y-14196500D01*
X4098250Y-14624500D02*
X4178250Y-14704500D01*
X4178250Y-14624500D02*
X4098250Y-14704500D01*
X4098250Y-15132500D02*
X4178250Y-15212500D01*
X4178250Y-15132500D02*
X4098250Y-15212500D01*
X4098250Y-15922416D02*
X4178250Y-16002416D01*
X4178250Y-15922416D02*
X4098250Y-16002416D01*
X4098250Y-16684416D02*
X4178250Y-16764416D01*
X4178250Y-16684416D02*
X4098250Y-16764416D01*
X4098250Y-17192416D02*
X4178250Y-17272416D01*
X4178250Y-17192416D02*
X4098250Y-17272416D01*
X4098250Y-17700416D02*
X4178250Y-17780416D01*
X4178250Y-17700416D02*
X4098250Y-17780416D01*
X4140250Y-4873000D02*
X4220250Y-4953000D01*
X4220250Y-4873000D02*
X4140250Y-4953000D01*
X4140250Y-5635000D02*
X4220250Y-5715000D01*
X4220250Y-5635000D02*
X4140250Y-5715000D01*
X4260000Y-4326000D02*
X4340000Y-4406000D01*
X4340000Y-4326000D02*
X4260000Y-4406000D01*
X4260000Y-4580000D02*
X4340000Y-4660000D01*
X4340000Y-4580000D02*
X4260000Y-4660000D01*
X4560000Y-4325500D02*
X4640000Y-4405500D01*
X4640000Y-4325500D02*
X4560000Y-4405500D01*
X4560000Y-4579500D02*
X4640000Y-4659500D01*
X4640000Y-4579500D02*
X4560000Y-4659500D01*
X4648250Y-4873000D02*
X4728250Y-4953000D01*
X4728250Y-4873000D02*
X4648250Y-4953000D01*
X4648250Y-5635000D02*
X4728250Y-5715000D01*
X4728250Y-5635000D02*
X4648250Y-5715000D01*
X4848000Y-13354500D02*
X4928000Y-13434500D01*
X4928000Y-13354500D02*
X4848000Y-13434500D01*
X4848000Y-14116500D02*
X4928000Y-14196500D01*
X4928000Y-14116500D02*
X4848000Y-14196500D01*
X4848000Y-14624500D02*
X4928000Y-14704500D01*
X4928000Y-14624500D02*
X4848000Y-14704500D01*
X4848000Y-15132500D02*
X4928000Y-15212500D01*
X4928000Y-15132500D02*
X4848000Y-15212500D01*
X4848125Y-15922416D02*
X4928125Y-16002416D01*
X4928125Y-15922416D02*
X4848125Y-16002416D01*
X4848125Y-16684416D02*
X4928125Y-16764416D01*
X4928125Y-16684416D02*
X4848125Y-16764416D01*
X4848125Y-17192416D02*
X4928125Y-17272416D01*
X4928125Y-17192416D02*
X4848125Y-17272416D01*
X4848125Y-17700416D02*
X4928125Y-17780416D01*
X4928125Y-17700416D02*
X4848125Y-17780416D01*
X4860000Y-4325500D02*
X4940000Y-4405500D01*
X4940000Y-4325500D02*
X4860000Y-4405500D01*
X4860000Y-4579500D02*
X4940000Y-4659500D01*
X4940000Y-4579500D02*
X4860000Y-4659500D01*
X5156250Y-4873000D02*
X5236250Y-4953000D01*
X5236250Y-4873000D02*
X5156250Y-4953000D01*
X5156250Y-5635000D02*
X5236250Y-5715000D01*
X5236250Y-5635000D02*
X5156250Y-5715000D01*
X5160000Y-4325500D02*
X5240000Y-4405500D01*
X5240000Y-4325500D02*
X5160000Y-4405500D01*
X5160000Y-4579500D02*
X5240000Y-4659500D01*
X5240000Y-4579500D02*
X5160000Y-4659500D01*
X5503250Y-4873000D02*
X5583250Y-4953000D01*
X5583250Y-4873000D02*
X5503250Y-4953000D01*
X5503250Y-5635000D02*
X5583250Y-5715000D01*
X5583250Y-5635000D02*
X5503250Y-5715000D01*
X5505867Y-2673000D02*
X5585867Y-2753000D01*
X5585867Y-2673000D02*
X5505867Y-2753000D01*
X5505867Y-3435000D02*
X5585867Y-3515000D01*
X5585867Y-3435000D02*
X5505867Y-3515000D01*
X5505867Y-3773000D02*
X5585867Y-3853000D01*
X5585867Y-3773000D02*
X5505867Y-3853000D01*
X5505867Y-4535000D02*
X5585867Y-4615000D01*
X5585867Y-4535000D02*
X5505867Y-4615000D01*
X5610000Y-13354500D02*
X5690000Y-13434500D01*
X5690000Y-13354500D02*
X5610000Y-13434500D01*
X5610000Y-14116500D02*
X5690000Y-14196500D01*
X5690000Y-14116500D02*
X5610000Y-14196500D01*
X5610000Y-14624500D02*
X5690000Y-14704500D01*
X5690000Y-14624500D02*
X5610000Y-14704500D01*
X5610000Y-15132500D02*
X5690000Y-15212500D01*
X5690000Y-15132500D02*
X5610000Y-15212500D01*
X5610125Y-15922416D02*
X5690125Y-16002416D01*
X5690125Y-15922416D02*
X5610125Y-16002416D01*
X5610125Y-16684416D02*
X5690125Y-16764416D01*
X5690125Y-16684416D02*
X5610125Y-16764416D01*
X5610125Y-17192416D02*
X5690125Y-17272416D01*
X5690125Y-17192416D02*
X5610125Y-17272416D01*
X5610125Y-17700416D02*
X5690125Y-17780416D01*
X5690125Y-17700416D02*
X5610125Y-17780416D01*
X6265250Y-4873000D02*
X6345250Y-4953000D01*
X6345250Y-4873000D02*
X6265250Y-4953000D01*
X6265250Y-5635000D02*
X6345250Y-5715000D01*
X6345250Y-5635000D02*
X6265250Y-5715000D01*
X6267867Y-2673000D02*
X6347867Y-2753000D01*
X6347867Y-2673000D02*
X6267867Y-2753000D01*
X6267867Y-3435000D02*
X6347867Y-3515000D01*
X6347867Y-3435000D02*
X6267867Y-3515000D01*
X6267867Y-3773000D02*
X6347867Y-3853000D01*
X6347867Y-3773000D02*
X6267867Y-3853000D01*
X6267867Y-4535000D02*
X6347867Y-4615000D01*
X6347867Y-4535000D02*
X6267867Y-4615000D01*
X6360000Y-13354500D02*
X6440000Y-13434500D01*
X6440000Y-13354500D02*
X6360000Y-13434500D01*
X6360000Y-14116500D02*
X6440000Y-14196500D01*
X6440000Y-14116500D02*
X6360000Y-14196500D01*
X6360000Y-14624500D02*
X6440000Y-14704500D01*
X6440000Y-14624500D02*
X6360000Y-14704500D01*
X6360000Y-15132500D02*
X6440000Y-15212500D01*
X6440000Y-15132500D02*
X6360000Y-15212500D01*
X6360000Y-15922416D02*
X6440000Y-16002416D01*
X6440000Y-15922416D02*
X6360000Y-16002416D01*
X6360000Y-16684416D02*
X6440000Y-16764416D01*
X6440000Y-16684416D02*
X6360000Y-16764416D01*
X6360000Y-17192416D02*
X6440000Y-17272416D01*
X6440000Y-17192416D02*
X6360000Y-17272416D01*
X6360000Y-17700416D02*
X6440000Y-17780416D01*
X6440000Y-17700416D02*
X6360000Y-17780416D01*
X6773250Y-4873000D02*
X6853250Y-4953000D01*
X6853250Y-4873000D02*
X6773250Y-4953000D01*
X6773250Y-5635000D02*
X6853250Y-5715000D01*
X6853250Y-5635000D02*
X6773250Y-5715000D01*
X6775867Y-2673000D02*
X6855867Y-2753000D01*
X6855867Y-2673000D02*
X6775867Y-2753000D01*
X6775867Y-3435000D02*
X6855867Y-3515000D01*
X6855867Y-3435000D02*
X6775867Y-3515000D01*
X6775867Y-3773000D02*
X6855867Y-3853000D01*
X6855867Y-3773000D02*
X6775867Y-3853000D01*
X6775867Y-4535000D02*
X6855867Y-4615000D01*
X6855867Y-4535000D02*
X6775867Y-4615000D01*
X7122000Y-13354500D02*
X7202000Y-13434500D01*
X7202000Y-13354500D02*
X7122000Y-13434500D01*
X7122000Y-14116500D02*
X7202000Y-14196500D01*
X7202000Y-14116500D02*
X7122000Y-14196500D01*
X7122000Y-14624500D02*
X7202000Y-14704500D01*
X7202000Y-14624500D02*
X7122000Y-14704500D01*
X7122000Y-15132500D02*
X7202000Y-15212500D01*
X7202000Y-15132500D02*
X7122000Y-15212500D01*
X7122000Y-15922416D02*
X7202000Y-16002416D01*
X7202000Y-15922416D02*
X7122000Y-16002416D01*
X7122000Y-16684416D02*
X7202000Y-16764416D01*
X7202000Y-16684416D02*
X7122000Y-16764416D01*
X7122000Y-17192416D02*
X7202000Y-17272416D01*
X7202000Y-17192416D02*
X7122000Y-17272416D01*
X7122000Y-17700416D02*
X7202000Y-17780416D01*
X7202000Y-17700416D02*
X7122000Y-17780416D01*
X7281250Y-4873000D02*
X7361250Y-4953000D01*
X7361250Y-4873000D02*
X7281250Y-4953000D01*
X7281250Y-5635000D02*
X7361250Y-5715000D01*
X7361250Y-5635000D02*
X7281250Y-5715000D01*
X7283867Y-2673000D02*
X7363867Y-2753000D01*
X7363867Y-2673000D02*
X7283867Y-2753000D01*
X7283867Y-3435000D02*
X7363867Y-3515000D01*
X7363867Y-3435000D02*
X7283867Y-3515000D01*
X7283867Y-3773000D02*
X7363867Y-3853000D01*
X7363867Y-3773000D02*
X7283867Y-3853000D01*
X7283867Y-4535000D02*
X7363867Y-4615000D01*
X7363867Y-4535000D02*
X7283867Y-4615000D01*
X7515500Y-12350000D02*
X7595500Y-12430000D01*
X7595500Y-12350000D02*
X7515500Y-12430000D01*
X7627565Y-4872085D02*
X7707565Y-4952085D01*
X7707565Y-4872085D02*
X7627565Y-4952085D01*
X7627565Y-5634085D02*
X7707565Y-5714085D01*
X7707565Y-5634085D02*
X7627565Y-5714085D01*
X7630867Y-2673000D02*
X7710867Y-2753000D01*
X7710867Y-2673000D02*
X7630867Y-2753000D01*
X7630867Y-3435000D02*
X7710867Y-3515000D01*
X7710867Y-3435000D02*
X7630867Y-3515000D01*
X7630867Y-3773000D02*
X7710867Y-3853000D01*
X7710867Y-3773000D02*
X7630867Y-3853000D01*
X7630867Y-4535000D02*
X7710867Y-4615000D01*
X7710867Y-4535000D02*
X7630867Y-4615000D01*
X7769500Y-12350000D02*
X7849500Y-12430000D01*
X7849500Y-12350000D02*
X7769500Y-12430000D01*
X8135565Y-4872085D02*
X8215565Y-4952085D01*
X8215565Y-4872085D02*
X8135565Y-4952085D01*
X8135565Y-5634085D02*
X8215565Y-5714085D01*
X8215565Y-5634085D02*
X8135565Y-5714085D01*
X8392867Y-2673000D02*
X8472867Y-2753000D01*
X8472867Y-2673000D02*
X8392867Y-2753000D01*
X8392867Y-3435000D02*
X8472867Y-3515000D01*
X8472867Y-3435000D02*
X8392867Y-3515000D01*
X8392867Y-3773000D02*
X8472867Y-3853000D01*
X8472867Y-3773000D02*
X8392867Y-3853000D01*
X8392867Y-4535000D02*
X8472867Y-4615000D01*
X8472867Y-4535000D02*
X8392867Y-4615000D01*
X8643565Y-4872085D02*
X8723565Y-4952085D01*
X8723565Y-4872085D02*
X8643565Y-4952085D01*
X8643565Y-5634085D02*
X8723565Y-5714085D01*
X8723565Y-5634085D02*
X8643565Y-5714085D01*
X8900867Y-2673000D02*
X8980867Y-2753000D01*
X8980867Y-2673000D02*
X8900867Y-2753000D01*
X8900867Y-3435000D02*
X8980867Y-3515000D01*
X8980867Y-3435000D02*
X8900867Y-3515000D01*
X8900867Y-3773000D02*
X8980867Y-3853000D01*
X8980867Y-3773000D02*
X8900867Y-3853000D01*
X8900867Y-4535000D02*
X8980867Y-4615000D01*
X8980867Y-4535000D02*
X8900867Y-4615000D01*
X9405565Y-4872085D02*
X9485565Y-4952085D01*
X9485565Y-4872085D02*
X9405565Y-4952085D01*
X9405565Y-5634085D02*
X9485565Y-5714085D01*
X9485565Y-5634085D02*
X9405565Y-5714085D01*
X9408867Y-2673000D02*
X9488867Y-2753000D01*
X9488867Y-2673000D02*
X9408867Y-2753000D01*
X9408867Y-3435000D02*
X9488867Y-3515000D01*
X9488867Y-3435000D02*
X9408867Y-3515000D01*
X9408867Y-3773000D02*
X9488867Y-3853000D01*
X9488867Y-3773000D02*
X9408867Y-3853000D01*
X9408867Y-4535000D02*
X9488867Y-4615000D01*
X9488867Y-4535000D02*
X9408867Y-4615000D01*
X11353000Y-6686250D02*
X11433000Y-6766250D01*
X11433000Y-6686250D02*
X11353000Y-6766250D01*
X11378000Y-2960000D02*
X11458000Y-3040000D01*
X11458000Y-2960000D02*
X11378000Y-3040000D01*
X11607000Y-6686250D02*
X11687000Y-6766250D01*
X11687000Y-6686250D02*
X11607000Y-6766250D01*
X11632000Y-2960000D02*
X11712000Y-3040000D01*
X11712000Y-2960000D02*
X11632000Y-3040000D01*
X12053000Y-6686250D02*
X12133000Y-6766250D01*
X12133000Y-6686250D02*
X12053000Y-6766250D01*
X12078000Y-2960000D02*
X12158000Y-3040000D01*
X12158000Y-2960000D02*
X12078000Y-3040000D01*
X12240000Y-12046000D02*
X12320000Y-12126000D01*
X12320000Y-12046000D02*
X12240000Y-12126000D01*
X12240000Y-12300000D02*
X12320000Y-12380000D01*
X12320000Y-12300000D02*
X12240000Y-12380000D01*
X12307000Y-6686250D02*
X12387000Y-6766250D01*
X12387000Y-6686250D02*
X12307000Y-6766250D01*
X12332000Y-2960000D02*
X12412000Y-3040000D01*
X12412000Y-2960000D02*
X12332000Y-3040000D01*
X12700500Y-2510000D02*
X12780500Y-2590000D01*
X12780500Y-2510000D02*
X12700500Y-2590000D01*
X12954500Y-2510000D02*
X13034500Y-2590000D01*
X13034500Y-2510000D02*
X12954500Y-2590000D01*
X13278250Y-17248000D02*
X13358250Y-17328000D01*
X13358250Y-17248000D02*
X13278250Y-17328000D01*
X13278250Y-18010000D02*
X13358250Y-18090000D01*
X13358250Y-18010000D02*
X13278250Y-18090000D01*
X13282000Y-16086250D02*
X13362000Y-16166250D01*
X13362000Y-16086250D02*
X13282000Y-16166250D01*
X13282000Y-16848250D02*
X13362000Y-16928250D01*
X13362000Y-16848250D02*
X13282000Y-16928250D01*
X13288750Y-14912500D02*
X13368750Y-14992500D01*
X13368750Y-14912500D02*
X13288750Y-14992500D01*
X13288750Y-15674500D02*
X13368750Y-15754500D01*
X13368750Y-15674500D02*
X13288750Y-15754500D01*
X13303250Y-13723000D02*
X13383250Y-13803000D01*
X13383250Y-13723000D02*
X13303250Y-13803000D01*
X13303250Y-14485000D02*
X13383250Y-14565000D01*
X13383250Y-14485000D02*
X13303250Y-14565000D01*
X13378250Y-3898000D02*
X13458250Y-3978000D01*
X13458250Y-3898000D02*
X13378250Y-3978000D01*
X13378250Y-4660000D02*
X13458250Y-4740000D01*
X13458250Y-4660000D02*
X13378250Y-4740000D01*
X13378250Y-5398000D02*
X13458250Y-5478000D01*
X13458250Y-5398000D02*
X13378250Y-5478000D01*
X13378250Y-6160000D02*
X13458250Y-6240000D01*
X13458250Y-6160000D02*
X13378250Y-6240000D01*
X13378250Y-6898000D02*
X13458250Y-6978000D01*
X13458250Y-6898000D02*
X13378250Y-6978000D01*
X13378250Y-7660000D02*
X13458250Y-7740000D01*
X13458250Y-7660000D02*
X13378250Y-7740000D01*
X13790000Y-16086250D02*
X13870000Y-16166250D01*
X13870000Y-16086250D02*
X13790000Y-16166250D01*
X13790000Y-16848250D02*
X13870000Y-16928250D01*
X13870000Y-16848250D02*
X13790000Y-16928250D01*
X13796750Y-14912500D02*
X13876750Y-14992500D01*
X13876750Y-14912500D02*
X13796750Y-14992500D01*
X13796750Y-15674500D02*
X13876750Y-15754500D01*
X13876750Y-15674500D02*
X13796750Y-15754500D01*
X14040250Y-17248000D02*
X14120250Y-17328000D01*
X14120250Y-17248000D02*
X14040250Y-17328000D01*
X14040250Y-18010000D02*
X14120250Y-18090000D01*
X14120250Y-18010000D02*
X14040250Y-18090000D01*
X14065250Y-13723000D02*
X14145250Y-13803000D01*
X14145250Y-13723000D02*
X14065250Y-13803000D01*
X14065250Y-14485000D02*
X14145250Y-14565000D01*
X14145250Y-14485000D02*
X14065250Y-14565000D01*
X14140250Y-3898000D02*
X14220250Y-3978000D01*
X14220250Y-3898000D02*
X14140250Y-3978000D01*
X14140250Y-4660000D02*
X14220250Y-4740000D01*
X14220250Y-4660000D02*
X14140250Y-4740000D01*
X14140250Y-5398000D02*
X14220250Y-5478000D01*
X14220250Y-5398000D02*
X14140250Y-5478000D01*
X14140250Y-6160000D02*
X14220250Y-6240000D01*
X14220250Y-6160000D02*
X14140250Y-6240000D01*
X14140250Y-6898000D02*
X14220250Y-6978000D01*
X14220250Y-6898000D02*
X14140250Y-6978000D01*
X14140250Y-7660000D02*
X14220250Y-7740000D01*
X14220250Y-7660000D02*
X14140250Y-7740000D01*
X14298000Y-16086250D02*
X14378000Y-16166250D01*
X14378000Y-16086250D02*
X14298000Y-16166250D01*
X14298000Y-16848250D02*
X14378000Y-16928250D01*
X14378000Y-16848250D02*
X14298000Y-16928250D01*
X14304750Y-14912500D02*
X14384750Y-14992500D01*
X14384750Y-14912500D02*
X14304750Y-14992500D01*
X14304750Y-15674500D02*
X14384750Y-15754500D01*
X14384750Y-15674500D02*
X14304750Y-15754500D01*
X14548250Y-17248000D02*
X14628250Y-17328000D01*
X14628250Y-17248000D02*
X14548250Y-17328000D01*
X14548250Y-18010000D02*
X14628250Y-18090000D01*
X14628250Y-18010000D02*
X14548250Y-18090000D01*
X14573250Y-13723000D02*
X14653250Y-13803000D01*
X14653250Y-13723000D02*
X14573250Y-13803000D01*
X14573250Y-14485000D02*
X14653250Y-14565000D01*
X14653250Y-14485000D02*
X14573250Y-14565000D01*
X14648250Y-3898000D02*
X14728250Y-3978000D01*
X14728250Y-3898000D02*
X14648250Y-3978000D01*
X14648250Y-4660000D02*
X14728250Y-4740000D01*
X14728250Y-4660000D02*
X14648250Y-4740000D01*
X14648250Y-5398000D02*
X14728250Y-5478000D01*
X14728250Y-5398000D02*
X14648250Y-5478000D01*
X14648250Y-6160000D02*
X14728250Y-6240000D01*
X14728250Y-6160000D02*
X14648250Y-6240000D01*
X14648250Y-6898000D02*
X14728250Y-6978000D01*
X14728250Y-6898000D02*
X14648250Y-6978000D01*
X14648250Y-7660000D02*
X14728250Y-7740000D01*
X14728250Y-7660000D02*
X14648250Y-7740000D01*
X15056250Y-17248000D02*
X15136250Y-17328000D01*
X15136250Y-17248000D02*
X15056250Y-17328000D01*
X15056250Y-18010000D02*
X15136250Y-18090000D01*
X15136250Y-18010000D02*
X15056250Y-18090000D01*
X15060000Y-16086250D02*
X15140000Y-16166250D01*
X15140000Y-16086250D02*
X15060000Y-16166250D01*
X15060000Y-16848250D02*
X15140000Y-16928250D01*
X15140000Y-16848250D02*
X15060000Y-16928250D01*
X15066750Y-14912500D02*
X15146750Y-14992500D01*
X15146750Y-14912500D02*
X15066750Y-14992500D01*
X15066750Y-15674500D02*
X15146750Y-15754500D01*
X15146750Y-15674500D02*
X15066750Y-15754500D01*
X15081250Y-13723000D02*
X15161250Y-13803000D01*
X15161250Y-13723000D02*
X15081250Y-13803000D01*
X15081250Y-14485000D02*
X15161250Y-14565000D01*
X15161250Y-14485000D02*
X15081250Y-14565000D01*
X15156250Y-3898000D02*
X15236250Y-3978000D01*
X15236250Y-3898000D02*
X15156250Y-3978000D01*
X15156250Y-4660000D02*
X15236250Y-4740000D01*
X15236250Y-4660000D02*
X15156250Y-4740000D01*
X15156250Y-5398000D02*
X15236250Y-5478000D01*
X15236250Y-5398000D02*
X15156250Y-5478000D01*
X15156250Y-6160000D02*
X15236250Y-6240000D01*
X15236250Y-6160000D02*
X15156250Y-6240000D01*
X15156250Y-6898000D02*
X15236250Y-6978000D01*
X15236250Y-6898000D02*
X15156250Y-6978000D01*
X15156250Y-7660000D02*
X15236250Y-7740000D01*
X15236250Y-7660000D02*
X15156250Y-7740000D01*
X15928038Y-6897487D02*
X16008038Y-6977487D01*
X16008038Y-6897487D02*
X15928038Y-6977487D01*
X15928038Y-7659487D02*
X16008038Y-7739487D01*
X16008038Y-7659487D02*
X15928038Y-7739487D01*
X15928250Y-5398000D02*
X16008250Y-5478000D01*
X16008250Y-5398000D02*
X15928250Y-5478000D01*
X15928250Y-6160000D02*
X16008250Y-6240000D01*
X16008250Y-6160000D02*
X15928250Y-6240000D01*
X15960000Y-3924250D02*
X16040000Y-4004250D01*
X16040000Y-3924250D02*
X15960000Y-4004250D01*
X15960000Y-4686250D02*
X16040000Y-4766250D01*
X16040000Y-4686250D02*
X15960000Y-4766250D01*
X16382000Y-13632766D02*
X16462000Y-13712766D01*
X16462000Y-13632766D02*
X16382000Y-13712766D01*
X16382000Y-14394766D02*
X16462000Y-14474766D01*
X16462000Y-14394766D02*
X16382000Y-14474766D01*
X16382000Y-14807766D02*
X16462000Y-14887766D01*
X16462000Y-14807766D02*
X16382000Y-14887766D01*
X16382000Y-15569766D02*
X16462000Y-15649766D01*
X16462000Y-15569766D02*
X16382000Y-15649766D01*
X16396500Y-12442016D02*
X16476500Y-12522016D01*
X16476500Y-12442016D02*
X16396500Y-12522016D01*
X16396500Y-13204016D02*
X16476500Y-13284016D01*
X16476500Y-13204016D02*
X16396500Y-13284016D01*
X16396500Y-15968266D02*
X16476500Y-16048266D01*
X16476500Y-15968266D02*
X16396500Y-16048266D01*
X16396500Y-16730266D02*
X16476500Y-16810266D01*
X16476500Y-16730266D02*
X16396500Y-16810266D01*
X16690038Y-6897487D02*
X16770038Y-6977487D01*
X16770038Y-6897487D02*
X16690038Y-6977487D01*
X16690038Y-7659487D02*
X16770038Y-7739487D01*
X16770038Y-7659487D02*
X16690038Y-7739487D01*
X16690250Y-5398000D02*
X16770250Y-5478000D01*
X16770250Y-5398000D02*
X16690250Y-5478000D01*
X16690250Y-6160000D02*
X16770250Y-6240000D01*
X16770250Y-6160000D02*
X16690250Y-6240000D01*
X16722000Y-3924250D02*
X16802000Y-4004250D01*
X16802000Y-3924250D02*
X16722000Y-4004250D01*
X16722000Y-4686250D02*
X16802000Y-4766250D01*
X16802000Y-4686250D02*
X16722000Y-4766250D01*
X16890000Y-13632766D02*
X16970000Y-13712766D01*
X16970000Y-13632766D02*
X16890000Y-13712766D01*
X16890000Y-14394766D02*
X16970000Y-14474766D01*
X16970000Y-14394766D02*
X16890000Y-14474766D01*
X16890000Y-14807766D02*
X16970000Y-14887766D01*
X16970000Y-14807766D02*
X16890000Y-14887766D01*
X16890000Y-15569766D02*
X16970000Y-15649766D01*
X16970000Y-15569766D02*
X16890000Y-15649766D01*
X17045500Y-12080000D02*
X17125500Y-12160000D01*
X17125500Y-12080000D02*
X17045500Y-12160000D01*
X17158500Y-12442016D02*
X17238500Y-12522016D01*
X17238500Y-12442016D02*
X17158500Y-12522016D01*
X17158500Y-13204016D02*
X17238500Y-13284016D01*
X17238500Y-13204016D02*
X17158500Y-13284016D01*
X17158500Y-15968266D02*
X17238500Y-16048266D01*
X17238500Y-15968266D02*
X17158500Y-16048266D01*
X17158500Y-16730266D02*
X17238500Y-16810266D01*
X17238500Y-16730266D02*
X17158500Y-16810266D01*
X17198038Y-6897487D02*
X17278038Y-6977487D01*
X17278038Y-6897487D02*
X17198038Y-6977487D01*
X17198038Y-7659487D02*
X17278038Y-7739487D01*
X17278038Y-7659487D02*
X17198038Y-7739487D01*
X17198250Y-5398000D02*
X17278250Y-5478000D01*
X17278250Y-5398000D02*
X17198250Y-5478000D01*
X17198250Y-6160000D02*
X17278250Y-6240000D01*
X17278250Y-6160000D02*
X17198250Y-6240000D01*
X17230000Y-3924250D02*
X17310000Y-4004250D01*
X17310000Y-3924250D02*
X17230000Y-4004250D01*
X17230000Y-4686250D02*
X17310000Y-4766250D01*
X17310000Y-4686250D02*
X17230000Y-4766250D01*
X17299500Y-12080000D02*
X17379500Y-12160000D01*
X17379500Y-12080000D02*
X17299500Y-12160000D01*
X17398000Y-13632766D02*
X17478000Y-13712766D01*
X17478000Y-13632766D02*
X17398000Y-13712766D01*
X17398000Y-14394766D02*
X17478000Y-14474766D01*
X17478000Y-14394766D02*
X17398000Y-14474766D01*
X17398000Y-14807766D02*
X17478000Y-14887766D01*
X17478000Y-14807766D02*
X17398000Y-14887766D01*
X17398000Y-15569766D02*
X17478000Y-15649766D01*
X17478000Y-15569766D02*
X17398000Y-15649766D01*
X17455500Y-2510000D02*
X17535500Y-2590000D01*
X17535500Y-2510000D02*
X17455500Y-2590000D01*
X17666500Y-12442016D02*
X17746500Y-12522016D01*
X17746500Y-12442016D02*
X17666500Y-12522016D01*
X17666500Y-13204016D02*
X17746500Y-13284016D01*
X17746500Y-13204016D02*
X17666500Y-13284016D01*
X17666500Y-15968266D02*
X17746500Y-16048266D01*
X17746500Y-15968266D02*
X17666500Y-16048266D01*
X17666500Y-16730266D02*
X17746500Y-16810266D01*
X17746500Y-16730266D02*
X17666500Y-16810266D01*
X17706038Y-6897487D02*
X17786038Y-6977487D01*
X17786038Y-6897487D02*
X17706038Y-6977487D01*
X17706038Y-7659487D02*
X17786038Y-7739487D01*
X17786038Y-7659487D02*
X17706038Y-7739487D01*
X17706250Y-5398000D02*
X17786250Y-5478000D01*
X17786250Y-5398000D02*
X17706250Y-5478000D01*
X17706250Y-6160000D02*
X17786250Y-6240000D01*
X17786250Y-6160000D02*
X17706250Y-6240000D01*
X17709500Y-2510000D02*
X17789500Y-2590000D01*
X17789500Y-2510000D02*
X17709500Y-2590000D01*
X17738000Y-3924250D02*
X17818000Y-4004250D01*
X17818000Y-3924250D02*
X17738000Y-4004250D01*
X17738000Y-4686250D02*
X17818000Y-4766250D01*
X17818000Y-4686250D02*
X17738000Y-4766250D01*
X18160000Y-13632766D02*
X18240000Y-13712766D01*
X18240000Y-13632766D02*
X18160000Y-13712766D01*
X18160000Y-14394766D02*
X18240000Y-14474766D01*
X18240000Y-14394766D02*
X18160000Y-14474766D01*
X18160000Y-14807766D02*
X18240000Y-14887766D01*
X18240000Y-14807766D02*
X18160000Y-14887766D01*
X18160000Y-15569766D02*
X18240000Y-15649766D01*
X18240000Y-15569766D02*
X18160000Y-15649766D01*
X18174500Y-12442016D02*
X18254500Y-12522016D01*
X18254500Y-12442016D02*
X18174500Y-12522016D01*
X18174500Y-13204016D02*
X18254500Y-13284016D01*
X18254500Y-13204016D02*
X18174500Y-13284016D01*
X18174500Y-15968266D02*
X18254500Y-16048266D01*
X18254500Y-15968266D02*
X18174500Y-16048266D01*
X18174500Y-16730266D02*
X18254500Y-16810266D01*
X18254500Y-16730266D02*
X18174500Y-16810266D01*
X18410000Y-6061250D02*
X18490000Y-6141250D01*
X18490000Y-6061250D02*
X18410000Y-6141250D01*
X18410000Y-6823250D02*
X18490000Y-6903250D01*
X18490000Y-6823250D02*
X18410000Y-6903250D01*
X18410000Y-7331250D02*
X18490000Y-7411250D01*
X18490000Y-7331250D02*
X18410000Y-7411250D01*
X18410000Y-7839250D02*
X18490000Y-7919250D01*
X18490000Y-7839250D02*
X18410000Y-7919250D01*
X18412500Y-3704500D02*
X18492500Y-3784500D01*
X18492500Y-3704500D02*
X18412500Y-3784500D01*
X18412500Y-4466500D02*
X18492500Y-4546500D01*
X18492500Y-4466500D02*
X18412500Y-4546500D01*
X18412500Y-4974500D02*
X18492500Y-5054500D01*
X18492500Y-4974500D02*
X18412500Y-5054500D01*
X18412500Y-5482500D02*
X18492500Y-5562500D01*
X18492500Y-5482500D02*
X18412500Y-5562500D01*
X19172000Y-6061250D02*
X19252000Y-6141250D01*
X19252000Y-6061250D02*
X19172000Y-6141250D01*
X19172000Y-6823250D02*
X19252000Y-6903250D01*
X19252000Y-6823250D02*
X19172000Y-6903250D01*
X19172000Y-7331250D02*
X19252000Y-7411250D01*
X19252000Y-7331250D02*
X19172000Y-7411250D01*
X19172000Y-7839250D02*
X19252000Y-7919250D01*
X19252000Y-7839250D02*
X19172000Y-7919250D01*
X19174500Y-3704500D02*
X19254500Y-3784500D01*
X19254500Y-3704500D02*
X19174500Y-3784500D01*
X19174500Y-4466500D02*
X19254500Y-4546500D01*
X19254500Y-4466500D02*
X19174500Y-4546500D01*
X19174500Y-4974500D02*
X19254500Y-5054500D01*
X19254500Y-4974500D02*
X19174500Y-5054500D01*
X19174500Y-5482500D02*
X19254500Y-5562500D01*
X19254500Y-5482500D02*
X19174500Y-5562500D01*
D13*
X1420000Y-2671750D02*
G75*
G03*
X1420000Y-2671750I-45000J0D01*
G01*
X1420000Y-2925750D02*
G75*
G03*
X1420000Y-2925750I-45000J0D01*
G01*
X1755000Y-2671750D02*
G75*
G03*
X1755000Y-2671750I-45000J0D01*
G01*
X1755000Y-2925750D02*
G75*
G03*
X1755000Y-2925750I-45000J0D01*
G01*
X2085000Y-2671750D02*
G75*
G03*
X2085000Y-2671750I-45000J0D01*
G01*
X2085000Y-2925750D02*
G75*
G03*
X2085000Y-2925750I-45000J0D01*
G01*
X2415000Y-2671750D02*
G75*
G03*
X2415000Y-2671750I-45000J0D01*
G01*
X2415000Y-2925750D02*
G75*
G03*
X2415000Y-2925750I-45000J0D01*
G01*
X2485000Y-6763500D02*
G75*
G03*
X2485000Y-6763500I-45000J0D01*
G01*
X2485000Y-7017500D02*
G75*
G03*
X2485000Y-7017500I-45000J0D01*
G01*
X2485000Y-8286000D02*
G75*
G03*
X2485000Y-8286000I-45000J0D01*
G01*
X2485000Y-8540000D02*
G75*
G03*
X2485000Y-8540000I-45000J0D01*
G01*
X2592500Y-3721250D02*
G75*
G03*
X2592500Y-3721250I-45000J0D01*
G01*
X2592500Y-3976250D02*
G75*
G03*
X2592500Y-3976250I-45000J0D01*
G01*
X2592500Y-4231250D02*
G75*
G03*
X2592500Y-4231250I-45000J0D01*
G01*
X2592500Y-4486250D02*
G75*
G03*
X2592500Y-4486250I-45000J0D01*
G01*
X2847500Y-3848750D02*
G75*
G03*
X2847500Y-3848750I-45000J0D01*
G01*
X2847500Y-4103750D02*
G75*
G03*
X2847500Y-4103750I-45000J0D01*
G01*
X2847500Y-4358750D02*
G75*
G03*
X2847500Y-4358750I-45000J0D01*
G01*
X2847500Y-4613750D02*
G75*
G03*
X2847500Y-4613750I-45000J0D01*
G01*
X3292500Y-2930000D02*
G75*
G03*
X3292500Y-2930000I-45000J0D01*
G01*
X3295000Y-3590000D02*
G75*
G03*
X3295000Y-3590000I-45000J0D01*
G01*
X3546500Y-2930000D02*
G75*
G03*
X3546500Y-2930000I-45000J0D01*
G01*
X3549000Y-3590000D02*
G75*
G03*
X3549000Y-3590000I-45000J0D01*
G01*
X3763000Y-12390000D02*
G75*
G03*
X3763000Y-12390000I-45000J0D01*
G01*
X3870333Y-2930000D02*
G75*
G03*
X3870333Y-2930000I-45000J0D01*
G01*
X4017000Y-12390000D02*
G75*
G03*
X4017000Y-12390000I-45000J0D01*
G01*
X4124333Y-2930000D02*
G75*
G03*
X4124333Y-2930000I-45000J0D01*
G01*
X4158500Y-3590000D02*
G75*
G03*
X4158500Y-3590000I-45000J0D01*
G01*
X4412500Y-3590000D02*
G75*
G03*
X4412500Y-3590000I-45000J0D01*
G01*
X4448167Y-2930000D02*
G75*
G03*
X4448167Y-2930000I-45000J0D01*
G01*
X4500217Y-12199985D02*
G75*
G03*
X4500217Y-12199985I-45000J0D01*
G01*
X4500217Y-12453985D02*
G75*
G03*
X4500217Y-12453985I-45000J0D01*
G01*
X4702167Y-2930000D02*
G75*
G03*
X4702167Y-2930000I-45000J0D01*
G01*
X4850217Y-12201750D02*
G75*
G03*
X4850217Y-12201750I-45000J0D01*
G01*
X4850217Y-12455750D02*
G75*
G03*
X4850217Y-12455750I-45000J0D01*
G01*
X5026000Y-2930000D02*
G75*
G03*
X5026000Y-2930000I-45000J0D01*
G01*
X5028500Y-3590000D02*
G75*
G03*
X5028500Y-3590000I-45000J0D01*
G01*
X5200217Y-12201750D02*
G75*
G03*
X5200217Y-12201750I-45000J0D01*
G01*
X5200217Y-12455750D02*
G75*
G03*
X5200217Y-12455750I-45000J0D01*
G01*
X5280000Y-2930000D02*
G75*
G03*
X5280000Y-2930000I-45000J0D01*
G01*
X5282500Y-3590000D02*
G75*
G03*
X5282500Y-3590000I-45000J0D01*
G01*
X5550217Y-12201750D02*
G75*
G03*
X5550217Y-12201750I-45000J0D01*
G01*
X5550217Y-12455750D02*
G75*
G03*
X5550217Y-12455750I-45000J0D01*
G01*
X5900217Y-12201750D02*
G75*
G03*
X5900217Y-12201750I-45000J0D01*
G01*
X5900217Y-12455750D02*
G75*
G03*
X5900217Y-12455750I-45000J0D01*
G01*
X6250217Y-12201750D02*
G75*
G03*
X6250217Y-12201750I-45000J0D01*
G01*
X6250217Y-12455750D02*
G75*
G03*
X6250217Y-12455750I-45000J0D01*
G01*
X6600217Y-12201750D02*
G75*
G03*
X6600217Y-12201750I-45000J0D01*
G01*
X6600217Y-12455750D02*
G75*
G03*
X6600217Y-12455750I-45000J0D01*
G01*
X6978500Y-12390000D02*
G75*
G03*
X6978500Y-12390000I-45000J0D01*
G01*
X7232500Y-12390000D02*
G75*
G03*
X7232500Y-12390000I-45000J0D01*
G01*
X8342500Y-13207133D02*
G75*
G03*
X8342500Y-13207133I-45000J0D01*
G01*
X8342500Y-13462133D02*
G75*
G03*
X8342500Y-13462133I-45000J0D01*
G01*
X8342500Y-13717133D02*
G75*
G03*
X8342500Y-13717133I-45000J0D01*
G01*
X8342500Y-13972133D02*
G75*
G03*
X8342500Y-13972133I-45000J0D01*
G01*
X8342500Y-16395466D02*
G75*
G03*
X8342500Y-16395466I-45000J0D01*
G01*
X8342500Y-16650466D02*
G75*
G03*
X8342500Y-16650466I-45000J0D01*
G01*
X8342500Y-16905466D02*
G75*
G03*
X8342500Y-16905466I-45000J0D01*
G01*
X8342500Y-17160466D02*
G75*
G03*
X8342500Y-17160466I-45000J0D01*
G01*
X8490500Y-1990000D02*
G75*
G03*
X8490500Y-1990000I-45000J0D01*
G01*
X8490500Y-2400000D02*
G75*
G03*
X8490500Y-2400000I-45000J0D01*
G01*
X8495000Y-1580000D02*
G75*
G03*
X8495000Y-1580000I-45000J0D01*
G01*
X8597500Y-13334633D02*
G75*
G03*
X8597500Y-13334633I-45000J0D01*
G01*
X8597500Y-13589633D02*
G75*
G03*
X8597500Y-13589633I-45000J0D01*
G01*
X8597500Y-13844633D02*
G75*
G03*
X8597500Y-13844633I-45000J0D01*
G01*
X8597500Y-14099633D02*
G75*
G03*
X8597500Y-14099633I-45000J0D01*
G01*
X8597500Y-16522966D02*
G75*
G03*
X8597500Y-16522966I-45000J0D01*
G01*
X8597500Y-16777966D02*
G75*
G03*
X8597500Y-16777966I-45000J0D01*
G01*
X8597500Y-17032966D02*
G75*
G03*
X8597500Y-17032966I-45000J0D01*
G01*
X8597500Y-17287966D02*
G75*
G03*
X8597500Y-17287966I-45000J0D01*
G01*
X8744500Y-1990000D02*
G75*
G03*
X8744500Y-1990000I-45000J0D01*
G01*
X8744500Y-2400000D02*
G75*
G03*
X8744500Y-2400000I-45000J0D01*
G01*
X8749000Y-1580000D02*
G75*
G03*
X8749000Y-1580000I-45000J0D01*
G01*
X12292500Y-3906200D02*
G75*
G03*
X12292500Y-3906200I-45000J0D01*
G01*
X12292500Y-4161200D02*
G75*
G03*
X12292500Y-4161200I-45000J0D01*
G01*
X12292500Y-4416200D02*
G75*
G03*
X12292500Y-4416200I-45000J0D01*
G01*
X12292500Y-4671200D02*
G75*
G03*
X12292500Y-4671200I-45000J0D01*
G01*
X12292500Y-7806200D02*
G75*
G03*
X12292500Y-7806200I-45000J0D01*
G01*
X12292500Y-8061200D02*
G75*
G03*
X12292500Y-8061200I-45000J0D01*
G01*
X12292500Y-8316200D02*
G75*
G03*
X12292500Y-8316200I-45000J0D01*
G01*
X12292500Y-8571200D02*
G75*
G03*
X12292500Y-8571200I-45000J0D01*
G01*
X12547500Y-4033700D02*
G75*
G03*
X12547500Y-4033700I-45000J0D01*
G01*
X12547500Y-4288700D02*
G75*
G03*
X12547500Y-4288700I-45000J0D01*
G01*
X12547500Y-4543700D02*
G75*
G03*
X12547500Y-4543700I-45000J0D01*
G01*
X12547500Y-4798700D02*
G75*
G03*
X12547500Y-4798700I-45000J0D01*
G01*
X12547500Y-7933700D02*
G75*
G03*
X12547500Y-7933700I-45000J0D01*
G01*
X12547500Y-8188700D02*
G75*
G03*
X12547500Y-8188700I-45000J0D01*
G01*
X12547500Y-8443700D02*
G75*
G03*
X12547500Y-8443700I-45000J0D01*
G01*
X12547500Y-8698700D02*
G75*
G03*
X12547500Y-8698700I-45000J0D01*
G01*
X12687500Y-12340000D02*
G75*
G03*
X12687500Y-12340000I-45000J0D01*
G01*
X12941500Y-12340000D02*
G75*
G03*
X12941500Y-12340000I-45000J0D01*
G01*
X13320000Y-12149001D02*
G75*
G03*
X13320000Y-12149001I-45000J0D01*
G01*
X13320000Y-12403001D02*
G75*
G03*
X13320000Y-12403001I-45000J0D01*
G01*
X13465000Y-2812500D02*
G75*
G03*
X13465000Y-2812500I-45000J0D01*
G01*
X13465000Y-3066500D02*
G75*
G03*
X13465000Y-3066500I-45000J0D01*
G01*
X13670000Y-12150766D02*
G75*
G03*
X13670000Y-12150766I-45000J0D01*
G01*
X13670000Y-12404766D02*
G75*
G03*
X13670000Y-12404766I-45000J0D01*
G01*
X14020000Y-12150766D02*
G75*
G03*
X14020000Y-12150766I-45000J0D01*
G01*
X14020000Y-12404766D02*
G75*
G03*
X14020000Y-12404766I-45000J0D01*
G01*
X14160728Y-3163981D02*
G75*
G03*
X14160728Y-3163981I-45000J0D01*
G01*
X14210395Y-2414481D02*
G75*
G03*
X14210395Y-2414481I-45000J0D01*
G01*
X14210395Y-2668481D02*
G75*
G03*
X14210395Y-2668481I-45000J0D01*
G01*
X14370000Y-12150766D02*
G75*
G03*
X14370000Y-12150766I-45000J0D01*
G01*
X14370000Y-12404766D02*
G75*
G03*
X14370000Y-12404766I-45000J0D01*
G01*
X14414728Y-3163981D02*
G75*
G03*
X14414728Y-3163981I-45000J0D01*
G01*
X14560395Y-2414481D02*
G75*
G03*
X14560395Y-2414481I-45000J0D01*
G01*
X14560395Y-2668481D02*
G75*
G03*
X14560395Y-2668481I-45000J0D01*
G01*
X14720000Y-12150766D02*
G75*
G03*
X14720000Y-12150766I-45000J0D01*
G01*
X14720000Y-12404766D02*
G75*
G03*
X14720000Y-12404766I-45000J0D01*
G01*
X14785500Y-3163981D02*
G75*
G03*
X14785500Y-3163981I-45000J0D01*
G01*
X14910395Y-2414481D02*
G75*
G03*
X14910395Y-2414481I-45000J0D01*
G01*
X14910395Y-2668481D02*
G75*
G03*
X14910395Y-2668481I-45000J0D01*
G01*
X15039500Y-3163981D02*
G75*
G03*
X15039500Y-3163981I-45000J0D01*
G01*
X15070000Y-12150766D02*
G75*
G03*
X15070000Y-12150766I-45000J0D01*
G01*
X15070000Y-12404766D02*
G75*
G03*
X15070000Y-12404766I-45000J0D01*
G01*
X15260395Y-2414481D02*
G75*
G03*
X15260395Y-2414481I-45000J0D01*
G01*
X15260395Y-2668481D02*
G75*
G03*
X15260395Y-2668481I-45000J0D01*
G01*
X15410395Y-3163981D02*
G75*
G03*
X15410395Y-3163981I-45000J0D01*
G01*
X15420000Y-12150766D02*
G75*
G03*
X15420000Y-12150766I-45000J0D01*
G01*
X15420000Y-12404766D02*
G75*
G03*
X15420000Y-12404766I-45000J0D01*
G01*
X15610395Y-2414481D02*
G75*
G03*
X15610395Y-2414481I-45000J0D01*
G01*
X15610395Y-2668481D02*
G75*
G03*
X15610395Y-2668481I-45000J0D01*
G01*
X15664395Y-3163981D02*
G75*
G03*
X15664395Y-3163981I-45000J0D01*
G01*
X15868500Y-12340000D02*
G75*
G03*
X15868500Y-12340000I-45000J0D01*
G01*
X15960395Y-2414481D02*
G75*
G03*
X15960395Y-2414481I-45000J0D01*
G01*
X15960395Y-2668481D02*
G75*
G03*
X15960395Y-2668481I-45000J0D01*
G01*
X16035228Y-3163981D02*
G75*
G03*
X16035228Y-3163981I-45000J0D01*
G01*
X16122500Y-12340000D02*
G75*
G03*
X16122500Y-12340000I-45000J0D01*
G01*
X16289228Y-3163981D02*
G75*
G03*
X16289228Y-3163981I-45000J0D01*
G01*
X16310395Y-2414481D02*
G75*
G03*
X16310395Y-2414481I-45000J0D01*
G01*
X16310395Y-2668481D02*
G75*
G03*
X16310395Y-2668481I-45000J0D01*
G01*
X16751200Y-8502500D02*
G75*
G03*
X16751200Y-8502500I-45000J0D01*
G01*
X16878700Y-8247500D02*
G75*
G03*
X16878700Y-8247500I-45000J0D01*
G01*
X17006200Y-8502500D02*
G75*
G03*
X17006200Y-8502500I-45000J0D01*
G01*
X17095000Y-2812500D02*
G75*
G03*
X17095000Y-2812500I-45000J0D01*
G01*
X17095000Y-3066500D02*
G75*
G03*
X17095000Y-3066500I-45000J0D01*
G01*
X17133700Y-8247500D02*
G75*
G03*
X17133700Y-8247500I-45000J0D01*
G01*
X17261200Y-8502500D02*
G75*
G03*
X17261200Y-8502500I-45000J0D01*
G01*
X17388700Y-8247500D02*
G75*
G03*
X17388700Y-8247500I-45000J0D01*
G01*
X17516200Y-8502500D02*
G75*
G03*
X17516200Y-8502500I-45000J0D01*
G01*
X17643700Y-8247500D02*
G75*
G03*
X17643700Y-8247500I-45000J0D01*
G01*
D14*
X1582500Y-13606833D02*
X1582500Y-13706833D01*
X1532500Y-13656833D02*
X1632500Y-13656833D01*
D11*
X1542500Y-13556833D02*
X1542500Y-13756833D01*
X1622500Y-13556833D02*
X1622500Y-13756833D01*
X1542500Y-13756833D02*
G75*
G03*
X1622500Y-13756833I40000J0D01*
G01*
X1622500Y-13556833D02*
G75*
G03*
X1542500Y-13556833I-40000J0D01*
G01*
D14*
X1582500Y-16795166D02*
X1582500Y-16895166D01*
X1532500Y-16845166D02*
X1632500Y-16845166D01*
D11*
X1542500Y-16745166D02*
X1542500Y-16945166D01*
X1622500Y-16745166D02*
X1622500Y-16945166D01*
X1542500Y-16945166D02*
G75*
G03*
X1622500Y-16945166I40000J0D01*
G01*
X1622500Y-16745166D02*
G75*
G03*
X1542500Y-16745166I-40000J0D01*
G01*
D14*
X1662500Y-12921833D02*
X1662500Y-13021833D01*
X1612500Y-12971833D02*
X1712500Y-12971833D01*
D11*
X1737500Y-12931833D02*
X1587500Y-12931833D01*
X1737500Y-13011833D02*
X1587500Y-13011833D01*
X1587500Y-12931833D02*
G75*
G03*
X1587500Y-13011833I0J-40000D01*
G01*
X1737500Y-13011833D02*
G75*
G03*
X1737500Y-12931833I0J40000D01*
G01*
D14*
X1662500Y-14291833D02*
X1662500Y-14391833D01*
X1612500Y-14341833D02*
X1712500Y-14341833D01*
D11*
X1737500Y-14301833D02*
X1587500Y-14301833D01*
X1737500Y-14381833D02*
X1587500Y-14381833D01*
X1587500Y-14301833D02*
G75*
G03*
X1587500Y-14381833I0J-40000D01*
G01*
X1737500Y-14381833D02*
G75*
G03*
X1737500Y-14301833I0J40000D01*
G01*
D14*
X1662500Y-16110166D02*
X1662500Y-16210166D01*
X1612500Y-16160166D02*
X1712500Y-16160166D01*
D11*
X1737500Y-16120166D02*
X1587500Y-16120166D01*
X1737500Y-16200166D02*
X1587500Y-16200166D01*
X1587500Y-16120166D02*
G75*
G03*
X1587500Y-16200166I0J-40000D01*
G01*
X1737500Y-16200166D02*
G75*
G03*
X1737500Y-16120166I0J40000D01*
G01*
D14*
X1662500Y-17480166D02*
X1662500Y-17580166D01*
X1612500Y-17530166D02*
X1712500Y-17530166D01*
D11*
X1737500Y-17490166D02*
X1587500Y-17490166D01*
X1737500Y-17570166D02*
X1587500Y-17570166D01*
X1587500Y-17490166D02*
G75*
G03*
X1587500Y-17570166I0J-40000D01*
G01*
X1737500Y-17570166D02*
G75*
G03*
X1737500Y-17490166I0J40000D01*
G01*
D14*
X3195000Y-8916967D02*
X3195000Y-9016967D01*
X3145000Y-8966967D02*
X3245000Y-8966967D01*
X3333500Y-9200967D02*
X3333500Y-9300967D01*
X3283500Y-9250967D02*
X3383500Y-9250967D01*
X3417000Y-1476000D02*
X3417000Y-1576000D01*
X3367000Y-1526000D02*
X3467000Y-1526000D01*
X3417000Y-1730000D02*
X3417000Y-1830000D01*
X3367000Y-1780000D02*
X3467000Y-1780000D01*
X3417000Y-11172250D02*
X3417000Y-11272250D01*
X3367000Y-11222250D02*
X3467000Y-11222250D01*
X3417000Y-11426250D02*
X3417000Y-11526250D01*
X3367000Y-11476250D02*
X3467000Y-11476250D01*
X3472000Y-8916967D02*
X3472000Y-9016967D01*
X3422000Y-8966967D02*
X3522000Y-8966967D01*
X3610500Y-9200967D02*
X3610500Y-9300967D01*
X3560500Y-9250967D02*
X3660500Y-9250967D01*
X3671000Y-1476000D02*
X3671000Y-1576000D01*
X3621000Y-1526000D02*
X3721000Y-1526000D01*
X3671000Y-1730000D02*
X3671000Y-1830000D01*
X3621000Y-1780000D02*
X3721000Y-1780000D01*
X3671000Y-11172250D02*
X3671000Y-11272250D01*
X3621000Y-11222250D02*
X3721000Y-11222250D01*
X3671000Y-11426250D02*
X3671000Y-11526250D01*
X3621000Y-11476250D02*
X3721000Y-11476250D01*
X3749000Y-8916967D02*
X3749000Y-9016967D01*
X3699000Y-8966967D02*
X3799000Y-8966967D01*
X3887500Y-9200967D02*
X3887500Y-9300967D01*
X3837500Y-9250967D02*
X3937500Y-9250967D01*
X3925000Y-1476000D02*
X3925000Y-1576000D01*
X3875000Y-1526000D02*
X3975000Y-1526000D01*
X3925000Y-1730000D02*
X3925000Y-1830000D01*
X3875000Y-1780000D02*
X3975000Y-1780000D01*
X3925000Y-11172250D02*
X3925000Y-11272250D01*
X3875000Y-11222250D02*
X3975000Y-11222250D01*
X3925000Y-11426250D02*
X3925000Y-11526250D01*
X3875000Y-11476250D02*
X3975000Y-11476250D01*
X4026000Y-8916967D02*
X4026000Y-9016967D01*
X3976000Y-8966967D02*
X4076000Y-8966967D01*
X4164500Y-9200967D02*
X4164500Y-9300967D01*
X4114500Y-9250967D02*
X4214500Y-9250967D01*
X4179000Y-1476000D02*
X4179000Y-1576000D01*
X4129000Y-1526000D02*
X4229000Y-1526000D01*
X4179000Y-1730000D02*
X4179000Y-1830000D01*
X4129000Y-1780000D02*
X4229000Y-1780000D01*
X4179000Y-11172250D02*
X4179000Y-11272250D01*
X4129000Y-11222250D02*
X4229000Y-11222250D01*
X4179000Y-11426250D02*
X4179000Y-11526250D01*
X4129000Y-11476250D02*
X4229000Y-11476250D01*
X4303000Y-8916967D02*
X4303000Y-9016967D01*
X4253000Y-8966967D02*
X4353000Y-8966967D01*
X4433000Y-1476000D02*
X4433000Y-1576000D01*
X4383000Y-1526000D02*
X4483000Y-1526000D01*
X4433000Y-1730000D02*
X4433000Y-1830000D01*
X4383000Y-1780000D02*
X4483000Y-1780000D01*
X4433000Y-11172250D02*
X4433000Y-11272250D01*
X4383000Y-11222250D02*
X4483000Y-11222250D01*
X4433000Y-11426250D02*
X4433000Y-11526250D01*
X4383000Y-11476250D02*
X4483000Y-11476250D01*
X6666333Y-1476000D02*
X6666333Y-1576000D01*
X6616333Y-1526000D02*
X6716333Y-1526000D01*
X6666333Y-1730000D02*
X6666333Y-1830000D01*
X6616333Y-1780000D02*
X6716333Y-1780000D01*
X6666333Y-11167500D02*
X6666333Y-11267500D01*
X6616333Y-11217500D02*
X6716333Y-11217500D01*
X6666333Y-11421500D02*
X6666333Y-11521500D01*
X6616333Y-11471500D02*
X6716333Y-11471500D01*
X6795000Y-8916967D02*
X6795000Y-9016967D01*
X6745000Y-8966967D02*
X6845000Y-8966967D01*
X6920333Y-1476000D02*
X6920333Y-1576000D01*
X6870333Y-1526000D02*
X6970333Y-1526000D01*
X6920333Y-1730000D02*
X6920333Y-1830000D01*
X6870333Y-1780000D02*
X6970333Y-1780000D01*
X6920333Y-11167500D02*
X6920333Y-11267500D01*
X6870333Y-11217500D02*
X6970333Y-11217500D01*
X6920333Y-11421500D02*
X6920333Y-11521500D01*
X6870333Y-11471500D02*
X6970333Y-11471500D01*
X6933500Y-9200967D02*
X6933500Y-9300967D01*
X6883500Y-9250967D02*
X6983500Y-9250967D01*
X7072000Y-8916967D02*
X7072000Y-9016967D01*
X7022000Y-8966967D02*
X7122000Y-8966967D01*
X7174333Y-1476000D02*
X7174333Y-1576000D01*
X7124333Y-1526000D02*
X7224333Y-1526000D01*
X7174333Y-1730000D02*
X7174333Y-1830000D01*
X7124333Y-1780000D02*
X7224333Y-1780000D01*
X7174333Y-11167500D02*
X7174333Y-11267500D01*
X7124333Y-11217500D02*
X7224333Y-11217500D01*
X7174333Y-11421500D02*
X7174333Y-11521500D01*
X7124333Y-11471500D02*
X7224333Y-11471500D01*
X7210500Y-9200967D02*
X7210500Y-9300967D01*
X7160500Y-9250967D02*
X7260500Y-9250967D01*
X7349000Y-8916967D02*
X7349000Y-9016967D01*
X7299000Y-8966967D02*
X7399000Y-8966967D01*
X7428333Y-1476000D02*
X7428333Y-1576000D01*
X7378333Y-1526000D02*
X7478333Y-1526000D01*
X7428333Y-1730000D02*
X7428333Y-1830000D01*
X7378333Y-1780000D02*
X7478333Y-1780000D01*
X7428333Y-11167500D02*
X7428333Y-11267500D01*
X7378333Y-11217500D02*
X7478333Y-11217500D01*
X7428333Y-11421500D02*
X7428333Y-11521500D01*
X7378333Y-11471500D02*
X7478333Y-11471500D01*
X7487500Y-9200967D02*
X7487500Y-9300967D01*
X7437500Y-9250967D02*
X7537500Y-9250967D01*
X7626000Y-8916967D02*
X7626000Y-9016967D01*
X7576000Y-8966967D02*
X7676000Y-8966967D01*
X7682333Y-1476000D02*
X7682333Y-1576000D01*
X7632333Y-1526000D02*
X7732333Y-1526000D01*
X7682333Y-1730000D02*
X7682333Y-1830000D01*
X7632333Y-1780000D02*
X7732333Y-1780000D01*
X7682333Y-11167500D02*
X7682333Y-11267500D01*
X7632333Y-11217500D02*
X7732333Y-11217500D01*
X7682333Y-11421500D02*
X7682333Y-11521500D01*
X7632333Y-11471500D02*
X7732333Y-11471500D01*
X7764500Y-9200967D02*
X7764500Y-9300967D01*
X7714500Y-9250967D02*
X7814500Y-9250967D01*
X7903000Y-8916967D02*
X7903000Y-9016967D01*
X7853000Y-8966967D02*
X7953000Y-8966967D01*
X11349033Y-12983500D02*
X11349033Y-13083500D01*
X11299033Y-13033500D02*
X11399033Y-13033500D01*
X11349033Y-13260500D02*
X11349033Y-13360500D01*
X11299033Y-13310500D02*
X11399033Y-13310500D01*
X11349033Y-13537500D02*
X11349033Y-13637500D01*
X11299033Y-13587500D02*
X11399033Y-13587500D01*
X11349033Y-13814500D02*
X11349033Y-13914500D01*
X11299033Y-13864500D02*
X11399033Y-13864500D01*
X11349033Y-16583500D02*
X11349033Y-16683500D01*
X11299033Y-16633500D02*
X11399033Y-16633500D01*
X11349033Y-16860500D02*
X11349033Y-16960500D01*
X11299033Y-16910500D02*
X11399033Y-16910500D01*
X11349033Y-17137500D02*
X11349033Y-17237500D01*
X11299033Y-17187500D02*
X11399033Y-17187500D01*
X11349033Y-17414500D02*
X11349033Y-17514500D01*
X11299033Y-17464500D02*
X11399033Y-17464500D01*
X11633033Y-12845000D02*
X11633033Y-12945000D01*
X11583033Y-12895000D02*
X11683033Y-12895000D01*
X11633033Y-13122000D02*
X11633033Y-13222000D01*
X11583033Y-13172000D02*
X11683033Y-13172000D01*
X11633033Y-13399000D02*
X11633033Y-13499000D01*
X11583033Y-13449000D02*
X11683033Y-13449000D01*
X11633033Y-13676000D02*
X11633033Y-13776000D01*
X11583033Y-13726000D02*
X11683033Y-13726000D01*
X11633033Y-13953000D02*
X11633033Y-14053000D01*
X11583033Y-14003000D02*
X11683033Y-14003000D01*
X11633033Y-16445000D02*
X11633033Y-16545000D01*
X11583033Y-16495000D02*
X11683033Y-16495000D01*
X11633033Y-16722000D02*
X11633033Y-16822000D01*
X11583033Y-16772000D02*
X11683033Y-16772000D01*
X11633033Y-16999000D02*
X11633033Y-17099000D01*
X11583033Y-17049000D02*
X11683033Y-17049000D01*
X11633033Y-17276000D02*
X11633033Y-17376000D01*
X11583033Y-17326000D02*
X11683033Y-17326000D01*
X11633033Y-17553000D02*
X11633033Y-17653000D01*
X11583033Y-17603000D02*
X11683033Y-17603000D01*
X13117667Y-11175033D02*
X13117667Y-11275033D01*
X13067667Y-11225033D02*
X13167667Y-11225033D01*
X13117667Y-11429033D02*
X13117667Y-11529033D01*
X13067667Y-11479033D02*
X13167667Y-11479033D01*
X13122000Y-1471000D02*
X13122000Y-1571000D01*
X13072000Y-1521000D02*
X13172000Y-1521000D01*
X13122000Y-1725000D02*
X13122000Y-1825000D01*
X13072000Y-1775000D02*
X13172000Y-1775000D01*
X13371667Y-11175033D02*
X13371667Y-11275033D01*
X13321667Y-11225033D02*
X13421667Y-11225033D01*
X13371667Y-11429033D02*
X13371667Y-11529033D01*
X13321667Y-11479033D02*
X13421667Y-11479033D01*
X13376000Y-1471000D02*
X13376000Y-1571000D01*
X13326000Y-1521000D02*
X13426000Y-1521000D01*
X13376000Y-1725000D02*
X13376000Y-1825000D01*
X13326000Y-1775000D02*
X13426000Y-1775000D01*
X13625667Y-11175033D02*
X13625667Y-11275033D01*
X13575667Y-11225033D02*
X13675667Y-11225033D01*
X13625667Y-11429033D02*
X13625667Y-11529033D01*
X13575667Y-11479033D02*
X13675667Y-11479033D01*
X13630000Y-1471000D02*
X13630000Y-1571000D01*
X13580000Y-1521000D02*
X13680000Y-1521000D01*
X13630000Y-1725000D02*
X13630000Y-1825000D01*
X13580000Y-1775000D02*
X13680000Y-1775000D01*
X13879667Y-11175033D02*
X13879667Y-11275033D01*
X13829667Y-11225033D02*
X13929667Y-11225033D01*
X13879667Y-11429033D02*
X13879667Y-11529033D01*
X13829667Y-11479033D02*
X13929667Y-11479033D01*
X13884000Y-1471000D02*
X13884000Y-1571000D01*
X13834000Y-1521000D02*
X13934000Y-1521000D01*
X13884000Y-1725000D02*
X13884000Y-1825000D01*
X13834000Y-1775000D02*
X13934000Y-1775000D01*
X14133667Y-11175033D02*
X14133667Y-11275033D01*
X14083667Y-11225033D02*
X14183667Y-11225033D01*
X14133667Y-11429033D02*
X14133667Y-11529033D01*
X14083667Y-11479033D02*
X14183667Y-11479033D01*
X14138000Y-1471000D02*
X14138000Y-1571000D01*
X14088000Y-1521000D02*
X14188000Y-1521000D01*
X14138000Y-1725000D02*
X14138000Y-1825000D01*
X14088000Y-1775000D02*
X14188000Y-1775000D01*
X14691000Y-18666967D02*
X14691000Y-18766967D01*
X14641000Y-18716967D02*
X14741000Y-18716967D01*
X14829500Y-18950967D02*
X14829500Y-19050967D01*
X14779500Y-19000967D02*
X14879500Y-19000967D01*
X14968000Y-18666967D02*
X14968000Y-18766967D01*
X14918000Y-18716967D02*
X15018000Y-18716967D01*
X15106500Y-18950967D02*
X15106500Y-19050967D01*
X15056500Y-19000967D02*
X15156500Y-19000967D01*
X15245000Y-18666967D02*
X15245000Y-18766967D01*
X15195000Y-18716967D02*
X15295000Y-18716967D01*
X15383500Y-18950967D02*
X15383500Y-19050967D01*
X15333500Y-19000967D02*
X15433500Y-19000967D01*
X15522000Y-18666967D02*
X15522000Y-18766967D01*
X15472000Y-18716967D02*
X15572000Y-18716967D01*
X15660500Y-18950967D02*
X15660500Y-19050967D01*
X15610500Y-19000967D02*
X15710500Y-19000967D01*
X15799000Y-18666967D02*
X15799000Y-18766967D01*
X15749000Y-18716967D02*
X15849000Y-18716967D01*
X16360000Y-1472250D02*
X16360000Y-1572250D01*
X16310000Y-1522250D02*
X16410000Y-1522250D01*
X16360000Y-1726250D02*
X16360000Y-1826250D01*
X16310000Y-1776250D02*
X16410000Y-1776250D01*
X16366333Y-11171266D02*
X16366333Y-11271266D01*
X16316333Y-11221266D02*
X16416333Y-11221266D01*
X16366333Y-11425266D02*
X16366333Y-11525266D01*
X16316333Y-11475266D02*
X16416333Y-11475266D01*
X16614000Y-1472250D02*
X16614000Y-1572250D01*
X16564000Y-1522250D02*
X16664000Y-1522250D01*
X16614000Y-1726250D02*
X16614000Y-1826250D01*
X16564000Y-1776250D02*
X16664000Y-1776250D01*
X16620333Y-11171266D02*
X16620333Y-11271266D01*
X16570333Y-11221266D02*
X16670333Y-11221266D01*
X16620333Y-11425266D02*
X16620333Y-11525266D01*
X16570333Y-11475266D02*
X16670333Y-11475266D01*
X16868000Y-1472250D02*
X16868000Y-1572250D01*
X16818000Y-1522250D02*
X16918000Y-1522250D01*
X16868000Y-1726250D02*
X16868000Y-1826250D01*
X16818000Y-1776250D02*
X16918000Y-1776250D01*
X16874333Y-11171266D02*
X16874333Y-11271266D01*
X16824333Y-11221266D02*
X16924333Y-11221266D01*
X16874333Y-11425266D02*
X16874333Y-11525266D01*
X16824333Y-11475266D02*
X16924333Y-11475266D01*
X17122000Y-1472250D02*
X17122000Y-1572250D01*
X17072000Y-1522250D02*
X17172000Y-1522250D01*
X17122000Y-1726250D02*
X17122000Y-1826250D01*
X17072000Y-1776250D02*
X17172000Y-1776250D01*
X17128333Y-11171266D02*
X17128333Y-11271266D01*
X17078333Y-11221266D02*
X17178333Y-11221266D01*
X17128333Y-11425266D02*
X17128333Y-11525266D01*
X17078333Y-11475266D02*
X17178333Y-11475266D01*
X17376000Y-1472250D02*
X17376000Y-1572250D01*
X17326000Y-1522250D02*
X17426000Y-1522250D01*
X17376000Y-1726250D02*
X17376000Y-1826250D01*
X17326000Y-1776250D02*
X17426000Y-1776250D01*
X17382333Y-11171266D02*
X17382333Y-11271266D01*
X17332333Y-11221266D02*
X17432333Y-11221266D01*
X17382333Y-11425266D02*
X17382333Y-11525266D01*
X17332333Y-11475266D02*
X17432333Y-11475266D01*
D15*
X2835709Y-7611959D02*
X2835709Y-7540541D01*
X2764291Y-7540541D01*
X2764291Y-7611959D01*
X2835709Y-7611959D01*
X2955709Y-7101959D02*
X2955709Y-7030541D01*
X2884291Y-7030541D01*
X2884291Y-7101959D01*
X2955709Y-7101959D01*
D16*
X1569500Y-7648000D02*
X1634500Y-7583000D01*
X1569500Y-7518000D01*
X1504500Y-7583000D01*
X1569500Y-7648000D01*
X1569500Y-8148000D02*
X1634500Y-8083000D01*
X1569500Y-8018000D01*
X1504500Y-8083000D01*
X1569500Y-8148000D01*
X9540000Y-6291250D02*
X9605000Y-6226250D01*
X9540000Y-6161250D01*
X9475000Y-6226250D01*
X9540000Y-6291250D01*
X9540000Y-6791250D02*
X9605000Y-6726250D01*
X9540000Y-6661250D01*
X9475000Y-6726250D01*
X9540000Y-6791250D01*
X9540000Y-7766250D02*
X9605000Y-7701250D01*
X9540000Y-7636250D01*
X9475000Y-7701250D01*
X9540000Y-7766250D01*
X9540000Y-8266250D02*
X9605000Y-8201250D01*
X9540000Y-8136250D01*
X9475000Y-8201250D01*
X9540000Y-8266250D01*
D17*
X1539500Y-6115750D02*
X1689500Y-6265750D01*
X1689500Y-6115750D02*
X1539500Y-6265750D01*
X1689500Y-6190750D02*
G75*
G03*
X1689500Y-6190750I-75000J0D01*
G01*
X1843500Y-5688750D02*
X1993500Y-5838750D01*
X1993500Y-5688750D02*
X1843500Y-5838750D01*
X1993500Y-5763750D02*
G75*
G03*
X1993500Y-5763750I-75000J0D01*
G01*
X2248500Y-6115750D02*
X2398500Y-6265750D01*
X2398500Y-6115750D02*
X2248500Y-6265750D01*
X2398500Y-6190750D02*
G75*
G03*
X2398500Y-6190750I-75000J0D01*
G01*
X11239500Y-6265750D02*
X11389500Y-6415750D01*
X11389500Y-6265750D02*
X11239500Y-6415750D01*
X11389500Y-6340750D02*
G75*
G03*
X11389500Y-6340750I-75000J0D01*
G01*
X11239500Y-2539500D02*
X11389500Y-2689500D01*
X11389500Y-2539500D02*
X11239500Y-2689500D01*
X11389500Y-2614500D02*
G75*
G03*
X11389500Y-2614500I-75000J0D01*
G01*
X11543500Y-5838750D02*
X11693500Y-5988750D01*
X11693500Y-5838750D02*
X11543500Y-5988750D01*
X11693500Y-5913750D02*
G75*
G03*
X11693500Y-5913750I-75000J0D01*
G01*
X11543500Y-2112500D02*
X11693500Y-2262500D01*
X11693500Y-2112500D02*
X11543500Y-2262500D01*
X11693500Y-2187500D02*
G75*
G03*
X11693500Y-2187500I-75000J0D01*
G01*
X11948500Y-6265750D02*
X12098500Y-6415750D01*
X12098500Y-6265750D02*
X11948500Y-6415750D01*
X12098500Y-6340750D02*
G75*
G03*
X12098500Y-6340750I-75000J0D01*
G01*
X11948500Y-2539500D02*
X12098500Y-2689500D01*
X12098500Y-2539500D02*
X11948500Y-2689500D01*
X12098500Y-2614500D02*
G75*
G03*
X12098500Y-2614500I-75000J0D01*
G01*
X13063333Y-9096000D02*
X13213333Y-9246000D01*
X13213333Y-9096000D02*
X13063333Y-9246000D01*
X13213333Y-9171000D02*
G75*
G03*
X13213333Y-9171000I-75000J0D01*
G01*
X13490333Y-8691000D02*
X13640333Y-8841000D01*
X13640333Y-8691000D02*
X13490333Y-8841000D01*
X13640333Y-8766000D02*
G75*
G03*
X13640333Y-8766000I-75000J0D01*
G01*
X13490333Y-9400000D02*
X13640333Y-9550000D01*
X13640333Y-9400000D02*
X13490333Y-9550000D01*
X13640333Y-9475000D02*
G75*
G03*
X13640333Y-9475000I-75000J0D01*
G01*
X14711500Y-9096000D02*
X14861500Y-9246000D01*
X14861500Y-9096000D02*
X14711500Y-9246000D01*
X14861500Y-9171000D02*
G75*
G03*
X14861500Y-9171000I-75000J0D01*
G01*
X15138500Y-8691000D02*
X15288500Y-8841000D01*
X15288500Y-8691000D02*
X15138500Y-8841000D01*
X15288500Y-8766000D02*
G75*
G03*
X15288500Y-8766000I-75000J0D01*
G01*
X15138500Y-9400000D02*
X15288500Y-9550000D01*
X15288500Y-9400000D02*
X15138500Y-9550000D01*
X15288500Y-9475000D02*
G75*
G03*
X15288500Y-9475000I-75000J0D01*
G01*
D18*
X1467000Y-3341550D02*
X1627000Y-3501550D01*
X1627000Y-3341550D02*
X1467000Y-3501550D01*
X1547000Y-3341550D02*
X1547000Y-3501550D01*
X1467000Y-3421550D02*
X1627000Y-3421550D01*
X1467000Y-4828550D02*
X1627000Y-4988550D01*
X1627000Y-4828550D02*
X1467000Y-4988550D01*
X1547000Y-4828550D02*
X1547000Y-4988550D01*
X1467000Y-4908550D02*
X1627000Y-4908550D01*
X9473000Y-12832333D02*
X9633000Y-12992333D01*
X9633000Y-12832333D02*
X9473000Y-12992333D01*
X9553000Y-12832333D02*
X9553000Y-12992333D01*
X9473000Y-12912333D02*
X9633000Y-12912333D01*
X9473000Y-14319333D02*
X9633000Y-14479333D01*
X9633000Y-14319333D02*
X9473000Y-14479333D01*
X9553000Y-14319333D02*
X9553000Y-14479333D01*
X9473000Y-14399333D02*
X9633000Y-14399333D01*
X9473000Y-16020666D02*
X9633000Y-16180666D01*
X9633000Y-16020666D02*
X9473000Y-16180666D01*
X9553000Y-16020666D02*
X9553000Y-16180666D01*
X9473000Y-16100666D02*
X9633000Y-16100666D01*
X9473000Y-17507666D02*
X9633000Y-17667666D01*
X9633000Y-17507666D02*
X9473000Y-17667666D01*
X9553000Y-17507666D02*
X9553000Y-17667666D01*
X9473000Y-17587666D02*
X9633000Y-17587666D01*
X11167000Y-3526500D02*
X11327000Y-3686500D01*
X11327000Y-3526500D02*
X11167000Y-3686500D01*
X11247000Y-3526500D02*
X11247000Y-3686500D01*
X11167000Y-3606500D02*
X11327000Y-3606500D01*
X11167000Y-5013500D02*
X11327000Y-5173500D01*
X11327000Y-5013500D02*
X11167000Y-5173500D01*
X11247000Y-5013500D02*
X11247000Y-5173500D01*
X11167000Y-5093500D02*
X11327000Y-5093500D01*
X11167000Y-7426500D02*
X11327000Y-7586500D01*
X11327000Y-7426500D02*
X11167000Y-7586500D01*
X11247000Y-7426500D02*
X11247000Y-7586500D01*
X11167000Y-7506500D02*
X11327000Y-7506500D01*
X11167000Y-8913500D02*
X11327000Y-9073500D01*
X11327000Y-8913500D02*
X11167000Y-9073500D01*
X11247000Y-8913500D02*
X11247000Y-9073500D01*
X11167000Y-8993500D02*
X11327000Y-8993500D01*
X16326500Y-9423000D02*
X16486500Y-9583000D01*
X16486500Y-9423000D02*
X16326500Y-9583000D01*
X16406500Y-9423000D02*
X16406500Y-9583000D01*
X16326500Y-9503000D02*
X16486500Y-9503000D01*
X17813500Y-9423000D02*
X17973500Y-9583000D01*
X17973500Y-9423000D02*
X17813500Y-9583000D01*
X17893500Y-9423000D02*
X17893500Y-9583000D01*
X17813500Y-9503000D02*
X17973500Y-9503000D01*
D19*
X1240000Y-1240000D02*
X1560000Y-1560000D01*
X1560000Y-1240000D02*
X1240000Y-1560000D01*
X1513138Y-1513138D02*
X1513138Y-1286862D01*
X1286862Y-1286862D01*
X1286862Y-1513138D01*
X1513138Y-1513138D01*
X1240000Y-9540000D02*
X1560000Y-9860000D01*
X1560000Y-9540000D02*
X1240000Y-9860000D01*
X1513138Y-9813138D02*
X1513138Y-9586862D01*
X1286862Y-9586862D01*
X1286862Y-9813138D01*
X1513138Y-9813138D01*
X1240000Y-10940000D02*
X1560000Y-11260000D01*
X1560000Y-10940000D02*
X1240000Y-11260000D01*
X1513138Y-11213138D02*
X1513138Y-10986862D01*
X1286862Y-10986862D01*
X1286862Y-11213138D01*
X1513138Y-11213138D01*
X1240000Y-19240000D02*
X1560000Y-19560000D01*
X1560000Y-19240000D02*
X1240000Y-19560000D01*
X1513138Y-19513138D02*
X1513138Y-19286862D01*
X1286862Y-19286862D01*
X1286862Y-19513138D01*
X1513138Y-19513138D01*
X2339000Y-8948967D02*
X2659000Y-9268967D01*
X2659000Y-8948967D02*
X2339000Y-9268967D01*
X2612138Y-9222105D02*
X2612138Y-8995829D01*
X2385862Y-8995829D01*
X2385862Y-9222105D01*
X2612138Y-9222105D01*
X4839000Y-8948967D02*
X5159000Y-9268967D01*
X5159000Y-8948967D02*
X4839000Y-9268967D01*
X5112138Y-9222105D02*
X5112138Y-8995829D01*
X4885862Y-8995829D01*
X4885862Y-9222105D01*
X5112138Y-9222105D01*
X5939000Y-8948967D02*
X6259000Y-9268967D01*
X6259000Y-8948967D02*
X5939000Y-9268967D01*
X6212138Y-9222105D02*
X6212138Y-8995829D01*
X5985862Y-8995829D01*
X5985862Y-9222105D01*
X6212138Y-9222105D01*
X8439000Y-8948967D02*
X8759000Y-9268967D01*
X8759000Y-8948967D02*
X8439000Y-9268967D01*
X8712138Y-9222105D02*
X8712138Y-8995829D01*
X8485862Y-8995829D01*
X8485862Y-9222105D01*
X8712138Y-9222105D01*
X9540000Y-1240000D02*
X9860000Y-1560000D01*
X9860000Y-1240000D02*
X9540000Y-1560000D01*
X9813138Y-1513138D02*
X9813138Y-1286862D01*
X9586862Y-1286862D01*
X9586862Y-1513138D01*
X9813138Y-1513138D01*
X9540000Y-9540000D02*
X9860000Y-9860000D01*
X9860000Y-9540000D02*
X9540000Y-9860000D01*
X9813138Y-9813138D02*
X9813138Y-9586862D01*
X9586862Y-9586862D01*
X9586862Y-9813138D01*
X9813138Y-9813138D01*
X9540000Y-10940000D02*
X9860000Y-11260000D01*
X9860000Y-10940000D02*
X9540000Y-11260000D01*
X9813138Y-11213138D02*
X9813138Y-10986862D01*
X9586862Y-10986862D01*
X9586862Y-11213138D01*
X9813138Y-11213138D01*
X9540000Y-19240000D02*
X9860000Y-19560000D01*
X9860000Y-19240000D02*
X9540000Y-19560000D01*
X9813138Y-19513138D02*
X9813138Y-19286862D01*
X9586862Y-19286862D01*
X9586862Y-19513138D01*
X9813138Y-19513138D01*
X10940000Y-1240000D02*
X11260000Y-1560000D01*
X11260000Y-1240000D02*
X10940000Y-1560000D01*
X11213138Y-1513138D02*
X11213138Y-1286862D01*
X10986862Y-1286862D01*
X10986862Y-1513138D01*
X11213138Y-1513138D01*
X10940000Y-9540000D02*
X11260000Y-9860000D01*
X11260000Y-9540000D02*
X10940000Y-9860000D01*
X11213138Y-9813138D02*
X11213138Y-9586862D01*
X10986862Y-9586862D01*
X10986862Y-9813138D01*
X11213138Y-9813138D01*
X10940000Y-10940000D02*
X11260000Y-11260000D01*
X11260000Y-10940000D02*
X10940000Y-11260000D01*
X11213138Y-11213138D02*
X11213138Y-10986862D01*
X10986862Y-10986862D01*
X10986862Y-11213138D01*
X11213138Y-11213138D01*
X10940000Y-19240000D02*
X11260000Y-19560000D01*
X11260000Y-19240000D02*
X10940000Y-19560000D01*
X11213138Y-19513138D02*
X11213138Y-19286862D01*
X10986862Y-19286862D01*
X10986862Y-19513138D01*
X11213138Y-19513138D01*
X11331033Y-12039000D02*
X11651033Y-12359000D01*
X11651033Y-12039000D02*
X11331033Y-12359000D01*
X11604171Y-12312138D02*
X11604171Y-12085862D01*
X11377895Y-12085862D01*
X11377895Y-12312138D01*
X11604171Y-12312138D01*
X11331033Y-14539000D02*
X11651033Y-14859000D01*
X11651033Y-14539000D02*
X11331033Y-14859000D01*
X11604171Y-14812138D02*
X11604171Y-14585862D01*
X11377895Y-14585862D01*
X11377895Y-14812138D01*
X11604171Y-14812138D01*
X11331033Y-15639000D02*
X11651033Y-15959000D01*
X11651033Y-15639000D02*
X11331033Y-15959000D01*
X11604171Y-15912138D02*
X11604171Y-15685862D01*
X11377895Y-15685862D01*
X11377895Y-15912138D01*
X11604171Y-15912138D01*
X11331033Y-18139000D02*
X11651033Y-18459000D01*
X11651033Y-18139000D02*
X11331033Y-18459000D01*
X11604171Y-18412138D02*
X11604171Y-18185862D01*
X11377895Y-18185862D01*
X11377895Y-18412138D01*
X11604171Y-18412138D01*
X13835000Y-18698967D02*
X14155000Y-19018967D01*
X14155000Y-18698967D02*
X13835000Y-19018967D01*
X14108138Y-18972105D02*
X14108138Y-18745829D01*
X13881862Y-18745829D01*
X13881862Y-18972105D01*
X14108138Y-18972105D01*
X16335000Y-18698967D02*
X16655000Y-19018967D01*
X16655000Y-18698967D02*
X16335000Y-19018967D01*
X16608138Y-18972105D02*
X16608138Y-18745829D01*
X16381862Y-18745829D01*
X16381862Y-18972105D01*
X16608138Y-18972105D01*
X19240000Y-1240000D02*
X19560000Y-1560000D01*
X19560000Y-1240000D02*
X19240000Y-1560000D01*
X19513138Y-1513138D02*
X19513138Y-1286862D01*
X19286862Y-1286862D01*
X19286862Y-1513138D01*
X19513138Y-1513138D01*
X19240000Y-9540000D02*
X19560000Y-9860000D01*
X19560000Y-9540000D02*
X19240000Y-9860000D01*
X19513138Y-9813138D02*
X19513138Y-9586862D01*
X19286862Y-9586862D01*
X19286862Y-9813138D01*
X19513138Y-9813138D01*
X19240000Y-10940000D02*
X19560000Y-11260000D01*
X19560000Y-10940000D02*
X19240000Y-11260000D01*
X19513138Y-11213138D02*
X19513138Y-10986862D01*
X19286862Y-10986862D01*
X19286862Y-11213138D01*
X19513138Y-11213138D01*
X19240000Y-19240000D02*
X19560000Y-19560000D01*
X19560000Y-19240000D02*
X19240000Y-19560000D01*
X19513138Y-19513138D02*
X19513138Y-19286862D01*
X19286862Y-19286862D01*
X19286862Y-19513138D01*
X19513138Y-19513138D01*
D11*
X1302619Y-20065476D02*
X1302619Y-19865476D01*
X1350238Y-19865476D01*
X1378810Y-19875000D01*
X1397857Y-19894048D01*
X1407381Y-19913095D01*
X1416905Y-19951190D01*
X1416905Y-19979762D01*
X1407381Y-20017857D01*
X1397857Y-20036905D01*
X1378810Y-20055952D01*
X1350238Y-20065476D01*
X1302619Y-20065476D01*
X1502619Y-20065476D02*
X1502619Y-19932143D01*
X1502619Y-19970238D02*
X1512143Y-19951190D01*
X1521667Y-19941667D01*
X1540714Y-19932143D01*
X1559762Y-19932143D01*
X1626428Y-20065476D02*
X1626428Y-19932143D01*
X1626428Y-19865476D02*
X1616905Y-19875000D01*
X1626428Y-19884524D01*
X1635952Y-19875000D01*
X1626428Y-19865476D01*
X1626428Y-19884524D01*
X1750238Y-20065476D02*
X1731190Y-20055952D01*
X1721667Y-20036905D01*
X1721667Y-19865476D01*
X1855000Y-20065476D02*
X1835952Y-20055952D01*
X1826428Y-20036905D01*
X1826428Y-19865476D01*
X2083571Y-20065476D02*
X2083571Y-19865476D01*
X2150238Y-20008333D01*
X2216905Y-19865476D01*
X2216905Y-20065476D01*
X2397857Y-20065476D02*
X2397857Y-19960714D01*
X2388333Y-19941667D01*
X2369286Y-19932143D01*
X2331190Y-19932143D01*
X2312143Y-19941667D01*
X2397857Y-20055952D02*
X2378810Y-20065476D01*
X2331190Y-20065476D01*
X2312143Y-20055952D01*
X2302619Y-20036905D01*
X2302619Y-20017857D01*
X2312143Y-19998810D01*
X2331190Y-19989286D01*
X2378810Y-19989286D01*
X2397857Y-19979762D01*
X2493095Y-19932143D02*
X2493095Y-20132143D01*
X2493095Y-19941667D02*
X2512143Y-19932143D01*
X2550238Y-19932143D01*
X2569286Y-19941667D01*
X2578810Y-19951190D01*
X2588333Y-19970238D01*
X2588333Y-20027381D01*
X2578810Y-20046429D01*
X2569286Y-20055952D01*
X2550238Y-20065476D01*
X2512143Y-20065476D01*
X2493095Y-20055952D01*
X2674048Y-20046429D02*
X2683571Y-20055952D01*
X2674048Y-20065476D01*
X2664524Y-20055952D01*
X2674048Y-20046429D01*
X2674048Y-20065476D01*
X2674048Y-19941667D02*
X2683571Y-19951190D01*
X2674048Y-19960714D01*
X2664524Y-19951190D01*
X2674048Y-19941667D01*
X2674048Y-19960714D01*
D12*
X965000Y-20355000D02*
X1045000Y-20435000D01*
X1045000Y-20355000D02*
X965000Y-20435000D01*
D11*
X1340714Y-20285476D02*
X1359762Y-20285476D01*
X1378810Y-20295000D01*
X1388333Y-20304524D01*
X1397857Y-20323571D01*
X1407381Y-20361667D01*
X1407381Y-20409286D01*
X1397857Y-20447381D01*
X1388333Y-20466429D01*
X1378810Y-20475952D01*
X1359762Y-20485476D01*
X1340714Y-20485476D01*
X1321667Y-20475952D01*
X1312143Y-20466429D01*
X1302619Y-20447381D01*
X1293095Y-20409286D01*
X1293095Y-20361667D01*
X1302619Y-20323571D01*
X1312143Y-20304524D01*
X1321667Y-20295000D01*
X1340714Y-20285476D01*
X1493095Y-20466429D02*
X1502619Y-20475952D01*
X1493095Y-20485476D01*
X1483571Y-20475952D01*
X1493095Y-20466429D01*
X1493095Y-20485476D01*
X1616905Y-20371190D02*
X1597857Y-20361667D01*
X1588333Y-20352143D01*
X1578809Y-20333095D01*
X1578809Y-20323571D01*
X1588333Y-20304524D01*
X1597857Y-20295000D01*
X1616905Y-20285476D01*
X1655000Y-20285476D01*
X1674048Y-20295000D01*
X1683571Y-20304524D01*
X1693095Y-20323571D01*
X1693095Y-20333095D01*
X1683571Y-20352143D01*
X1674048Y-20361667D01*
X1655000Y-20371190D01*
X1616905Y-20371190D01*
X1597857Y-20380714D01*
X1588333Y-20390238D01*
X1578809Y-20409286D01*
X1578809Y-20447381D01*
X1588333Y-20466429D01*
X1597857Y-20475952D01*
X1616905Y-20485476D01*
X1655000Y-20485476D01*
X1674048Y-20475952D01*
X1683571Y-20466429D01*
X1693095Y-20447381D01*
X1693095Y-20409286D01*
X1683571Y-20390238D01*
X1674048Y-20380714D01*
X1655000Y-20371190D01*
X1816905Y-20285476D02*
X1835952Y-20285476D01*
X1855000Y-20295000D01*
X1864524Y-20304524D01*
X1874048Y-20323571D01*
X1883571Y-20361667D01*
X1883571Y-20409286D01*
X1874048Y-20447381D01*
X1864524Y-20466429D01*
X1855000Y-20475952D01*
X1835952Y-20485476D01*
X1816905Y-20485476D01*
X1797857Y-20475952D01*
X1788333Y-20466429D01*
X1778809Y-20447381D01*
X1769286Y-20409286D01*
X1769286Y-20361667D01*
X1778809Y-20323571D01*
X1788333Y-20304524D01*
X1797857Y-20295000D01*
X1816905Y-20285476D01*
X2007381Y-20285476D02*
X2026428Y-20285476D01*
X2045476Y-20295000D01*
X2055000Y-20304524D01*
X2064524Y-20323571D01*
X2074048Y-20361667D01*
X2074048Y-20409286D01*
X2064524Y-20447381D01*
X2055000Y-20466429D01*
X2045476Y-20475952D01*
X2026428Y-20485476D01*
X2007381Y-20485476D01*
X1988333Y-20475952D01*
X1978809Y-20466429D01*
X1969286Y-20447381D01*
X1959762Y-20409286D01*
X1959762Y-20361667D01*
X1969286Y-20323571D01*
X1978809Y-20304524D01*
X1988333Y-20295000D01*
X2007381Y-20285476D01*
X2159762Y-20485476D02*
X2159762Y-20352143D01*
X2159762Y-20371190D02*
X2169286Y-20361667D01*
X2188333Y-20352143D01*
X2216905Y-20352143D01*
X2235952Y-20361667D01*
X2245476Y-20380714D01*
X2245476Y-20485476D01*
X2245476Y-20380714D02*
X2255000Y-20361667D01*
X2274048Y-20352143D01*
X2302619Y-20352143D01*
X2321667Y-20361667D01*
X2331190Y-20380714D01*
X2331190Y-20485476D01*
X2426429Y-20485476D02*
X2426429Y-20352143D01*
X2426429Y-20371190D02*
X2435952Y-20361667D01*
X2455000Y-20352143D01*
X2483571Y-20352143D01*
X2502619Y-20361667D01*
X2512143Y-20380714D01*
X2512143Y-20485476D01*
X2512143Y-20380714D02*
X2521667Y-20361667D01*
X2540714Y-20352143D01*
X2569286Y-20352143D01*
X2588333Y-20361667D01*
X2597857Y-20380714D01*
X2597857Y-20485476D01*
X2988333Y-20275952D02*
X2816905Y-20533095D01*
X3245476Y-20285476D02*
X3264524Y-20285476D01*
X3283571Y-20295000D01*
X3293095Y-20304524D01*
X3302619Y-20323571D01*
X3312143Y-20361667D01*
X3312143Y-20409286D01*
X3302619Y-20447381D01*
X3293095Y-20466429D01*
X3283571Y-20475952D01*
X3264524Y-20485476D01*
X3245476Y-20485476D01*
X3226428Y-20475952D01*
X3216905Y-20466429D01*
X3207381Y-20447381D01*
X3197857Y-20409286D01*
X3197857Y-20361667D01*
X3207381Y-20323571D01*
X3216905Y-20304524D01*
X3226428Y-20295000D01*
X3245476Y-20285476D01*
X3397857Y-20466429D02*
X3407381Y-20475952D01*
X3397857Y-20485476D01*
X3388333Y-20475952D01*
X3397857Y-20466429D01*
X3397857Y-20485476D01*
X3531190Y-20285476D02*
X3550238Y-20285476D01*
X3569286Y-20295000D01*
X3578809Y-20304524D01*
X3588333Y-20323571D01*
X3597857Y-20361667D01*
X3597857Y-20409286D01*
X3588333Y-20447381D01*
X3578809Y-20466429D01*
X3569286Y-20475952D01*
X3550238Y-20485476D01*
X3531190Y-20485476D01*
X3512143Y-20475952D01*
X3502619Y-20466429D01*
X3493095Y-20447381D01*
X3483571Y-20409286D01*
X3483571Y-20361667D01*
X3493095Y-20323571D01*
X3502619Y-20304524D01*
X3512143Y-20295000D01*
X3531190Y-20285476D01*
X3664524Y-20285476D02*
X3788333Y-20285476D01*
X3721667Y-20361667D01*
X3750238Y-20361667D01*
X3769286Y-20371190D01*
X3778809Y-20380714D01*
X3788333Y-20399762D01*
X3788333Y-20447381D01*
X3778809Y-20466429D01*
X3769286Y-20475952D01*
X3750238Y-20485476D01*
X3693095Y-20485476D01*
X3674048Y-20475952D01*
X3664524Y-20466429D01*
X3978809Y-20485476D02*
X3864524Y-20485476D01*
X3921667Y-20485476D02*
X3921667Y-20285476D01*
X3902619Y-20314048D01*
X3883571Y-20333095D01*
X3864524Y-20342619D01*
X4159762Y-20285476D02*
X4064524Y-20285476D01*
X4055000Y-20380714D01*
X4064524Y-20371190D01*
X4083571Y-20361667D01*
X4131190Y-20361667D01*
X4150238Y-20371190D01*
X4159762Y-20380714D01*
X4169286Y-20399762D01*
X4169286Y-20447381D01*
X4159762Y-20466429D01*
X4150238Y-20475952D01*
X4131190Y-20485476D01*
X4083571Y-20485476D01*
X4064524Y-20475952D01*
X4055000Y-20466429D01*
X4245476Y-20285476D02*
X4245476Y-20323571D01*
X4321667Y-20285476D02*
X4321667Y-20323571D01*
X4616905Y-20561667D02*
X4607381Y-20552143D01*
X4588333Y-20523571D01*
X4578810Y-20504524D01*
X4569286Y-20475952D01*
X4559762Y-20428333D01*
X4559762Y-20390238D01*
X4569286Y-20342619D01*
X4578810Y-20314048D01*
X4588333Y-20295000D01*
X4607381Y-20266429D01*
X4616905Y-20256905D01*
X4683571Y-20304524D02*
X4693095Y-20295000D01*
X4712143Y-20285476D01*
X4759762Y-20285476D01*
X4778810Y-20295000D01*
X4788333Y-20304524D01*
X4797857Y-20323571D01*
X4797857Y-20342619D01*
X4788333Y-20371190D01*
X4674048Y-20485476D01*
X4797857Y-20485476D01*
X4912143Y-20371190D02*
X4893095Y-20361667D01*
X4883571Y-20352143D01*
X4874048Y-20333095D01*
X4874048Y-20323571D01*
X4883571Y-20304524D01*
X4893095Y-20295000D01*
X4912143Y-20285476D01*
X4950238Y-20285476D01*
X4969286Y-20295000D01*
X4978810Y-20304524D01*
X4988333Y-20323571D01*
X4988333Y-20333095D01*
X4978810Y-20352143D01*
X4969286Y-20361667D01*
X4950238Y-20371190D01*
X4912143Y-20371190D01*
X4893095Y-20380714D01*
X4883571Y-20390238D01*
X4874048Y-20409286D01*
X4874048Y-20447381D01*
X4883571Y-20466429D01*
X4893095Y-20475952D01*
X4912143Y-20485476D01*
X4950238Y-20485476D01*
X4969286Y-20475952D01*
X4978810Y-20466429D01*
X4988333Y-20447381D01*
X4988333Y-20409286D01*
X4978810Y-20390238D01*
X4969286Y-20380714D01*
X4950238Y-20371190D01*
X5064524Y-20304524D02*
X5074048Y-20295000D01*
X5093095Y-20285476D01*
X5140714Y-20285476D01*
X5159762Y-20295000D01*
X5169286Y-20304524D01*
X5178810Y-20323571D01*
X5178810Y-20342619D01*
X5169286Y-20371190D01*
X5055000Y-20485476D01*
X5178810Y-20485476D01*
X5416905Y-20485476D02*
X5416905Y-20285476D01*
X5502619Y-20485476D02*
X5502619Y-20380714D01*
X5493095Y-20361667D01*
X5474048Y-20352143D01*
X5445476Y-20352143D01*
X5426429Y-20361667D01*
X5416905Y-20371190D01*
X5626428Y-20485476D02*
X5607381Y-20475952D01*
X5597857Y-20466429D01*
X5588333Y-20447381D01*
X5588333Y-20390238D01*
X5597857Y-20371190D01*
X5607381Y-20361667D01*
X5626428Y-20352143D01*
X5655000Y-20352143D01*
X5674048Y-20361667D01*
X5683571Y-20371190D01*
X5693095Y-20390238D01*
X5693095Y-20447381D01*
X5683571Y-20466429D01*
X5674048Y-20475952D01*
X5655000Y-20485476D01*
X5626428Y-20485476D01*
X5807381Y-20485476D02*
X5788333Y-20475952D01*
X5778809Y-20456905D01*
X5778809Y-20285476D01*
X5959762Y-20475952D02*
X5940714Y-20485476D01*
X5902619Y-20485476D01*
X5883571Y-20475952D01*
X5874048Y-20456905D01*
X5874048Y-20380714D01*
X5883571Y-20361667D01*
X5902619Y-20352143D01*
X5940714Y-20352143D01*
X5959762Y-20361667D01*
X5969286Y-20380714D01*
X5969286Y-20399762D01*
X5874048Y-20418810D01*
X6045476Y-20475952D02*
X6064524Y-20485476D01*
X6102619Y-20485476D01*
X6121667Y-20475952D01*
X6131190Y-20456905D01*
X6131190Y-20447381D01*
X6121667Y-20428333D01*
X6102619Y-20418810D01*
X6074048Y-20418810D01*
X6055000Y-20409286D01*
X6045476Y-20390238D01*
X6045476Y-20380714D01*
X6055000Y-20361667D01*
X6074048Y-20352143D01*
X6102619Y-20352143D01*
X6121667Y-20361667D01*
X6197857Y-20561667D02*
X6207381Y-20552143D01*
X6226428Y-20523571D01*
X6235952Y-20504524D01*
X6245476Y-20475952D01*
X6255000Y-20428333D01*
X6255000Y-20390238D01*
X6245476Y-20342619D01*
X6235952Y-20314048D01*
X6226428Y-20295000D01*
X6207381Y-20266429D01*
X6197857Y-20256905D01*
D13*
X1045000Y-20659000D02*
G75*
G03*
X1045000Y-20659000I-45000J0D01*
G01*
D11*
X1340714Y-20549476D02*
X1359762Y-20549476D01*
X1378810Y-20559000D01*
X1388333Y-20568524D01*
X1397857Y-20587571D01*
X1407381Y-20625667D01*
X1407381Y-20673286D01*
X1397857Y-20711381D01*
X1388333Y-20730429D01*
X1378810Y-20739952D01*
X1359762Y-20749476D01*
X1340714Y-20749476D01*
X1321667Y-20739952D01*
X1312143Y-20730429D01*
X1302619Y-20711381D01*
X1293095Y-20673286D01*
X1293095Y-20625667D01*
X1302619Y-20587571D01*
X1312143Y-20568524D01*
X1321667Y-20559000D01*
X1340714Y-20549476D01*
X1493095Y-20730429D02*
X1502619Y-20739952D01*
X1493095Y-20749476D01*
X1483571Y-20739952D01*
X1493095Y-20730429D01*
X1493095Y-20749476D01*
X1597857Y-20749476D02*
X1635952Y-20749476D01*
X1655000Y-20739952D01*
X1664524Y-20730429D01*
X1683571Y-20701857D01*
X1693095Y-20663762D01*
X1693095Y-20587571D01*
X1683571Y-20568524D01*
X1674048Y-20559000D01*
X1655000Y-20549476D01*
X1616905Y-20549476D01*
X1597857Y-20559000D01*
X1588333Y-20568524D01*
X1578809Y-20587571D01*
X1578809Y-20635190D01*
X1588333Y-20654238D01*
X1597857Y-20663762D01*
X1616905Y-20673286D01*
X1655000Y-20673286D01*
X1674048Y-20663762D01*
X1683571Y-20654238D01*
X1693095Y-20635190D01*
X1816905Y-20549476D02*
X1835952Y-20549476D01*
X1855000Y-20559000D01*
X1864524Y-20568524D01*
X1874048Y-20587571D01*
X1883571Y-20625667D01*
X1883571Y-20673286D01*
X1874048Y-20711381D01*
X1864524Y-20730429D01*
X1855000Y-20739952D01*
X1835952Y-20749476D01*
X1816905Y-20749476D01*
X1797857Y-20739952D01*
X1788333Y-20730429D01*
X1778809Y-20711381D01*
X1769286Y-20673286D01*
X1769286Y-20625667D01*
X1778809Y-20587571D01*
X1788333Y-20568524D01*
X1797857Y-20559000D01*
X1816905Y-20549476D01*
X2007381Y-20549476D02*
X2026428Y-20549476D01*
X2045476Y-20559000D01*
X2055000Y-20568524D01*
X2064524Y-20587571D01*
X2074048Y-20625667D01*
X2074048Y-20673286D01*
X2064524Y-20711381D01*
X2055000Y-20730429D01*
X2045476Y-20739952D01*
X2026428Y-20749476D01*
X2007381Y-20749476D01*
X1988333Y-20739952D01*
X1978809Y-20730429D01*
X1969286Y-20711381D01*
X1959762Y-20673286D01*
X1959762Y-20625667D01*
X1969286Y-20587571D01*
X1978809Y-20568524D01*
X1988333Y-20559000D01*
X2007381Y-20549476D01*
X2159762Y-20749476D02*
X2159762Y-20616143D01*
X2159762Y-20635190D02*
X2169286Y-20625667D01*
X2188333Y-20616143D01*
X2216905Y-20616143D01*
X2235952Y-20625667D01*
X2245476Y-20644714D01*
X2245476Y-20749476D01*
X2245476Y-20644714D02*
X2255000Y-20625667D01*
X2274048Y-20616143D01*
X2302619Y-20616143D01*
X2321667Y-20625667D01*
X2331190Y-20644714D01*
X2331190Y-20749476D01*
X2426429Y-20749476D02*
X2426429Y-20616143D01*
X2426429Y-20635190D02*
X2435952Y-20625667D01*
X2455000Y-20616143D01*
X2483571Y-20616143D01*
X2502619Y-20625667D01*
X2512143Y-20644714D01*
X2512143Y-20749476D01*
X2512143Y-20644714D02*
X2521667Y-20625667D01*
X2540714Y-20616143D01*
X2569286Y-20616143D01*
X2588333Y-20625667D01*
X2597857Y-20644714D01*
X2597857Y-20749476D01*
X2988333Y-20539952D02*
X2816905Y-20797095D01*
X3245476Y-20549476D02*
X3264524Y-20549476D01*
X3283571Y-20559000D01*
X3293095Y-20568524D01*
X3302619Y-20587571D01*
X3312143Y-20625667D01*
X3312143Y-20673286D01*
X3302619Y-20711381D01*
X3293095Y-20730429D01*
X3283571Y-20739952D01*
X3264524Y-20749476D01*
X3245476Y-20749476D01*
X3226428Y-20739952D01*
X3216905Y-20730429D01*
X3207381Y-20711381D01*
X3197857Y-20673286D01*
X3197857Y-20625667D01*
X3207381Y-20587571D01*
X3216905Y-20568524D01*
X3226428Y-20559000D01*
X3245476Y-20549476D01*
X3397857Y-20730429D02*
X3407381Y-20739952D01*
X3397857Y-20749476D01*
X3388333Y-20739952D01*
X3397857Y-20730429D01*
X3397857Y-20749476D01*
X3531190Y-20549476D02*
X3550238Y-20549476D01*
X3569286Y-20559000D01*
X3578809Y-20568524D01*
X3588333Y-20587571D01*
X3597857Y-20625667D01*
X3597857Y-20673286D01*
X3588333Y-20711381D01*
X3578809Y-20730429D01*
X3569286Y-20739952D01*
X3550238Y-20749476D01*
X3531190Y-20749476D01*
X3512143Y-20739952D01*
X3502619Y-20730429D01*
X3493095Y-20711381D01*
X3483571Y-20673286D01*
X3483571Y-20625667D01*
X3493095Y-20587571D01*
X3502619Y-20568524D01*
X3512143Y-20559000D01*
X3531190Y-20549476D01*
X3664524Y-20549476D02*
X3788333Y-20549476D01*
X3721667Y-20625667D01*
X3750238Y-20625667D01*
X3769286Y-20635190D01*
X3778809Y-20644714D01*
X3788333Y-20663762D01*
X3788333Y-20711381D01*
X3778809Y-20730429D01*
X3769286Y-20739952D01*
X3750238Y-20749476D01*
X3693095Y-20749476D01*
X3674048Y-20739952D01*
X3664524Y-20730429D01*
X3969286Y-20549476D02*
X3874048Y-20549476D01*
X3864524Y-20644714D01*
X3874048Y-20635190D01*
X3893095Y-20625667D01*
X3940714Y-20625667D01*
X3959762Y-20635190D01*
X3969286Y-20644714D01*
X3978809Y-20663762D01*
X3978809Y-20711381D01*
X3969286Y-20730429D01*
X3959762Y-20739952D01*
X3940714Y-20749476D01*
X3893095Y-20749476D01*
X3874048Y-20739952D01*
X3864524Y-20730429D01*
X4150238Y-20616143D02*
X4150238Y-20749476D01*
X4102619Y-20539952D02*
X4055000Y-20682810D01*
X4178809Y-20682810D01*
X4245476Y-20549476D02*
X4245476Y-20587571D01*
X4321667Y-20549476D02*
X4321667Y-20587571D01*
X4616905Y-20825667D02*
X4607381Y-20816143D01*
X4588333Y-20787571D01*
X4578810Y-20768524D01*
X4569286Y-20739952D01*
X4559762Y-20692333D01*
X4559762Y-20654238D01*
X4569286Y-20606619D01*
X4578810Y-20578048D01*
X4588333Y-20559000D01*
X4607381Y-20530429D01*
X4616905Y-20520905D01*
X4797857Y-20749476D02*
X4683571Y-20749476D01*
X4740714Y-20749476D02*
X4740714Y-20549476D01*
X4721667Y-20578048D01*
X4702619Y-20597095D01*
X4683571Y-20606619D01*
X4969286Y-20616143D02*
X4969286Y-20749476D01*
X4921667Y-20539952D02*
X4874048Y-20682810D01*
X4997857Y-20682810D01*
X5064524Y-20568524D02*
X5074048Y-20559000D01*
X5093095Y-20549476D01*
X5140714Y-20549476D01*
X5159762Y-20559000D01*
X5169286Y-20568524D01*
X5178810Y-20587571D01*
X5178810Y-20606619D01*
X5169286Y-20635190D01*
X5055000Y-20749476D01*
X5178810Y-20749476D01*
X5416905Y-20749476D02*
X5416905Y-20549476D01*
X5502619Y-20749476D02*
X5502619Y-20644714D01*
X5493095Y-20625667D01*
X5474048Y-20616143D01*
X5445476Y-20616143D01*
X5426429Y-20625667D01*
X5416905Y-20635190D01*
X5626428Y-20749476D02*
X5607381Y-20739952D01*
X5597857Y-20730429D01*
X5588333Y-20711381D01*
X5588333Y-20654238D01*
X5597857Y-20635190D01*
X5607381Y-20625667D01*
X5626428Y-20616143D01*
X5655000Y-20616143D01*
X5674048Y-20625667D01*
X5683571Y-20635190D01*
X5693095Y-20654238D01*
X5693095Y-20711381D01*
X5683571Y-20730429D01*
X5674048Y-20739952D01*
X5655000Y-20749476D01*
X5626428Y-20749476D01*
X5807381Y-20749476D02*
X5788333Y-20739952D01*
X5778809Y-20720905D01*
X5778809Y-20549476D01*
X5959762Y-20739952D02*
X5940714Y-20749476D01*
X5902619Y-20749476D01*
X5883571Y-20739952D01*
X5874048Y-20720905D01*
X5874048Y-20644714D01*
X5883571Y-20625667D01*
X5902619Y-20616143D01*
X5940714Y-20616143D01*
X5959762Y-20625667D01*
X5969286Y-20644714D01*
X5969286Y-20663762D01*
X5874048Y-20682810D01*
X6045476Y-20739952D02*
X6064524Y-20749476D01*
X6102619Y-20749476D01*
X6121667Y-20739952D01*
X6131190Y-20720905D01*
X6131190Y-20711381D01*
X6121667Y-20692333D01*
X6102619Y-20682810D01*
X6074048Y-20682810D01*
X6055000Y-20673286D01*
X6045476Y-20654238D01*
X6045476Y-20644714D01*
X6055000Y-20625667D01*
X6074048Y-20616143D01*
X6102619Y-20616143D01*
X6121667Y-20625667D01*
X6197857Y-20825667D02*
X6207381Y-20816143D01*
X6226428Y-20787571D01*
X6235952Y-20768524D01*
X6245476Y-20739952D01*
X6255000Y-20692333D01*
X6255000Y-20654238D01*
X6245476Y-20606619D01*
X6235952Y-20578048D01*
X6226428Y-20559000D01*
X6207381Y-20530429D01*
X6197857Y-20520905D01*
D14*
X995000Y-20873000D02*
X995000Y-20973000D01*
X945000Y-20923000D02*
X1045000Y-20923000D01*
D11*
X1407381Y-21013476D02*
X1293095Y-21013476D01*
X1350238Y-21013476D02*
X1350238Y-20813476D01*
X1331190Y-20842048D01*
X1312143Y-20861095D01*
X1293095Y-20870619D01*
X1493095Y-20994429D02*
X1502619Y-21003952D01*
X1493095Y-21013476D01*
X1483571Y-21003952D01*
X1493095Y-20994429D01*
X1493095Y-21013476D01*
X1626428Y-20813476D02*
X1645476Y-20813476D01*
X1664524Y-20823000D01*
X1674048Y-20832524D01*
X1683571Y-20851571D01*
X1693095Y-20889667D01*
X1693095Y-20937286D01*
X1683571Y-20975381D01*
X1674048Y-20994429D01*
X1664524Y-21003952D01*
X1645476Y-21013476D01*
X1626428Y-21013476D01*
X1607381Y-21003952D01*
X1597857Y-20994429D01*
X1588333Y-20975381D01*
X1578809Y-20937286D01*
X1578809Y-20889667D01*
X1588333Y-20851571D01*
X1597857Y-20832524D01*
X1607381Y-20823000D01*
X1626428Y-20813476D01*
X1816905Y-20813476D02*
X1835952Y-20813476D01*
X1855000Y-20823000D01*
X1864524Y-20832524D01*
X1874048Y-20851571D01*
X1883571Y-20889667D01*
X1883571Y-20937286D01*
X1874048Y-20975381D01*
X1864524Y-20994429D01*
X1855000Y-21003952D01*
X1835952Y-21013476D01*
X1816905Y-21013476D01*
X1797857Y-21003952D01*
X1788333Y-20994429D01*
X1778809Y-20975381D01*
X1769286Y-20937286D01*
X1769286Y-20889667D01*
X1778809Y-20851571D01*
X1788333Y-20832524D01*
X1797857Y-20823000D01*
X1816905Y-20813476D01*
X2007381Y-20813476D02*
X2026428Y-20813476D01*
X2045476Y-20823000D01*
X2055000Y-20832524D01*
X2064524Y-20851571D01*
X2074048Y-20889667D01*
X2074048Y-20937286D01*
X2064524Y-20975381D01*
X2055000Y-20994429D01*
X2045476Y-21003952D01*
X2026428Y-21013476D01*
X2007381Y-21013476D01*
X1988333Y-21003952D01*
X1978809Y-20994429D01*
X1969286Y-20975381D01*
X1959762Y-20937286D01*
X1959762Y-20889667D01*
X1969286Y-20851571D01*
X1978809Y-20832524D01*
X1988333Y-20823000D01*
X2007381Y-20813476D01*
X2159762Y-21013476D02*
X2159762Y-20880143D01*
X2159762Y-20899190D02*
X2169286Y-20889667D01*
X2188333Y-20880143D01*
X2216905Y-20880143D01*
X2235952Y-20889667D01*
X2245476Y-20908714D01*
X2245476Y-21013476D01*
X2245476Y-20908714D02*
X2255000Y-20889667D01*
X2274048Y-20880143D01*
X2302619Y-20880143D01*
X2321667Y-20889667D01*
X2331190Y-20908714D01*
X2331190Y-21013476D01*
X2426429Y-21013476D02*
X2426429Y-20880143D01*
X2426429Y-20899190D02*
X2435952Y-20889667D01*
X2455000Y-20880143D01*
X2483571Y-20880143D01*
X2502619Y-20889667D01*
X2512143Y-20908714D01*
X2512143Y-21013476D01*
X2512143Y-20908714D02*
X2521667Y-20889667D01*
X2540714Y-20880143D01*
X2569286Y-20880143D01*
X2588333Y-20889667D01*
X2597857Y-20908714D01*
X2597857Y-21013476D01*
X2988333Y-20803952D02*
X2816905Y-21061095D01*
X3245476Y-20813476D02*
X3264524Y-20813476D01*
X3283571Y-20823000D01*
X3293095Y-20832524D01*
X3302619Y-20851571D01*
X3312143Y-20889667D01*
X3312143Y-20937286D01*
X3302619Y-20975381D01*
X3293095Y-20994429D01*
X3283571Y-21003952D01*
X3264524Y-21013476D01*
X3245476Y-21013476D01*
X3226428Y-21003952D01*
X3216905Y-20994429D01*
X3207381Y-20975381D01*
X3197857Y-20937286D01*
X3197857Y-20889667D01*
X3207381Y-20851571D01*
X3216905Y-20832524D01*
X3226428Y-20823000D01*
X3245476Y-20813476D01*
X3397857Y-20994429D02*
X3407381Y-21003952D01*
X3397857Y-21013476D01*
X3388333Y-21003952D01*
X3397857Y-20994429D01*
X3397857Y-21013476D01*
X3531190Y-20813476D02*
X3550238Y-20813476D01*
X3569286Y-20823000D01*
X3578809Y-20832524D01*
X3588333Y-20851571D01*
X3597857Y-20889667D01*
X3597857Y-20937286D01*
X3588333Y-20975381D01*
X3578809Y-20994429D01*
X3569286Y-21003952D01*
X3550238Y-21013476D01*
X3531190Y-21013476D01*
X3512143Y-21003952D01*
X3502619Y-20994429D01*
X3493095Y-20975381D01*
X3483571Y-20937286D01*
X3483571Y-20889667D01*
X3493095Y-20851571D01*
X3502619Y-20832524D01*
X3512143Y-20823000D01*
X3531190Y-20813476D01*
X3664524Y-20813476D02*
X3788333Y-20813476D01*
X3721667Y-20889667D01*
X3750238Y-20889667D01*
X3769286Y-20899190D01*
X3778809Y-20908714D01*
X3788333Y-20927762D01*
X3788333Y-20975381D01*
X3778809Y-20994429D01*
X3769286Y-21003952D01*
X3750238Y-21013476D01*
X3693095Y-21013476D01*
X3674048Y-21003952D01*
X3664524Y-20994429D01*
X3883571Y-21013476D02*
X3921667Y-21013476D01*
X3940714Y-21003952D01*
X3950238Y-20994429D01*
X3969286Y-20965857D01*
X3978809Y-20927762D01*
X3978809Y-20851571D01*
X3969286Y-20832524D01*
X3959762Y-20823000D01*
X3940714Y-20813476D01*
X3902619Y-20813476D01*
X3883571Y-20823000D01*
X3874048Y-20832524D01*
X3864524Y-20851571D01*
X3864524Y-20899190D01*
X3874048Y-20918238D01*
X3883571Y-20927762D01*
X3902619Y-20937286D01*
X3940714Y-20937286D01*
X3959762Y-20927762D01*
X3969286Y-20918238D01*
X3978809Y-20899190D01*
X4150238Y-20880143D02*
X4150238Y-21013476D01*
X4102619Y-20803952D02*
X4055000Y-20946810D01*
X4178809Y-20946810D01*
X4245476Y-20813476D02*
X4245476Y-20851571D01*
X4321667Y-20813476D02*
X4321667Y-20851571D01*
X4616905Y-21089667D02*
X4607381Y-21080143D01*
X4588333Y-21051571D01*
X4578810Y-21032524D01*
X4569286Y-21003952D01*
X4559762Y-20956333D01*
X4559762Y-20918238D01*
X4569286Y-20870619D01*
X4578810Y-20842048D01*
X4588333Y-20823000D01*
X4607381Y-20794429D01*
X4616905Y-20784905D01*
X4797857Y-21013476D02*
X4683571Y-21013476D01*
X4740714Y-21013476D02*
X4740714Y-20813476D01*
X4721667Y-20842048D01*
X4702619Y-20861095D01*
X4683571Y-20870619D01*
X4874048Y-20832524D02*
X4883571Y-20823000D01*
X4902619Y-20813476D01*
X4950238Y-20813476D01*
X4969286Y-20823000D01*
X4978810Y-20832524D01*
X4988333Y-20851571D01*
X4988333Y-20870619D01*
X4978810Y-20899190D01*
X4864524Y-21013476D01*
X4988333Y-21013476D01*
X5169286Y-20813476D02*
X5074048Y-20813476D01*
X5064524Y-20908714D01*
X5074048Y-20899190D01*
X5093095Y-20889667D01*
X5140714Y-20889667D01*
X5159762Y-20899190D01*
X5169286Y-20908714D01*
X5178810Y-20927762D01*
X5178810Y-20975381D01*
X5169286Y-20994429D01*
X5159762Y-21003952D01*
X5140714Y-21013476D01*
X5093095Y-21013476D01*
X5074048Y-21003952D01*
X5064524Y-20994429D01*
X5416905Y-21013476D02*
X5416905Y-20813476D01*
X5502619Y-21013476D02*
X5502619Y-20908714D01*
X5493095Y-20889667D01*
X5474048Y-20880143D01*
X5445476Y-20880143D01*
X5426429Y-20889667D01*
X5416905Y-20899190D01*
X5626428Y-21013476D02*
X5607381Y-21003952D01*
X5597857Y-20994429D01*
X5588333Y-20975381D01*
X5588333Y-20918238D01*
X5597857Y-20899190D01*
X5607381Y-20889667D01*
X5626428Y-20880143D01*
X5655000Y-20880143D01*
X5674048Y-20889667D01*
X5683571Y-20899190D01*
X5693095Y-20918238D01*
X5693095Y-20975381D01*
X5683571Y-20994429D01*
X5674048Y-21003952D01*
X5655000Y-21013476D01*
X5626428Y-21013476D01*
X5807381Y-21013476D02*
X5788333Y-21003952D01*
X5778809Y-20984905D01*
X5778809Y-20813476D01*
X5959762Y-21003952D02*
X5940714Y-21013476D01*
X5902619Y-21013476D01*
X5883571Y-21003952D01*
X5874048Y-20984905D01*
X5874048Y-20908714D01*
X5883571Y-20889667D01*
X5902619Y-20880143D01*
X5940714Y-20880143D01*
X5959762Y-20889667D01*
X5969286Y-20908714D01*
X5969286Y-20927762D01*
X5874048Y-20946810D01*
X6045476Y-21003952D02*
X6064524Y-21013476D01*
X6102619Y-21013476D01*
X6121667Y-21003952D01*
X6131190Y-20984905D01*
X6131190Y-20975381D01*
X6121667Y-20956333D01*
X6102619Y-20946810D01*
X6074048Y-20946810D01*
X6055000Y-20937286D01*
X6045476Y-20918238D01*
X6045476Y-20908714D01*
X6055000Y-20889667D01*
X6074048Y-20880143D01*
X6102619Y-20880143D01*
X6121667Y-20889667D01*
X6369286Y-20937286D02*
X6521667Y-20937286D01*
X6445476Y-21013476D02*
X6445476Y-20861095D01*
X6855000Y-20813476D02*
X6816905Y-20813476D01*
X6797857Y-20823000D01*
X6788333Y-20832524D01*
X6769286Y-20861095D01*
X6759762Y-20899190D01*
X6759762Y-20975381D01*
X6769286Y-20994429D01*
X6778809Y-21003952D01*
X6797857Y-21013476D01*
X6835952Y-21013476D01*
X6855000Y-21003952D01*
X6864524Y-20994429D01*
X6874048Y-20975381D01*
X6874048Y-20927762D01*
X6864524Y-20908714D01*
X6855000Y-20899190D01*
X6835952Y-20889667D01*
X6797857Y-20889667D01*
X6778809Y-20899190D01*
X6769286Y-20908714D01*
X6759762Y-20927762D01*
X7102619Y-21003952D02*
X7121667Y-21013476D01*
X7159762Y-21013476D01*
X7178809Y-21003952D01*
X7188333Y-20984905D01*
X7188333Y-20975381D01*
X7178809Y-20956333D01*
X7159762Y-20946810D01*
X7131190Y-20946810D01*
X7112143Y-20937286D01*
X7102619Y-20918238D01*
X7102619Y-20908714D01*
X7112143Y-20889667D01*
X7131190Y-20880143D01*
X7159762Y-20880143D01*
X7178809Y-20889667D01*
X7302619Y-21013476D02*
X7283571Y-21003952D01*
X7274048Y-20984905D01*
X7274048Y-20813476D01*
X7407381Y-21013476D02*
X7388333Y-21003952D01*
X7378809Y-20994429D01*
X7369286Y-20975381D01*
X7369286Y-20918238D01*
X7378809Y-20899190D01*
X7388333Y-20889667D01*
X7407381Y-20880143D01*
X7435952Y-20880143D01*
X7455000Y-20889667D01*
X7464524Y-20899190D01*
X7474048Y-20918238D01*
X7474048Y-20975381D01*
X7464524Y-20994429D01*
X7455000Y-21003952D01*
X7435952Y-21013476D01*
X7407381Y-21013476D01*
X7531190Y-20880143D02*
X7607381Y-20880143D01*
X7559762Y-20813476D02*
X7559762Y-20984905D01*
X7569286Y-21003952D01*
X7588333Y-21013476D01*
X7607381Y-21013476D01*
X7664524Y-21003952D02*
X7683571Y-21013476D01*
X7721667Y-21013476D01*
X7740714Y-21003952D01*
X7750238Y-20984905D01*
X7750238Y-20975381D01*
X7740714Y-20956333D01*
X7721667Y-20946810D01*
X7693095Y-20946810D01*
X7674048Y-20937286D01*
X7664524Y-20918238D01*
X7664524Y-20908714D01*
X7674048Y-20889667D01*
X7693095Y-20880143D01*
X7721667Y-20880143D01*
X7740714Y-20889667D01*
X7816905Y-21089667D02*
X7826428Y-21080143D01*
X7845476Y-21051571D01*
X7855000Y-21032524D01*
X7864524Y-21003952D01*
X7874048Y-20956333D01*
X7874048Y-20918238D01*
X7864524Y-20870619D01*
X7855000Y-20842048D01*
X7845476Y-20823000D01*
X7826428Y-20794429D01*
X7816905Y-20784905D01*
D15*
X1030209Y-21222709D02*
X1030209Y-21151291D01*
X958791Y-21151291D01*
X958791Y-21222709D01*
X1030209Y-21222709D01*
D11*
X1407381Y-21277476D02*
X1293095Y-21277476D01*
X1350238Y-21277476D02*
X1350238Y-21077476D01*
X1331190Y-21106048D01*
X1312143Y-21125095D01*
X1293095Y-21134619D01*
X1493095Y-21258429D02*
X1502619Y-21267952D01*
X1493095Y-21277476D01*
X1483571Y-21267952D01*
X1493095Y-21258429D01*
X1493095Y-21277476D01*
X1626428Y-21077476D02*
X1645476Y-21077476D01*
X1664524Y-21087000D01*
X1674048Y-21096524D01*
X1683571Y-21115571D01*
X1693095Y-21153667D01*
X1693095Y-21201286D01*
X1683571Y-21239381D01*
X1674048Y-21258429D01*
X1664524Y-21267952D01*
X1645476Y-21277476D01*
X1626428Y-21277476D01*
X1607381Y-21267952D01*
X1597857Y-21258429D01*
X1588333Y-21239381D01*
X1578809Y-21201286D01*
X1578809Y-21153667D01*
X1588333Y-21115571D01*
X1597857Y-21096524D01*
X1607381Y-21087000D01*
X1626428Y-21077476D01*
X1883571Y-21277476D02*
X1769286Y-21277476D01*
X1826428Y-21277476D02*
X1826428Y-21077476D01*
X1807381Y-21106048D01*
X1788333Y-21125095D01*
X1769286Y-21134619D01*
X2007381Y-21077476D02*
X2026428Y-21077476D01*
X2045476Y-21087000D01*
X2055000Y-21096524D01*
X2064524Y-21115571D01*
X2074048Y-21153667D01*
X2074048Y-21201286D01*
X2064524Y-21239381D01*
X2055000Y-21258429D01*
X2045476Y-21267952D01*
X2026428Y-21277476D01*
X2007381Y-21277476D01*
X1988333Y-21267952D01*
X1978809Y-21258429D01*
X1969286Y-21239381D01*
X1959762Y-21201286D01*
X1959762Y-21153667D01*
X1969286Y-21115571D01*
X1978809Y-21096524D01*
X1988333Y-21087000D01*
X2007381Y-21077476D01*
X2159762Y-21277476D02*
X2159762Y-21144143D01*
X2159762Y-21163190D02*
X2169286Y-21153667D01*
X2188333Y-21144143D01*
X2216905Y-21144143D01*
X2235952Y-21153667D01*
X2245476Y-21172714D01*
X2245476Y-21277476D01*
X2245476Y-21172714D02*
X2255000Y-21153667D01*
X2274048Y-21144143D01*
X2302619Y-21144143D01*
X2321667Y-21153667D01*
X2331190Y-21172714D01*
X2331190Y-21277476D01*
X2426429Y-21277476D02*
X2426429Y-21144143D01*
X2426429Y-21163190D02*
X2435952Y-21153667D01*
X2455000Y-21144143D01*
X2483571Y-21144143D01*
X2502619Y-21153667D01*
X2512143Y-21172714D01*
X2512143Y-21277476D01*
X2512143Y-21172714D02*
X2521667Y-21153667D01*
X2540714Y-21144143D01*
X2569286Y-21144143D01*
X2588333Y-21153667D01*
X2597857Y-21172714D01*
X2597857Y-21277476D01*
X2988333Y-21067952D02*
X2816905Y-21325095D01*
X3245476Y-21077476D02*
X3264524Y-21077476D01*
X3283571Y-21087000D01*
X3293095Y-21096524D01*
X3302619Y-21115571D01*
X3312143Y-21153667D01*
X3312143Y-21201286D01*
X3302619Y-21239381D01*
X3293095Y-21258429D01*
X3283571Y-21267952D01*
X3264524Y-21277476D01*
X3245476Y-21277476D01*
X3226428Y-21267952D01*
X3216905Y-21258429D01*
X3207381Y-21239381D01*
X3197857Y-21201286D01*
X3197857Y-21153667D01*
X3207381Y-21115571D01*
X3216905Y-21096524D01*
X3226428Y-21087000D01*
X3245476Y-21077476D01*
X3397857Y-21258429D02*
X3407381Y-21267952D01*
X3397857Y-21277476D01*
X3388333Y-21267952D01*
X3397857Y-21258429D01*
X3397857Y-21277476D01*
X3531190Y-21077476D02*
X3550238Y-21077476D01*
X3569286Y-21087000D01*
X3578809Y-21096524D01*
X3588333Y-21115571D01*
X3597857Y-21153667D01*
X3597857Y-21201286D01*
X3588333Y-21239381D01*
X3578809Y-21258429D01*
X3569286Y-21267952D01*
X3550238Y-21277476D01*
X3531190Y-21277476D01*
X3512143Y-21267952D01*
X3502619Y-21258429D01*
X3493095Y-21239381D01*
X3483571Y-21201286D01*
X3483571Y-21153667D01*
X3493095Y-21115571D01*
X3502619Y-21096524D01*
X3512143Y-21087000D01*
X3531190Y-21077476D01*
X3664524Y-21077476D02*
X3788333Y-21077476D01*
X3721667Y-21153667D01*
X3750238Y-21153667D01*
X3769286Y-21163190D01*
X3778809Y-21172714D01*
X3788333Y-21191762D01*
X3788333Y-21239381D01*
X3778809Y-21258429D01*
X3769286Y-21267952D01*
X3750238Y-21277476D01*
X3693095Y-21277476D01*
X3674048Y-21267952D01*
X3664524Y-21258429D01*
X3883571Y-21277476D02*
X3921667Y-21277476D01*
X3940714Y-21267952D01*
X3950238Y-21258429D01*
X3969286Y-21229857D01*
X3978809Y-21191762D01*
X3978809Y-21115571D01*
X3969286Y-21096524D01*
X3959762Y-21087000D01*
X3940714Y-21077476D01*
X3902619Y-21077476D01*
X3883571Y-21087000D01*
X3874048Y-21096524D01*
X3864524Y-21115571D01*
X3864524Y-21163190D01*
X3874048Y-21182238D01*
X3883571Y-21191762D01*
X3902619Y-21201286D01*
X3940714Y-21201286D01*
X3959762Y-21191762D01*
X3969286Y-21182238D01*
X3978809Y-21163190D01*
X4093095Y-21163190D02*
X4074048Y-21153667D01*
X4064524Y-21144143D01*
X4055000Y-21125095D01*
X4055000Y-21115571D01*
X4064524Y-21096524D01*
X4074048Y-21087000D01*
X4093095Y-21077476D01*
X4131190Y-21077476D01*
X4150238Y-21087000D01*
X4159762Y-21096524D01*
X4169286Y-21115571D01*
X4169286Y-21125095D01*
X4159762Y-21144143D01*
X4150238Y-21153667D01*
X4131190Y-21163190D01*
X4093095Y-21163190D01*
X4074048Y-21172714D01*
X4064524Y-21182238D01*
X4055000Y-21201286D01*
X4055000Y-21239381D01*
X4064524Y-21258429D01*
X4074048Y-21267952D01*
X4093095Y-21277476D01*
X4131190Y-21277476D01*
X4150238Y-21267952D01*
X4159762Y-21258429D01*
X4169286Y-21239381D01*
X4169286Y-21201286D01*
X4159762Y-21182238D01*
X4150238Y-21172714D01*
X4131190Y-21163190D01*
X4245476Y-21077476D02*
X4245476Y-21115571D01*
X4321667Y-21077476D02*
X4321667Y-21115571D01*
X4616905Y-21353667D02*
X4607381Y-21344143D01*
X4588333Y-21315571D01*
X4578810Y-21296524D01*
X4569286Y-21267952D01*
X4559762Y-21220333D01*
X4559762Y-21182238D01*
X4569286Y-21134619D01*
X4578810Y-21106048D01*
X4588333Y-21087000D01*
X4607381Y-21058429D01*
X4616905Y-21048905D01*
X4683571Y-21096524D02*
X4693095Y-21087000D01*
X4712143Y-21077476D01*
X4759762Y-21077476D01*
X4778810Y-21087000D01*
X4788333Y-21096524D01*
X4797857Y-21115571D01*
X4797857Y-21134619D01*
X4788333Y-21163190D01*
X4674048Y-21277476D01*
X4797857Y-21277476D01*
X5035952Y-21277476D02*
X5035952Y-21077476D01*
X5121667Y-21277476D02*
X5121667Y-21172714D01*
X5112143Y-21153667D01*
X5093095Y-21144143D01*
X5064524Y-21144143D01*
X5045476Y-21153667D01*
X5035952Y-21163190D01*
X5245476Y-21277476D02*
X5226429Y-21267952D01*
X5216905Y-21258429D01*
X5207381Y-21239381D01*
X5207381Y-21182238D01*
X5216905Y-21163190D01*
X5226429Y-21153667D01*
X5245476Y-21144143D01*
X5274048Y-21144143D01*
X5293095Y-21153667D01*
X5302619Y-21163190D01*
X5312143Y-21182238D01*
X5312143Y-21239381D01*
X5302619Y-21258429D01*
X5293095Y-21267952D01*
X5274048Y-21277476D01*
X5245476Y-21277476D01*
X5426429Y-21277476D02*
X5407381Y-21267952D01*
X5397857Y-21248905D01*
X5397857Y-21077476D01*
X5578810Y-21267952D02*
X5559762Y-21277476D01*
X5521667Y-21277476D01*
X5502619Y-21267952D01*
X5493095Y-21248905D01*
X5493095Y-21172714D01*
X5502619Y-21153667D01*
X5521667Y-21144143D01*
X5559762Y-21144143D01*
X5578810Y-21153667D01*
X5588333Y-21172714D01*
X5588333Y-21191762D01*
X5493095Y-21210810D01*
X5664524Y-21267952D02*
X5683571Y-21277476D01*
X5721667Y-21277476D01*
X5740714Y-21267952D01*
X5750238Y-21248905D01*
X5750238Y-21239381D01*
X5740714Y-21220333D01*
X5721667Y-21210810D01*
X5693095Y-21210810D01*
X5674048Y-21201286D01*
X5664524Y-21182238D01*
X5664524Y-21172714D01*
X5674048Y-21153667D01*
X5693095Y-21144143D01*
X5721667Y-21144143D01*
X5740714Y-21153667D01*
X5816905Y-21353667D02*
X5826428Y-21344143D01*
X5845476Y-21315571D01*
X5855000Y-21296524D01*
X5864524Y-21267952D01*
X5874048Y-21220333D01*
X5874048Y-21182238D01*
X5864524Y-21134619D01*
X5855000Y-21106048D01*
X5845476Y-21087000D01*
X5826428Y-21058429D01*
X5816905Y-21048905D01*
D16*
X980000Y-21516000D02*
X1045000Y-21451000D01*
X980000Y-21386000D01*
X915000Y-21451000D01*
X980000Y-21516000D01*
D11*
X1407381Y-21541476D02*
X1293095Y-21541476D01*
X1350238Y-21541476D02*
X1350238Y-21341476D01*
X1331190Y-21370048D01*
X1312143Y-21389095D01*
X1293095Y-21398619D01*
X1493095Y-21522429D02*
X1502619Y-21531952D01*
X1493095Y-21541476D01*
X1483571Y-21531952D01*
X1493095Y-21522429D01*
X1493095Y-21541476D01*
X1569286Y-21341476D02*
X1693095Y-21341476D01*
X1626428Y-21417667D01*
X1655000Y-21417667D01*
X1674048Y-21427190D01*
X1683571Y-21436714D01*
X1693095Y-21455762D01*
X1693095Y-21503381D01*
X1683571Y-21522429D01*
X1674048Y-21531952D01*
X1655000Y-21541476D01*
X1597857Y-21541476D01*
X1578809Y-21531952D01*
X1569286Y-21522429D01*
X1816905Y-21341476D02*
X1835952Y-21341476D01*
X1855000Y-21351000D01*
X1864524Y-21360524D01*
X1874048Y-21379571D01*
X1883571Y-21417667D01*
X1883571Y-21465286D01*
X1874048Y-21503381D01*
X1864524Y-21522429D01*
X1855000Y-21531952D01*
X1835952Y-21541476D01*
X1816905Y-21541476D01*
X1797857Y-21531952D01*
X1788333Y-21522429D01*
X1778809Y-21503381D01*
X1769286Y-21465286D01*
X1769286Y-21417667D01*
X1778809Y-21379571D01*
X1788333Y-21360524D01*
X1797857Y-21351000D01*
X1816905Y-21341476D01*
X2007381Y-21341476D02*
X2026428Y-21341476D01*
X2045476Y-21351000D01*
X2055000Y-21360524D01*
X2064524Y-21379571D01*
X2074048Y-21417667D01*
X2074048Y-21465286D01*
X2064524Y-21503381D01*
X2055000Y-21522429D01*
X2045476Y-21531952D01*
X2026428Y-21541476D01*
X2007381Y-21541476D01*
X1988333Y-21531952D01*
X1978809Y-21522429D01*
X1969286Y-21503381D01*
X1959762Y-21465286D01*
X1959762Y-21417667D01*
X1969286Y-21379571D01*
X1978809Y-21360524D01*
X1988333Y-21351000D01*
X2007381Y-21341476D01*
X2159762Y-21541476D02*
X2159762Y-21408143D01*
X2159762Y-21427190D02*
X2169286Y-21417667D01*
X2188333Y-21408143D01*
X2216905Y-21408143D01*
X2235952Y-21417667D01*
X2245476Y-21436714D01*
X2245476Y-21541476D01*
X2245476Y-21436714D02*
X2255000Y-21417667D01*
X2274048Y-21408143D01*
X2302619Y-21408143D01*
X2321667Y-21417667D01*
X2331190Y-21436714D01*
X2331190Y-21541476D01*
X2426429Y-21541476D02*
X2426429Y-21408143D01*
X2426429Y-21427190D02*
X2435952Y-21417667D01*
X2455000Y-21408143D01*
X2483571Y-21408143D01*
X2502619Y-21417667D01*
X2512143Y-21436714D01*
X2512143Y-21541476D01*
X2512143Y-21436714D02*
X2521667Y-21417667D01*
X2540714Y-21408143D01*
X2569286Y-21408143D01*
X2588333Y-21417667D01*
X2597857Y-21436714D01*
X2597857Y-21541476D01*
X2988333Y-21331952D02*
X2816905Y-21589095D01*
X3245476Y-21341476D02*
X3264524Y-21341476D01*
X3283571Y-21351000D01*
X3293095Y-21360524D01*
X3302619Y-21379571D01*
X3312143Y-21417667D01*
X3312143Y-21465286D01*
X3302619Y-21503381D01*
X3293095Y-21522429D01*
X3283571Y-21531952D01*
X3264524Y-21541476D01*
X3245476Y-21541476D01*
X3226428Y-21531952D01*
X3216905Y-21522429D01*
X3207381Y-21503381D01*
X3197857Y-21465286D01*
X3197857Y-21417667D01*
X3207381Y-21379571D01*
X3216905Y-21360524D01*
X3226428Y-21351000D01*
X3245476Y-21341476D01*
X3397857Y-21522429D02*
X3407381Y-21531952D01*
X3397857Y-21541476D01*
X3388333Y-21531952D01*
X3397857Y-21522429D01*
X3397857Y-21541476D01*
X3531190Y-21341476D02*
X3550238Y-21341476D01*
X3569286Y-21351000D01*
X3578809Y-21360524D01*
X3588333Y-21379571D01*
X3597857Y-21417667D01*
X3597857Y-21465286D01*
X3588333Y-21503381D01*
X3578809Y-21522429D01*
X3569286Y-21531952D01*
X3550238Y-21541476D01*
X3531190Y-21541476D01*
X3512143Y-21531952D01*
X3502619Y-21522429D01*
X3493095Y-21503381D01*
X3483571Y-21465286D01*
X3483571Y-21417667D01*
X3493095Y-21379571D01*
X3502619Y-21360524D01*
X3512143Y-21351000D01*
X3531190Y-21341476D01*
X3778809Y-21341476D02*
X3683571Y-21341476D01*
X3674048Y-21436714D01*
X3683571Y-21427190D01*
X3702619Y-21417667D01*
X3750238Y-21417667D01*
X3769286Y-21427190D01*
X3778809Y-21436714D01*
X3788333Y-21455762D01*
X3788333Y-21503381D01*
X3778809Y-21522429D01*
X3769286Y-21531952D01*
X3750238Y-21541476D01*
X3702619Y-21541476D01*
X3683571Y-21531952D01*
X3674048Y-21522429D01*
X3978809Y-21541476D02*
X3864524Y-21541476D01*
X3921667Y-21541476D02*
X3921667Y-21341476D01*
X3902619Y-21370048D01*
X3883571Y-21389095D01*
X3864524Y-21398619D01*
X4055000Y-21360524D02*
X4064524Y-21351000D01*
X4083571Y-21341476D01*
X4131190Y-21341476D01*
X4150238Y-21351000D01*
X4159762Y-21360524D01*
X4169286Y-21379571D01*
X4169286Y-21398619D01*
X4159762Y-21427190D01*
X4045476Y-21541476D01*
X4169286Y-21541476D01*
X4245476Y-21341476D02*
X4245476Y-21379571D01*
X4321667Y-21341476D02*
X4321667Y-21379571D01*
X4616905Y-21617667D02*
X4607381Y-21608143D01*
X4588333Y-21579571D01*
X4578810Y-21560524D01*
X4569286Y-21531952D01*
X4559762Y-21484333D01*
X4559762Y-21446238D01*
X4569286Y-21398619D01*
X4578810Y-21370048D01*
X4588333Y-21351000D01*
X4607381Y-21322429D01*
X4616905Y-21312905D01*
X4778810Y-21341476D02*
X4740714Y-21341476D01*
X4721667Y-21351000D01*
X4712143Y-21360524D01*
X4693095Y-21389095D01*
X4683571Y-21427190D01*
X4683571Y-21503381D01*
X4693095Y-21522429D01*
X4702619Y-21531952D01*
X4721667Y-21541476D01*
X4759762Y-21541476D01*
X4778810Y-21531952D01*
X4788333Y-21522429D01*
X4797857Y-21503381D01*
X4797857Y-21455762D01*
X4788333Y-21436714D01*
X4778810Y-21427190D01*
X4759762Y-21417667D01*
X4721667Y-21417667D01*
X4702619Y-21427190D01*
X4693095Y-21436714D01*
X4683571Y-21455762D01*
X5035952Y-21541476D02*
X5035952Y-21341476D01*
X5121667Y-21541476D02*
X5121667Y-21436714D01*
X5112143Y-21417667D01*
X5093095Y-21408143D01*
X5064524Y-21408143D01*
X5045476Y-21417667D01*
X5035952Y-21427190D01*
X5245476Y-21541476D02*
X5226429Y-21531952D01*
X5216905Y-21522429D01*
X5207381Y-21503381D01*
X5207381Y-21446238D01*
X5216905Y-21427190D01*
X5226429Y-21417667D01*
X5245476Y-21408143D01*
X5274048Y-21408143D01*
X5293095Y-21417667D01*
X5302619Y-21427190D01*
X5312143Y-21446238D01*
X5312143Y-21503381D01*
X5302619Y-21522429D01*
X5293095Y-21531952D01*
X5274048Y-21541476D01*
X5245476Y-21541476D01*
X5426429Y-21541476D02*
X5407381Y-21531952D01*
X5397857Y-21512905D01*
X5397857Y-21341476D01*
X5578810Y-21531952D02*
X5559762Y-21541476D01*
X5521667Y-21541476D01*
X5502619Y-21531952D01*
X5493095Y-21512905D01*
X5493095Y-21436714D01*
X5502619Y-21417667D01*
X5521667Y-21408143D01*
X5559762Y-21408143D01*
X5578810Y-21417667D01*
X5588333Y-21436714D01*
X5588333Y-21455762D01*
X5493095Y-21474810D01*
X5664524Y-21531952D02*
X5683571Y-21541476D01*
X5721667Y-21541476D01*
X5740714Y-21531952D01*
X5750238Y-21512905D01*
X5750238Y-21503381D01*
X5740714Y-21484333D01*
X5721667Y-21474810D01*
X5693095Y-21474810D01*
X5674048Y-21465286D01*
X5664524Y-21446238D01*
X5664524Y-21436714D01*
X5674048Y-21417667D01*
X5693095Y-21408143D01*
X5721667Y-21408143D01*
X5740714Y-21417667D01*
X5816905Y-21617667D02*
X5826428Y-21608143D01*
X5845476Y-21579571D01*
X5855000Y-21560524D01*
X5864524Y-21531952D01*
X5874048Y-21484333D01*
X5874048Y-21446238D01*
X5864524Y-21398619D01*
X5855000Y-21370048D01*
X5845476Y-21351000D01*
X5826428Y-21322429D01*
X5816905Y-21312905D01*
D17*
X895000Y-21640000D02*
X1045000Y-21790000D01*
X1045000Y-21640000D02*
X895000Y-21790000D01*
X1045000Y-21715000D02*
G75*
G03*
X1045000Y-21715000I-75000J0D01*
G01*
D11*
X1407381Y-21805476D02*
X1293095Y-21805476D01*
X1350238Y-21805476D02*
X1350238Y-21605476D01*
X1331190Y-21634048D01*
X1312143Y-21653095D01*
X1293095Y-21662619D01*
X1493095Y-21786429D02*
X1502619Y-21795952D01*
X1493095Y-21805476D01*
X1483571Y-21795952D01*
X1493095Y-21786429D01*
X1493095Y-21805476D01*
X1683571Y-21605476D02*
X1588333Y-21605476D01*
X1578809Y-21700714D01*
X1588333Y-21691190D01*
X1607381Y-21681667D01*
X1655000Y-21681667D01*
X1674048Y-21691190D01*
X1683571Y-21700714D01*
X1693095Y-21719762D01*
X1693095Y-21767381D01*
X1683571Y-21786429D01*
X1674048Y-21795952D01*
X1655000Y-21805476D01*
X1607381Y-21805476D01*
X1588333Y-21795952D01*
X1578809Y-21786429D01*
X1816905Y-21605476D02*
X1835952Y-21605476D01*
X1855000Y-21615000D01*
X1864524Y-21624524D01*
X1874048Y-21643571D01*
X1883571Y-21681667D01*
X1883571Y-21729286D01*
X1874048Y-21767381D01*
X1864524Y-21786429D01*
X1855000Y-21795952D01*
X1835952Y-21805476D01*
X1816905Y-21805476D01*
X1797857Y-21795952D01*
X1788333Y-21786429D01*
X1778809Y-21767381D01*
X1769286Y-21729286D01*
X1769286Y-21681667D01*
X1778809Y-21643571D01*
X1788333Y-21624524D01*
X1797857Y-21615000D01*
X1816905Y-21605476D01*
X2007381Y-21605476D02*
X2026428Y-21605476D01*
X2045476Y-21615000D01*
X2055000Y-21624524D01*
X2064524Y-21643571D01*
X2074048Y-21681667D01*
X2074048Y-21729286D01*
X2064524Y-21767381D01*
X2055000Y-21786429D01*
X2045476Y-21795952D01*
X2026428Y-21805476D01*
X2007381Y-21805476D01*
X1988333Y-21795952D01*
X1978809Y-21786429D01*
X1969286Y-21767381D01*
X1959762Y-21729286D01*
X1959762Y-21681667D01*
X1969286Y-21643571D01*
X1978809Y-21624524D01*
X1988333Y-21615000D01*
X2007381Y-21605476D01*
X2159762Y-21805476D02*
X2159762Y-21672143D01*
X2159762Y-21691190D02*
X2169286Y-21681667D01*
X2188333Y-21672143D01*
X2216905Y-21672143D01*
X2235952Y-21681667D01*
X2245476Y-21700714D01*
X2245476Y-21805476D01*
X2245476Y-21700714D02*
X2255000Y-21681667D01*
X2274048Y-21672143D01*
X2302619Y-21672143D01*
X2321667Y-21681667D01*
X2331190Y-21700714D01*
X2331190Y-21805476D01*
X2426429Y-21805476D02*
X2426429Y-21672143D01*
X2426429Y-21691190D02*
X2435952Y-21681667D01*
X2455000Y-21672143D01*
X2483571Y-21672143D01*
X2502619Y-21681667D01*
X2512143Y-21700714D01*
X2512143Y-21805476D01*
X2512143Y-21700714D02*
X2521667Y-21681667D01*
X2540714Y-21672143D01*
X2569286Y-21672143D01*
X2588333Y-21681667D01*
X2597857Y-21700714D01*
X2597857Y-21805476D01*
X2988333Y-21595952D02*
X2816905Y-21853095D01*
X3245476Y-21605476D02*
X3264524Y-21605476D01*
X3283571Y-21615000D01*
X3293095Y-21624524D01*
X3302619Y-21643571D01*
X3312143Y-21681667D01*
X3312143Y-21729286D01*
X3302619Y-21767381D01*
X3293095Y-21786429D01*
X3283571Y-21795952D01*
X3264524Y-21805476D01*
X3245476Y-21805476D01*
X3226428Y-21795952D01*
X3216905Y-21786429D01*
X3207381Y-21767381D01*
X3197857Y-21729286D01*
X3197857Y-21681667D01*
X3207381Y-21643571D01*
X3216905Y-21624524D01*
X3226428Y-21615000D01*
X3245476Y-21605476D01*
X3397857Y-21786429D02*
X3407381Y-21795952D01*
X3397857Y-21805476D01*
X3388333Y-21795952D01*
X3397857Y-21786429D01*
X3397857Y-21805476D01*
X3531190Y-21605476D02*
X3550238Y-21605476D01*
X3569286Y-21615000D01*
X3578809Y-21624524D01*
X3588333Y-21643571D01*
X3597857Y-21681667D01*
X3597857Y-21729286D01*
X3588333Y-21767381D01*
X3578809Y-21786429D01*
X3569286Y-21795952D01*
X3550238Y-21805476D01*
X3531190Y-21805476D01*
X3512143Y-21795952D01*
X3502619Y-21786429D01*
X3493095Y-21767381D01*
X3483571Y-21729286D01*
X3483571Y-21681667D01*
X3493095Y-21643571D01*
X3502619Y-21624524D01*
X3512143Y-21615000D01*
X3531190Y-21605476D01*
X3778809Y-21605476D02*
X3683571Y-21605476D01*
X3674048Y-21700714D01*
X3683571Y-21691190D01*
X3702619Y-21681667D01*
X3750238Y-21681667D01*
X3769286Y-21691190D01*
X3778809Y-21700714D01*
X3788333Y-21719762D01*
X3788333Y-21767381D01*
X3778809Y-21786429D01*
X3769286Y-21795952D01*
X3750238Y-21805476D01*
X3702619Y-21805476D01*
X3683571Y-21795952D01*
X3674048Y-21786429D01*
X3883571Y-21805476D02*
X3921667Y-21805476D01*
X3940714Y-21795952D01*
X3950238Y-21786429D01*
X3969286Y-21757857D01*
X3978809Y-21719762D01*
X3978809Y-21643571D01*
X3969286Y-21624524D01*
X3959762Y-21615000D01*
X3940714Y-21605476D01*
X3902619Y-21605476D01*
X3883571Y-21615000D01*
X3874048Y-21624524D01*
X3864524Y-21643571D01*
X3864524Y-21691190D01*
X3874048Y-21710238D01*
X3883571Y-21719762D01*
X3902619Y-21729286D01*
X3940714Y-21729286D01*
X3959762Y-21719762D01*
X3969286Y-21710238D01*
X3978809Y-21691190D01*
X4169286Y-21805476D02*
X4055000Y-21805476D01*
X4112143Y-21805476D02*
X4112143Y-21605476D01*
X4093095Y-21634048D01*
X4074048Y-21653095D01*
X4055000Y-21662619D01*
X4245476Y-21605476D02*
X4245476Y-21643571D01*
X4321667Y-21605476D02*
X4321667Y-21643571D01*
X4616905Y-21881667D02*
X4607381Y-21872143D01*
X4588333Y-21843571D01*
X4578810Y-21824524D01*
X4569286Y-21795952D01*
X4559762Y-21748333D01*
X4559762Y-21710238D01*
X4569286Y-21662619D01*
X4578810Y-21634048D01*
X4588333Y-21615000D01*
X4607381Y-21586429D01*
X4616905Y-21576905D01*
X4797857Y-21805476D02*
X4683571Y-21805476D01*
X4740714Y-21805476D02*
X4740714Y-21605476D01*
X4721667Y-21634048D01*
X4702619Y-21653095D01*
X4683571Y-21662619D01*
X4978810Y-21605476D02*
X4883571Y-21605476D01*
X4874048Y-21700714D01*
X4883571Y-21691190D01*
X4902619Y-21681667D01*
X4950238Y-21681667D01*
X4969286Y-21691190D01*
X4978810Y-21700714D01*
X4988333Y-21719762D01*
X4988333Y-21767381D01*
X4978810Y-21786429D01*
X4969286Y-21795952D01*
X4950238Y-21805476D01*
X4902619Y-21805476D01*
X4883571Y-21795952D01*
X4874048Y-21786429D01*
X5226429Y-21805476D02*
X5226429Y-21605476D01*
X5312143Y-21805476D02*
X5312143Y-21700714D01*
X5302619Y-21681667D01*
X5283571Y-21672143D01*
X5255000Y-21672143D01*
X5235952Y-21681667D01*
X5226429Y-21691190D01*
X5435952Y-21805476D02*
X5416905Y-21795952D01*
X5407381Y-21786429D01*
X5397857Y-21767381D01*
X5397857Y-21710238D01*
X5407381Y-21691190D01*
X5416905Y-21681667D01*
X5435952Y-21672143D01*
X5464524Y-21672143D01*
X5483571Y-21681667D01*
X5493095Y-21691190D01*
X5502619Y-21710238D01*
X5502619Y-21767381D01*
X5493095Y-21786429D01*
X5483571Y-21795952D01*
X5464524Y-21805476D01*
X5435952Y-21805476D01*
X5616905Y-21805476D02*
X5597857Y-21795952D01*
X5588333Y-21776905D01*
X5588333Y-21605476D01*
X5769286Y-21795952D02*
X5750238Y-21805476D01*
X5712143Y-21805476D01*
X5693095Y-21795952D01*
X5683571Y-21776905D01*
X5683571Y-21700714D01*
X5693095Y-21681667D01*
X5712143Y-21672143D01*
X5750238Y-21672143D01*
X5769286Y-21681667D01*
X5778809Y-21700714D01*
X5778809Y-21719762D01*
X5683571Y-21738810D01*
X5855000Y-21795952D02*
X5874048Y-21805476D01*
X5912143Y-21805476D01*
X5931190Y-21795952D01*
X5940714Y-21776905D01*
X5940714Y-21767381D01*
X5931190Y-21748333D01*
X5912143Y-21738810D01*
X5883571Y-21738810D01*
X5864524Y-21729286D01*
X5855000Y-21710238D01*
X5855000Y-21700714D01*
X5864524Y-21681667D01*
X5883571Y-21672143D01*
X5912143Y-21672143D01*
X5931190Y-21681667D01*
X6007381Y-21881667D02*
X6016905Y-21872143D01*
X6035952Y-21843571D01*
X6045476Y-21824524D01*
X6055000Y-21795952D01*
X6064524Y-21748333D01*
X6064524Y-21710238D01*
X6055000Y-21662619D01*
X6045476Y-21634048D01*
X6035952Y-21615000D01*
X6016905Y-21586429D01*
X6007381Y-21576905D01*
D18*
X885000Y-21905000D02*
X1045000Y-22065000D01*
X1045000Y-21905000D02*
X885000Y-22065000D01*
X965000Y-21905000D02*
X965000Y-22065000D01*
X885000Y-21985000D02*
X1045000Y-21985000D01*
D11*
X1407381Y-22075476D02*
X1293095Y-22075476D01*
X1350238Y-22075476D02*
X1350238Y-21875476D01*
X1331190Y-21904048D01*
X1312143Y-21923095D01*
X1293095Y-21932619D01*
X1493095Y-22056429D02*
X1502619Y-22065952D01*
X1493095Y-22075476D01*
X1483571Y-22065952D01*
X1493095Y-22056429D01*
X1493095Y-22075476D01*
X1674048Y-21875476D02*
X1635952Y-21875476D01*
X1616905Y-21885000D01*
X1607381Y-21894524D01*
X1588333Y-21923095D01*
X1578809Y-21961190D01*
X1578809Y-22037381D01*
X1588333Y-22056429D01*
X1597857Y-22065952D01*
X1616905Y-22075476D01*
X1655000Y-22075476D01*
X1674048Y-22065952D01*
X1683571Y-22056429D01*
X1693095Y-22037381D01*
X1693095Y-21989762D01*
X1683571Y-21970714D01*
X1674048Y-21961190D01*
X1655000Y-21951667D01*
X1616905Y-21951667D01*
X1597857Y-21961190D01*
X1588333Y-21970714D01*
X1578809Y-21989762D01*
X1816905Y-21875476D02*
X1835952Y-21875476D01*
X1855000Y-21885000D01*
X1864524Y-21894524D01*
X1874048Y-21913571D01*
X1883571Y-21951667D01*
X1883571Y-21999286D01*
X1874048Y-22037381D01*
X1864524Y-22056429D01*
X1855000Y-22065952D01*
X1835952Y-22075476D01*
X1816905Y-22075476D01*
X1797857Y-22065952D01*
X1788333Y-22056429D01*
X1778809Y-22037381D01*
X1769286Y-21999286D01*
X1769286Y-21951667D01*
X1778809Y-21913571D01*
X1788333Y-21894524D01*
X1797857Y-21885000D01*
X1816905Y-21875476D01*
X2007381Y-21875476D02*
X2026428Y-21875476D01*
X2045476Y-21885000D01*
X2055000Y-21894524D01*
X2064524Y-21913571D01*
X2074048Y-21951667D01*
X2074048Y-21999286D01*
X2064524Y-22037381D01*
X2055000Y-22056429D01*
X2045476Y-22065952D01*
X2026428Y-22075476D01*
X2007381Y-22075476D01*
X1988333Y-22065952D01*
X1978809Y-22056429D01*
X1969286Y-22037381D01*
X1959762Y-21999286D01*
X1959762Y-21951667D01*
X1969286Y-21913571D01*
X1978809Y-21894524D01*
X1988333Y-21885000D01*
X2007381Y-21875476D01*
X2159762Y-22075476D02*
X2159762Y-21942143D01*
X2159762Y-21961190D02*
X2169286Y-21951667D01*
X2188333Y-21942143D01*
X2216905Y-21942143D01*
X2235952Y-21951667D01*
X2245476Y-21970714D01*
X2245476Y-22075476D01*
X2245476Y-21970714D02*
X2255000Y-21951667D01*
X2274048Y-21942143D01*
X2302619Y-21942143D01*
X2321667Y-21951667D01*
X2331190Y-21970714D01*
X2331190Y-22075476D01*
X2426429Y-22075476D02*
X2426429Y-21942143D01*
X2426429Y-21961190D02*
X2435952Y-21951667D01*
X2455000Y-21942143D01*
X2483571Y-21942143D01*
X2502619Y-21951667D01*
X2512143Y-21970714D01*
X2512143Y-22075476D01*
X2512143Y-21970714D02*
X2521667Y-21951667D01*
X2540714Y-21942143D01*
X2569286Y-21942143D01*
X2588333Y-21951667D01*
X2597857Y-21970714D01*
X2597857Y-22075476D01*
X2988333Y-21865952D02*
X2816905Y-22123095D01*
X3245476Y-21875476D02*
X3264524Y-21875476D01*
X3283571Y-21885000D01*
X3293095Y-21894524D01*
X3302619Y-21913571D01*
X3312143Y-21951667D01*
X3312143Y-21999286D01*
X3302619Y-22037381D01*
X3293095Y-22056429D01*
X3283571Y-22065952D01*
X3264524Y-22075476D01*
X3245476Y-22075476D01*
X3226428Y-22065952D01*
X3216905Y-22056429D01*
X3207381Y-22037381D01*
X3197857Y-21999286D01*
X3197857Y-21951667D01*
X3207381Y-21913571D01*
X3216905Y-21894524D01*
X3226428Y-21885000D01*
X3245476Y-21875476D01*
X3397857Y-22056429D02*
X3407381Y-22065952D01*
X3397857Y-22075476D01*
X3388333Y-22065952D01*
X3397857Y-22056429D01*
X3397857Y-22075476D01*
X3531190Y-21875476D02*
X3550238Y-21875476D01*
X3569286Y-21885000D01*
X3578809Y-21894524D01*
X3588333Y-21913571D01*
X3597857Y-21951667D01*
X3597857Y-21999286D01*
X3588333Y-22037381D01*
X3578809Y-22056429D01*
X3569286Y-22065952D01*
X3550238Y-22075476D01*
X3531190Y-22075476D01*
X3512143Y-22065952D01*
X3502619Y-22056429D01*
X3493095Y-22037381D01*
X3483571Y-21999286D01*
X3483571Y-21951667D01*
X3493095Y-21913571D01*
X3502619Y-21894524D01*
X3512143Y-21885000D01*
X3531190Y-21875476D01*
X3769286Y-21875476D02*
X3731190Y-21875476D01*
X3712143Y-21885000D01*
X3702619Y-21894524D01*
X3683571Y-21923095D01*
X3674048Y-21961190D01*
X3674048Y-22037381D01*
X3683571Y-22056429D01*
X3693095Y-22065952D01*
X3712143Y-22075476D01*
X3750238Y-22075476D01*
X3769286Y-22065952D01*
X3778809Y-22056429D01*
X3788333Y-22037381D01*
X3788333Y-21989762D01*
X3778809Y-21970714D01*
X3769286Y-21961190D01*
X3750238Y-21951667D01*
X3712143Y-21951667D01*
X3693095Y-21961190D01*
X3683571Y-21970714D01*
X3674048Y-21989762D01*
X3855000Y-21875476D02*
X3978809Y-21875476D01*
X3912143Y-21951667D01*
X3940714Y-21951667D01*
X3959762Y-21961190D01*
X3969286Y-21970714D01*
X3978809Y-21989762D01*
X3978809Y-22037381D01*
X3969286Y-22056429D01*
X3959762Y-22065952D01*
X3940714Y-22075476D01*
X3883571Y-22075476D01*
X3864524Y-22065952D01*
X3855000Y-22056429D01*
X4102619Y-21875476D02*
X4121667Y-21875476D01*
X4140714Y-21885000D01*
X4150238Y-21894524D01*
X4159762Y-21913571D01*
X4169286Y-21951667D01*
X4169286Y-21999286D01*
X4159762Y-22037381D01*
X4150238Y-22056429D01*
X4140714Y-22065952D01*
X4121667Y-22075476D01*
X4102619Y-22075476D01*
X4083571Y-22065952D01*
X4074048Y-22056429D01*
X4064524Y-22037381D01*
X4055000Y-21999286D01*
X4055000Y-21951667D01*
X4064524Y-21913571D01*
X4074048Y-21894524D01*
X4083571Y-21885000D01*
X4102619Y-21875476D01*
X4245476Y-21875476D02*
X4245476Y-21913571D01*
X4321667Y-21875476D02*
X4321667Y-21913571D01*
X4616905Y-22151667D02*
X4607381Y-22142143D01*
X4588333Y-22113571D01*
X4578810Y-22094524D01*
X4569286Y-22065952D01*
X4559762Y-22018333D01*
X4559762Y-21980238D01*
X4569286Y-21932619D01*
X4578810Y-21904048D01*
X4588333Y-21885000D01*
X4607381Y-21856429D01*
X4616905Y-21846905D01*
X4797857Y-22075476D02*
X4683571Y-22075476D01*
X4740714Y-22075476D02*
X4740714Y-21875476D01*
X4721667Y-21904048D01*
X4702619Y-21923095D01*
X4683571Y-21932619D01*
X4874048Y-21894524D02*
X4883571Y-21885000D01*
X4902619Y-21875476D01*
X4950238Y-21875476D01*
X4969286Y-21885000D01*
X4978810Y-21894524D01*
X4988333Y-21913571D01*
X4988333Y-21932619D01*
X4978810Y-21961190D01*
X4864524Y-22075476D01*
X4988333Y-22075476D01*
X5226429Y-22075476D02*
X5226429Y-21875476D01*
X5312143Y-22075476D02*
X5312143Y-21970714D01*
X5302619Y-21951667D01*
X5283571Y-21942143D01*
X5255000Y-21942143D01*
X5235952Y-21951667D01*
X5226429Y-21961190D01*
X5435952Y-22075476D02*
X5416905Y-22065952D01*
X5407381Y-22056429D01*
X5397857Y-22037381D01*
X5397857Y-21980238D01*
X5407381Y-21961190D01*
X5416905Y-21951667D01*
X5435952Y-21942143D01*
X5464524Y-21942143D01*
X5483571Y-21951667D01*
X5493095Y-21961190D01*
X5502619Y-21980238D01*
X5502619Y-22037381D01*
X5493095Y-22056429D01*
X5483571Y-22065952D01*
X5464524Y-22075476D01*
X5435952Y-22075476D01*
X5616905Y-22075476D02*
X5597857Y-22065952D01*
X5588333Y-22046905D01*
X5588333Y-21875476D01*
X5769286Y-22065952D02*
X5750238Y-22075476D01*
X5712143Y-22075476D01*
X5693095Y-22065952D01*
X5683571Y-22046905D01*
X5683571Y-21970714D01*
X5693095Y-21951667D01*
X5712143Y-21942143D01*
X5750238Y-21942143D01*
X5769286Y-21951667D01*
X5778809Y-21970714D01*
X5778809Y-21989762D01*
X5683571Y-22008810D01*
X5855000Y-22065952D02*
X5874048Y-22075476D01*
X5912143Y-22075476D01*
X5931190Y-22065952D01*
X5940714Y-22046905D01*
X5940714Y-22037381D01*
X5931190Y-22018333D01*
X5912143Y-22008810D01*
X5883571Y-22008810D01*
X5864524Y-21999286D01*
X5855000Y-21980238D01*
X5855000Y-21970714D01*
X5864524Y-21951667D01*
X5883571Y-21942143D01*
X5912143Y-21942143D01*
X5931190Y-21951667D01*
X6007381Y-22151667D02*
X6016905Y-22142143D01*
X6035952Y-22113571D01*
X6045476Y-22094524D01*
X6055000Y-22065952D01*
X6064524Y-22018333D01*
X6064524Y-21980238D01*
X6055000Y-21932619D01*
X6045476Y-21904048D01*
X6035952Y-21885000D01*
X6016905Y-21856429D01*
X6007381Y-21846905D01*
X845000Y-22165000D02*
X1045000Y-22365000D01*
X1045000Y-22165000D02*
X845000Y-22365000D01*
X1015711Y-22335711D02*
X1015711Y-22194289D01*
X874289Y-22194289D01*
X874289Y-22335711D01*
X1015711Y-22335711D01*
X1283571Y-22155476D02*
X1407381Y-22155476D01*
X1340714Y-22231667D01*
X1369286Y-22231667D01*
X1388333Y-22241190D01*
X1397857Y-22250714D01*
X1407381Y-22269762D01*
X1407381Y-22317381D01*
X1397857Y-22336429D01*
X1388333Y-22345952D01*
X1369286Y-22355476D01*
X1312143Y-22355476D01*
X1293095Y-22345952D01*
X1283571Y-22336429D01*
X1493095Y-22336429D02*
X1502619Y-22345952D01*
X1493095Y-22355476D01*
X1483571Y-22345952D01*
X1493095Y-22336429D01*
X1493095Y-22355476D01*
X1578809Y-22174524D02*
X1588333Y-22165000D01*
X1607381Y-22155476D01*
X1655000Y-22155476D01*
X1674048Y-22165000D01*
X1683571Y-22174524D01*
X1693095Y-22193571D01*
X1693095Y-22212619D01*
X1683571Y-22241190D01*
X1569286Y-22355476D01*
X1693095Y-22355476D01*
X1816905Y-22155476D02*
X1835952Y-22155476D01*
X1855000Y-22165000D01*
X1864524Y-22174524D01*
X1874048Y-22193571D01*
X1883571Y-22231667D01*
X1883571Y-22279286D01*
X1874048Y-22317381D01*
X1864524Y-22336429D01*
X1855000Y-22345952D01*
X1835952Y-22355476D01*
X1816905Y-22355476D01*
X1797857Y-22345952D01*
X1788333Y-22336429D01*
X1778809Y-22317381D01*
X1769286Y-22279286D01*
X1769286Y-22231667D01*
X1778809Y-22193571D01*
X1788333Y-22174524D01*
X1797857Y-22165000D01*
X1816905Y-22155476D01*
X2007381Y-22155476D02*
X2026428Y-22155476D01*
X2045476Y-22165000D01*
X2055000Y-22174524D01*
X2064524Y-22193571D01*
X2074048Y-22231667D01*
X2074048Y-22279286D01*
X2064524Y-22317381D01*
X2055000Y-22336429D01*
X2045476Y-22345952D01*
X2026428Y-22355476D01*
X2007381Y-22355476D01*
X1988333Y-22345952D01*
X1978809Y-22336429D01*
X1969286Y-22317381D01*
X1959762Y-22279286D01*
X1959762Y-22231667D01*
X1969286Y-22193571D01*
X1978809Y-22174524D01*
X1988333Y-22165000D01*
X2007381Y-22155476D01*
X2159762Y-22355476D02*
X2159762Y-22222143D01*
X2159762Y-22241190D02*
X2169286Y-22231667D01*
X2188333Y-22222143D01*
X2216905Y-22222143D01*
X2235952Y-22231667D01*
X2245476Y-22250714D01*
X2245476Y-22355476D01*
X2245476Y-22250714D02*
X2255000Y-22231667D01*
X2274048Y-22222143D01*
X2302619Y-22222143D01*
X2321667Y-22231667D01*
X2331190Y-22250714D01*
X2331190Y-22355476D01*
X2426429Y-22355476D02*
X2426429Y-22222143D01*
X2426429Y-22241190D02*
X2435952Y-22231667D01*
X2455000Y-22222143D01*
X2483571Y-22222143D01*
X2502619Y-22231667D01*
X2512143Y-22250714D01*
X2512143Y-22355476D01*
X2512143Y-22250714D02*
X2521667Y-22231667D01*
X2540714Y-22222143D01*
X2569286Y-22222143D01*
X2588333Y-22231667D01*
X2597857Y-22250714D01*
X2597857Y-22355476D01*
X2988333Y-22145952D02*
X2816905Y-22403095D01*
X3245476Y-22155476D02*
X3264524Y-22155476D01*
X3283571Y-22165000D01*
X3293095Y-22174524D01*
X3302619Y-22193571D01*
X3312143Y-22231667D01*
X3312143Y-22279286D01*
X3302619Y-22317381D01*
X3293095Y-22336429D01*
X3283571Y-22345952D01*
X3264524Y-22355476D01*
X3245476Y-22355476D01*
X3226428Y-22345952D01*
X3216905Y-22336429D01*
X3207381Y-22317381D01*
X3197857Y-22279286D01*
X3197857Y-22231667D01*
X3207381Y-22193571D01*
X3216905Y-22174524D01*
X3226428Y-22165000D01*
X3245476Y-22155476D01*
X3397857Y-22336429D02*
X3407381Y-22345952D01*
X3397857Y-22355476D01*
X3388333Y-22345952D01*
X3397857Y-22336429D01*
X3397857Y-22355476D01*
X3597857Y-22355476D02*
X3483571Y-22355476D01*
X3540714Y-22355476D02*
X3540714Y-22155476D01*
X3521667Y-22184048D01*
X3502619Y-22203095D01*
X3483571Y-22212619D01*
X3674048Y-22174524D02*
X3683571Y-22165000D01*
X3702619Y-22155476D01*
X3750238Y-22155476D01*
X3769286Y-22165000D01*
X3778809Y-22174524D01*
X3788333Y-22193571D01*
X3788333Y-22212619D01*
X3778809Y-22241190D01*
X3664524Y-22355476D01*
X3788333Y-22355476D01*
X3959762Y-22155476D02*
X3921667Y-22155476D01*
X3902619Y-22165000D01*
X3893095Y-22174524D01*
X3874048Y-22203095D01*
X3864524Y-22241190D01*
X3864524Y-22317381D01*
X3874048Y-22336429D01*
X3883571Y-22345952D01*
X3902619Y-22355476D01*
X3940714Y-22355476D01*
X3959762Y-22345952D01*
X3969286Y-22336429D01*
X3978809Y-22317381D01*
X3978809Y-22269762D01*
X3969286Y-22250714D01*
X3959762Y-22241190D01*
X3940714Y-22231667D01*
X3902619Y-22231667D01*
X3883571Y-22241190D01*
X3874048Y-22250714D01*
X3864524Y-22269762D01*
X4102619Y-22155476D02*
X4121667Y-22155476D01*
X4140714Y-22165000D01*
X4150238Y-22174524D01*
X4159762Y-22193571D01*
X4169286Y-22231667D01*
X4169286Y-22279286D01*
X4159762Y-22317381D01*
X4150238Y-22336429D01*
X4140714Y-22345952D01*
X4121667Y-22355476D01*
X4102619Y-22355476D01*
X4083571Y-22345952D01*
X4074048Y-22336429D01*
X4064524Y-22317381D01*
X4055000Y-22279286D01*
X4055000Y-22231667D01*
X4064524Y-22193571D01*
X4074048Y-22174524D01*
X4083571Y-22165000D01*
X4102619Y-22155476D01*
X4245476Y-22155476D02*
X4245476Y-22193571D01*
X4321667Y-22155476D02*
X4321667Y-22193571D01*
X4616905Y-22431667D02*
X4607381Y-22422143D01*
X4588333Y-22393571D01*
X4578810Y-22374524D01*
X4569286Y-22345952D01*
X4559762Y-22298333D01*
X4559762Y-22260238D01*
X4569286Y-22212619D01*
X4578810Y-22184048D01*
X4588333Y-22165000D01*
X4607381Y-22136429D01*
X4616905Y-22126905D01*
X4683571Y-22174524D02*
X4693095Y-22165000D01*
X4712143Y-22155476D01*
X4759762Y-22155476D01*
X4778810Y-22165000D01*
X4788333Y-22174524D01*
X4797857Y-22193571D01*
X4797857Y-22212619D01*
X4788333Y-22241190D01*
X4674048Y-22355476D01*
X4797857Y-22355476D01*
X4969286Y-22155476D02*
X4931190Y-22155476D01*
X4912143Y-22165000D01*
X4902619Y-22174524D01*
X4883571Y-22203095D01*
X4874048Y-22241190D01*
X4874048Y-22317381D01*
X4883571Y-22336429D01*
X4893095Y-22345952D01*
X4912143Y-22355476D01*
X4950238Y-22355476D01*
X4969286Y-22345952D01*
X4978810Y-22336429D01*
X4988333Y-22317381D01*
X4988333Y-22269762D01*
X4978810Y-22250714D01*
X4969286Y-22241190D01*
X4950238Y-22231667D01*
X4912143Y-22231667D01*
X4893095Y-22241190D01*
X4883571Y-22250714D01*
X4874048Y-22269762D01*
X5226429Y-22355476D02*
X5226429Y-22155476D01*
X5312143Y-22355476D02*
X5312143Y-22250714D01*
X5302619Y-22231667D01*
X5283571Y-22222143D01*
X5255000Y-22222143D01*
X5235952Y-22231667D01*
X5226429Y-22241190D01*
X5435952Y-22355476D02*
X5416905Y-22345952D01*
X5407381Y-22336429D01*
X5397857Y-22317381D01*
X5397857Y-22260238D01*
X5407381Y-22241190D01*
X5416905Y-22231667D01*
X5435952Y-22222143D01*
X5464524Y-22222143D01*
X5483571Y-22231667D01*
X5493095Y-22241190D01*
X5502619Y-22260238D01*
X5502619Y-22317381D01*
X5493095Y-22336429D01*
X5483571Y-22345952D01*
X5464524Y-22355476D01*
X5435952Y-22355476D01*
X5616905Y-22355476D02*
X5597857Y-22345952D01*
X5588333Y-22326905D01*
X5588333Y-22155476D01*
X5769286Y-22345952D02*
X5750238Y-22355476D01*
X5712143Y-22355476D01*
X5693095Y-22345952D01*
X5683571Y-22326905D01*
X5683571Y-22250714D01*
X5693095Y-22231667D01*
X5712143Y-22222143D01*
X5750238Y-22222143D01*
X5769286Y-22231667D01*
X5778809Y-22250714D01*
X5778809Y-22269762D01*
X5683571Y-22288810D01*
X5855000Y-22345952D02*
X5874048Y-22355476D01*
X5912143Y-22355476D01*
X5931190Y-22345952D01*
X5940714Y-22326905D01*
X5940714Y-22317381D01*
X5931190Y-22298333D01*
X5912143Y-22288810D01*
X5883571Y-22288810D01*
X5864524Y-22279286D01*
X5855000Y-22260238D01*
X5855000Y-22250714D01*
X5864524Y-22231667D01*
X5883571Y-22222143D01*
X5912143Y-22222143D01*
X5931190Y-22231667D01*
X6007381Y-22431667D02*
X6016905Y-22422143D01*
X6035952Y-22393571D01*
X6045476Y-22374524D01*
X6055000Y-22345952D01*
X6064524Y-22298333D01*
X6064524Y-22260238D01*
X6055000Y-22212619D01*
X6045476Y-22184048D01*
X6035952Y-22165000D01*
X6016905Y-22136429D01*
X6007381Y-22126905D01*
M02*
