G04 #@! TF.GenerationSoftware,KiCad,Pcbnew,(6.0.1)*
G04 #@! TF.CreationDate,2023-03-04T18:11:18-05:00*
G04 #@! TF.ProjectId,InterfaceModule,496e7465-7266-4616-9365-4d6f64756c65,rev?*
G04 #@! TF.SameCoordinates,Original*
G04 #@! TF.FileFunction,Soldermask,Top*
G04 #@! TF.FilePolarity,Negative*
%FSLAX46Y46*%
G04 Gerber Fmt 4.6, Leading zero omitted, Abs format (unit mm)*
G04 Created by KiCad (PCBNEW (6.0.1)) date 2023-03-04 18:11:18*
%MOMM*%
%LPD*%
G01*
G04 APERTURE LIST*
G04 Aperture macros list*
%AMRoundRect*
0 Rectangle with rounded corners*
0 $1 Rounding radius*
0 $2 $3 $4 $5 $6 $7 $8 $9 X,Y pos of 4 corners*
0 Add a 4 corners polygon primitive as box body*
4,1,4,$2,$3,$4,$5,$6,$7,$8,$9,$2,$3,0*
0 Add four circle primitives for the rounded corners*
1,1,$1+$1,$2,$3*
1,1,$1+$1,$4,$5*
1,1,$1+$1,$6,$7*
1,1,$1+$1,$8,$9*
0 Add four rect primitives between the rounded corners*
20,1,$1+$1,$2,$3,$4,$5,0*
20,1,$1+$1,$4,$5,$6,$7,0*
20,1,$1+$1,$6,$7,$8,$9,0*
20,1,$1+$1,$8,$9,$2,$3,0*%
%AMRotRect*
0 Rectangle, with rotation*
0 The origin of the aperture is its center*
0 $1 length*
0 $2 width*
0 $3 Rotation angle, in degrees counterclockwise*
0 Add horizontal line*
21,1,$1,$2,0,0,$3*%
G04 Aperture macros list end*
%ADD10C,1.600000*%
%ADD11R,1.600000X1.800000*%
%ADD12O,1.600000X1.600000*%
%ADD13R,1.800000X1.800000*%
%ADD14O,1.800000X1.800000*%
%ADD15R,1.600000X1.600000*%
%ADD16O,3.500000X2.000000*%
%ADD17O,2.000000X4.000000*%
%ADD18C,1.800000*%
%ADD19R,1.000000X1.000000*%
%ADD20C,6.400000*%
%ADD21RoundRect,0.205883X-0.494117X0.494117X-0.494117X-0.494117X0.494117X-0.494117X0.494117X0.494117X0*%
%ADD22C,1.400000*%
%ADD23RoundRect,0.205883X0.494117X-0.494117X0.494117X0.494117X-0.494117X0.494117X-0.494117X-0.494117X0*%
%ADD24C,0.500000*%
%ADD25R,1.800000X1.600000*%
%ADD26C,0.700000*%
%ADD27C,2.000000*%
%ADD28C,3.250000*%
%ADD29R,1.500000X1.500000*%
%ADD30C,1.500000*%
%ADD31C,3.000000*%
%ADD32C,2.010000*%
%ADD33C,4.000000*%
%ADD34R,4.000000X4.000000*%
%ADD35R,2.600000X2.600000*%
%ADD36C,2.600000*%
%ADD37RoundRect,0.220589X-0.529411X0.529411X-0.529411X-0.529411X0.529411X-0.529411X0.529411X0.529411X0*%
%ADD38RoundRect,0.220589X0.529411X-0.529411X0.529411X0.529411X-0.529411X0.529411X-0.529411X-0.529411X0*%
%ADD39RotRect,1.000000X1.000000X45.000000*%
%ADD40RoundRect,0.250000X-0.600000X0.600000X-0.600000X-0.600000X0.600000X-0.600000X0.600000X0.600000X0*%
%ADD41C,1.700000*%
G04 APERTURE END LIST*
D10*
X184525000Y-45065000D03*
X184525000Y-50145000D03*
X184525000Y-55225000D03*
X192145000Y-45065000D03*
X192145000Y-50145000D03*
X192145000Y-55225000D03*
D11*
X184525000Y-37445000D03*
D10*
X192145000Y-37445000D03*
X40000000Y-43655000D03*
D12*
X40000000Y-46195000D03*
D13*
X55052167Y-124557498D03*
D14*
X55052167Y-122017498D03*
D10*
X52000000Y-43655000D03*
D12*
X52000000Y-46195000D03*
D15*
X19475001Y-169751664D03*
D10*
X19475001Y-167151664D03*
X19475001Y-171851664D03*
X19475001Y-165051664D03*
X22275001Y-171851664D03*
X22275001Y-165051664D03*
D16*
X16625001Y-175301664D03*
D17*
X15825001Y-168451664D03*
D16*
X16625001Y-161601664D03*
D13*
X46571667Y-29300000D03*
D18*
X44031667Y-29300000D03*
D19*
X184694203Y-82807998D03*
X184694203Y-84107998D03*
D13*
X71875000Y-123900000D03*
D18*
X69335000Y-123900000D03*
D20*
X194000002Y-193999999D03*
D10*
X129945001Y-25500000D03*
D12*
X127405001Y-25500000D03*
D21*
X141336668Y-112250327D03*
D22*
X141336668Y-114790327D03*
X138796668Y-112250327D03*
X138796668Y-114790327D03*
X136256668Y-112250327D03*
X136256668Y-114790327D03*
X133716668Y-112250327D03*
X133716668Y-114790327D03*
X131176668Y-112250327D03*
X131176668Y-114790327D03*
D23*
X66663333Y-114714999D03*
D22*
X66663333Y-112174999D03*
X69203333Y-114714999D03*
X69203333Y-112174999D03*
X71743333Y-114714999D03*
X71743333Y-112174999D03*
X74283333Y-114714999D03*
X74283333Y-112174999D03*
X76823333Y-114714999D03*
X76823333Y-112174999D03*
D10*
X19945001Y-70700000D03*
D12*
X17405001Y-70700000D03*
D24*
X58500001Y-106500000D03*
X55500001Y-101500000D03*
X51750001Y-106500000D03*
X57000001Y-101500000D03*
X52500001Y-101500000D03*
X53250001Y-106500000D03*
X56250001Y-106500000D03*
X52500001Y-106500000D03*
X58500001Y-101500000D03*
X54000001Y-106500000D03*
X54000001Y-101500000D03*
X56250001Y-101500000D03*
X57750001Y-106500000D03*
X53250001Y-101500000D03*
X57750001Y-101500000D03*
X57000001Y-106500000D03*
X52500001Y-106500000D03*
X52500001Y-101500000D03*
X59250001Y-106500000D03*
X51750001Y-101500000D03*
X55500001Y-106500000D03*
X54750001Y-101500000D03*
X54750001Y-106500000D03*
X59250001Y-101500000D03*
D19*
X124094204Y-70416499D03*
X124094204Y-71716499D03*
D10*
X140802502Y-180500000D03*
X145882502Y-180500000D03*
X150962502Y-180500000D03*
X140802502Y-172880000D03*
X145882502Y-172880000D03*
X150962502Y-172880000D03*
D25*
X133182502Y-180500000D03*
D10*
X133182502Y-172880000D03*
D26*
X133518335Y-95000000D03*
X133518335Y-89210000D03*
D27*
X131383335Y-91710000D03*
X135653335Y-94750000D03*
X135653335Y-87660000D03*
D19*
X129053999Y-44505797D03*
X130353999Y-44505797D03*
D24*
X125150001Y-101500000D03*
X119900001Y-101500000D03*
X121400001Y-106500000D03*
X119150001Y-101500000D03*
X125150001Y-106500000D03*
X118400001Y-101500000D03*
X122150001Y-101500000D03*
X119150001Y-106500000D03*
X125900001Y-101500000D03*
X122900001Y-101500000D03*
X124400001Y-106500000D03*
X120650001Y-106500000D03*
X120650001Y-101500000D03*
X125900001Y-106500000D03*
X122900001Y-106500000D03*
X119150001Y-101500000D03*
X119150001Y-106500000D03*
X118400001Y-106500000D03*
X121400001Y-101500000D03*
X122150001Y-106500000D03*
X124400001Y-101500000D03*
X119900001Y-106500000D03*
X123650001Y-101500000D03*
X123650001Y-106500000D03*
X66925001Y-101500000D03*
X71425001Y-101500000D03*
X66925001Y-106500000D03*
X74425001Y-106500000D03*
X67675001Y-106500000D03*
X68425001Y-101500000D03*
X69925001Y-106500000D03*
X69925001Y-101500000D03*
X70675001Y-106500000D03*
X67675001Y-101500000D03*
X70675001Y-101500000D03*
X73675001Y-106500000D03*
X72175001Y-101500000D03*
X67675001Y-101500000D03*
X73675001Y-101500000D03*
X74425001Y-101500000D03*
X72175001Y-106500000D03*
X67675001Y-106500000D03*
X71425001Y-106500000D03*
X72925001Y-101500000D03*
X69175001Y-106500000D03*
X68425001Y-106500000D03*
X69175001Y-101500000D03*
X72925001Y-106500000D03*
D10*
X141802501Y-47000000D03*
X146882501Y-47000000D03*
X151962501Y-47000000D03*
X141802501Y-39380000D03*
X146882501Y-39380000D03*
X151962501Y-39380000D03*
D25*
X134182501Y-47000000D03*
D10*
X134182501Y-39380000D03*
D19*
X129505797Y-188046001D03*
X129505797Y-186746001D03*
D24*
X38825001Y-106500000D03*
X41825001Y-106500000D03*
X44075001Y-106500000D03*
X39575001Y-106500000D03*
X41075001Y-106500000D03*
X36575001Y-106500000D03*
X37325001Y-106500000D03*
X42575001Y-101500000D03*
X42575001Y-106500000D03*
X41075001Y-101500000D03*
X38825001Y-101500000D03*
X36575001Y-101500000D03*
X37325001Y-106500000D03*
X40325001Y-106500000D03*
X44075001Y-101500000D03*
X43325001Y-106500000D03*
X38075001Y-106500000D03*
X40325001Y-101500000D03*
X41825001Y-101500000D03*
X38075001Y-101500000D03*
X43325001Y-101500000D03*
X37325001Y-101500000D03*
X37325001Y-101500000D03*
X39575001Y-101500000D03*
D13*
X146750002Y-124047664D03*
D14*
X146750002Y-121507664D03*
D10*
X171985002Y-167702663D03*
X177065002Y-167702663D03*
X182145002Y-167702663D03*
X171985002Y-160082663D03*
X177065002Y-160082663D03*
X182145002Y-160082663D03*
D25*
X164365002Y-167702663D03*
D10*
X164365002Y-160082663D03*
D19*
X138446002Y-81456703D03*
X137146002Y-81456703D03*
D10*
X141802501Y-77000000D03*
X146882501Y-77000000D03*
X151962501Y-77000000D03*
X141802501Y-69380000D03*
X146882501Y-69380000D03*
X151962501Y-69380000D03*
D25*
X134182501Y-77000000D03*
D10*
X134182501Y-69380000D03*
D26*
X150000001Y-89210000D03*
X150000001Y-95000000D03*
D27*
X147865001Y-91710000D03*
X152135001Y-94750000D03*
X152135001Y-87660000D03*
D13*
X84500000Y-15800000D03*
D14*
X87040000Y-15800000D03*
D28*
X165970001Y-92295000D03*
X177030001Y-92295000D03*
D29*
X174712001Y-85025000D03*
D30*
X175987001Y-82475000D03*
X172162001Y-85025000D03*
X173437001Y-82475000D03*
X169612001Y-85025000D03*
X170887001Y-82475000D03*
X167062001Y-85025000D03*
X168337001Y-82475000D03*
D31*
X164065001Y-95030000D03*
X178935001Y-95030000D03*
D26*
X118685001Y-61272500D03*
X112895001Y-61272500D03*
D27*
X116185001Y-59137500D03*
X113145001Y-63407500D03*
X120235001Y-63407500D03*
D10*
X63078674Y-45750000D03*
X68158674Y-45750000D03*
X73238674Y-45750000D03*
X63078674Y-38130000D03*
X68158674Y-38130000D03*
X73238674Y-38130000D03*
D25*
X55458674Y-45750000D03*
D10*
X55458674Y-38130000D03*
D32*
X28000001Y-75762500D03*
X29200001Y-70662500D03*
D24*
X101499999Y-28150002D03*
X106499999Y-22150002D03*
X101499999Y-28900002D03*
X106499999Y-22900002D03*
X101499999Y-26650002D03*
X101499999Y-21400002D03*
X106499999Y-26650002D03*
X106499999Y-25900002D03*
X101499999Y-24400002D03*
X106499999Y-23650002D03*
X101499999Y-28150002D03*
X106499999Y-24400002D03*
X106499999Y-27400002D03*
X106499999Y-21400002D03*
X106499999Y-28150002D03*
X106499999Y-28900002D03*
X101499999Y-22150002D03*
X101499999Y-23650002D03*
X106499999Y-25150002D03*
X101499999Y-25900002D03*
X101499999Y-22900002D03*
X101499999Y-25150002D03*
X106499999Y-28150002D03*
X101499999Y-27400002D03*
D10*
X167620001Y-47262500D03*
X172700001Y-47262500D03*
X177780001Y-47262500D03*
X167620001Y-39642500D03*
X172700001Y-39642500D03*
X177780001Y-39642500D03*
D25*
X160000001Y-47262500D03*
D10*
X160000001Y-39642500D03*
D19*
X141946002Y-83256703D03*
X140646002Y-83256703D03*
D10*
X174380002Y-148477663D03*
X169300002Y-148477663D03*
X164220002Y-148477663D03*
X174380002Y-156097663D03*
X169300002Y-156097663D03*
X164220002Y-156097663D03*
D25*
X182000002Y-148477663D03*
D10*
X182000002Y-156097663D03*
D28*
X115205002Y-76970000D03*
X115205002Y-88030000D03*
D29*
X122475002Y-85712000D03*
D30*
X125025002Y-86987000D03*
X122475002Y-83162000D03*
X125025002Y-84437000D03*
X122475002Y-80612000D03*
X125025002Y-81887000D03*
X122475002Y-78062000D03*
X125025002Y-79337000D03*
D31*
X112470002Y-89935000D03*
X112470002Y-75065000D03*
D24*
X106500001Y-179849999D03*
X106500001Y-180599999D03*
X101500001Y-185849999D03*
X106500001Y-185849999D03*
X106500001Y-182099999D03*
X101500001Y-181349999D03*
X106500001Y-182849999D03*
X106500001Y-186599999D03*
X106500001Y-183599999D03*
X101500001Y-182099999D03*
X101500001Y-186599999D03*
X101500001Y-183599999D03*
X101500001Y-180599999D03*
X101500001Y-179849999D03*
X101500001Y-182849999D03*
X106500001Y-181349999D03*
X101500001Y-179099999D03*
X101500001Y-185099999D03*
X106500001Y-179099999D03*
X106500001Y-179849999D03*
X101500001Y-179849999D03*
X106500001Y-185099999D03*
X106500001Y-184349999D03*
X101500001Y-184349999D03*
D10*
X167300378Y-76994874D03*
X172380378Y-76994874D03*
X177460378Y-76994874D03*
X167300378Y-69374874D03*
X172380378Y-69374874D03*
X177460378Y-69374874D03*
D25*
X159680378Y-76994874D03*
D10*
X159680378Y-69374874D03*
X33762501Y-141564998D03*
X33762501Y-146644998D03*
X33762501Y-151724998D03*
X41382501Y-141564998D03*
X41382501Y-146644998D03*
X41382501Y-151724998D03*
D11*
X33762501Y-133944998D03*
D10*
X41382501Y-133944998D03*
D13*
X148653948Y-26684807D03*
D14*
X148653948Y-24144807D03*
D19*
X129053999Y-36505797D03*
X130353999Y-36505797D03*
D10*
X63078674Y-34750000D03*
X68158674Y-34750000D03*
X73238674Y-34750000D03*
X63078674Y-27130000D03*
X68158674Y-27130000D03*
X73238674Y-27130000D03*
D25*
X55458674Y-34750000D03*
D10*
X55458674Y-27130000D03*
D13*
X132750003Y-124030011D03*
D14*
X132750003Y-121490011D03*
D28*
X115205002Y-37970000D03*
X115205002Y-49030000D03*
D29*
X122475002Y-46712000D03*
D30*
X125025002Y-47987000D03*
X122475002Y-44162000D03*
X125025002Y-45437000D03*
X122475002Y-41612000D03*
X125025002Y-42887000D03*
X122475002Y-39062000D03*
X125025002Y-40337000D03*
D31*
X112470002Y-36065000D03*
X112470002Y-50935000D03*
D10*
X116470001Y-67262500D03*
D12*
X113930001Y-67262500D03*
D10*
X33500000Y-123900000D03*
D12*
X30960000Y-123900000D03*
D19*
X129053999Y-40505797D03*
X130353999Y-40505797D03*
D10*
X19945002Y-86000000D03*
D12*
X17405002Y-86000000D03*
D24*
X181350001Y-106500000D03*
X183600001Y-101500000D03*
X184350001Y-106500000D03*
X179850001Y-101500000D03*
X180600001Y-106500000D03*
X182100001Y-101500000D03*
X183600001Y-106500000D03*
X186600001Y-106500000D03*
X179100001Y-106500000D03*
X185850001Y-106500000D03*
X184350001Y-101500000D03*
X185100001Y-101500000D03*
X182850001Y-101500000D03*
X185850001Y-101500000D03*
X185100001Y-106500000D03*
X182100001Y-106500000D03*
X179100001Y-101500000D03*
X181350001Y-101500000D03*
X182850001Y-106500000D03*
X179850001Y-106500000D03*
X179850001Y-106500000D03*
X179850001Y-101500000D03*
X180600001Y-101500000D03*
X186600001Y-101500000D03*
D10*
X116720001Y-30000000D03*
D12*
X114180001Y-30000000D03*
D19*
X125305797Y-188046001D03*
X125305797Y-186746001D03*
D33*
X44300001Y-63462500D03*
X79700001Y-82062500D03*
D34*
X40000001Y-62262500D03*
X40000001Y-83262500D03*
X84000001Y-62262500D03*
X84000001Y-83262500D03*
D26*
X118685002Y-24010000D03*
X112895002Y-24010000D03*
D27*
X116185002Y-21875000D03*
X113145002Y-26145000D03*
X120235002Y-26145000D03*
D10*
X34000000Y-43654999D03*
D12*
X34000000Y-46194999D03*
D21*
X44330001Y-112222498D03*
D22*
X44330001Y-114762498D03*
X41790001Y-112222498D03*
X41790001Y-114762498D03*
X39250001Y-112222498D03*
X39250001Y-114762498D03*
X36710001Y-112222498D03*
X36710001Y-114762498D03*
X34170001Y-112222498D03*
X34170001Y-114762498D03*
D13*
X136250002Y-124047662D03*
D14*
X136250002Y-121507662D03*
D20*
X111000002Y-14000000D03*
D13*
X84454999Y-19900000D03*
D14*
X86994999Y-19900000D03*
D35*
X15695001Y-75830001D03*
D36*
X15695001Y-80830001D03*
D33*
X49990001Y-91089670D03*
X24990001Y-91089670D03*
D15*
X31950001Y-89669670D03*
D10*
X34720001Y-89669670D03*
X37490001Y-89669670D03*
X40260001Y-89669670D03*
X43030001Y-89669670D03*
X33335001Y-92509670D03*
X36105001Y-92509670D03*
X38875001Y-92509670D03*
X41645001Y-92509670D03*
X170855000Y-121200000D03*
D12*
X173395000Y-121200000D03*
D19*
X78256033Y-154816497D03*
X78256033Y-156116497D03*
D24*
X165425001Y-101500000D03*
X167675001Y-101500000D03*
X166175001Y-101500000D03*
X164675001Y-101500000D03*
X164675001Y-106500000D03*
X167675001Y-106500000D03*
X163925001Y-106500000D03*
X164675001Y-101500000D03*
X166925001Y-106500000D03*
X170675001Y-101500000D03*
X171425001Y-106500000D03*
X165425001Y-106500000D03*
X169175001Y-106500000D03*
X170675001Y-106500000D03*
X169925001Y-101500000D03*
X169925001Y-106500000D03*
X166925001Y-101500000D03*
X168425001Y-101500000D03*
X166175001Y-106500000D03*
X168425001Y-106500000D03*
X163925001Y-101500000D03*
X164675001Y-106500000D03*
X169175001Y-101500000D03*
X171425001Y-101500000D03*
D37*
X141380001Y-15210000D03*
D30*
X141380001Y-17750000D03*
X138840001Y-15210000D03*
X138840001Y-17750000D03*
X136300001Y-15210000D03*
X136300001Y-17750000D03*
X133760001Y-15210000D03*
X133760001Y-17750000D03*
X131220001Y-15210000D03*
X131220001Y-17750000D03*
D13*
X159153948Y-26684807D03*
D14*
X159153948Y-24144807D03*
D13*
X44552167Y-124539847D03*
D14*
X44552167Y-121999847D03*
D10*
X37000000Y-43655000D03*
D12*
X37000000Y-46195000D03*
D20*
X97000001Y-14000001D03*
D13*
X35040000Y-35900000D03*
D18*
X32500000Y-35900000D03*
D13*
X24400000Y-85400000D03*
D18*
X24400000Y-82860000D03*
D10*
X46000000Y-43655000D03*
D12*
X46000000Y-46195000D03*
D13*
X84454999Y-24000000D03*
D14*
X86994999Y-24000000D03*
D10*
X143447502Y-149525000D03*
X138367502Y-149525000D03*
X133287502Y-149525000D03*
X143447502Y-157145000D03*
X138367502Y-157145000D03*
X133287502Y-157145000D03*
D25*
X151067502Y-149525000D03*
D10*
X151067502Y-157145000D03*
D13*
X153750002Y-124047663D03*
D14*
X153750002Y-121507663D03*
D28*
X92795001Y-173971664D03*
X92795001Y-162911664D03*
D29*
X85525001Y-165229664D03*
D30*
X82975001Y-163954664D03*
X85525001Y-167779664D03*
X82975001Y-166504664D03*
X85525001Y-170329664D03*
X82975001Y-169054664D03*
X85525001Y-172879664D03*
X82975001Y-171604664D03*
D31*
X95530001Y-175876664D03*
X95530001Y-161006664D03*
D13*
X13750001Y-26717500D03*
D14*
X13750001Y-29257500D03*
D13*
X143697283Y-31639807D03*
D14*
X141157283Y-31639807D03*
D13*
X62052167Y-124557498D03*
D14*
X62052167Y-122017498D03*
D33*
X114910333Y-121989999D03*
X114910333Y-146989999D03*
D15*
X116330333Y-128949999D03*
D10*
X116330333Y-131719999D03*
X116330333Y-134489999D03*
X116330333Y-137259999D03*
X116330333Y-140029999D03*
X113490333Y-130334999D03*
X113490333Y-133104999D03*
X113490333Y-135874999D03*
X113490333Y-138644999D03*
X43000000Y-43660000D03*
D12*
X43000000Y-46200000D03*
D10*
X123470001Y-67262500D03*
D12*
X120930001Y-67262500D03*
D10*
X49000000Y-43655000D03*
D12*
X49000000Y-46195000D03*
D24*
X101500000Y-88850002D03*
X101500000Y-83600002D03*
X101500000Y-88100002D03*
X106500000Y-88850002D03*
X101500000Y-85100002D03*
X106500000Y-89600002D03*
X101500000Y-85850002D03*
X101500000Y-82100002D03*
X106500000Y-84350002D03*
X106500000Y-82850002D03*
X106500000Y-88850002D03*
X106500000Y-83600002D03*
X101500000Y-84350002D03*
X106500000Y-86600002D03*
X106500000Y-82100002D03*
X106500000Y-87350002D03*
X101500000Y-88850002D03*
X106500000Y-85850002D03*
X101500000Y-82850002D03*
X101500000Y-89600002D03*
X106500000Y-85100002D03*
X101500000Y-86600002D03*
X101500000Y-87350002D03*
X106500000Y-88100002D03*
X106500000Y-55500002D03*
X101500000Y-51750002D03*
X101500000Y-57750002D03*
X101500000Y-55500002D03*
X101500000Y-52500002D03*
X101500000Y-54750002D03*
X101500000Y-56250002D03*
X101500000Y-59250002D03*
X101500000Y-53250002D03*
X106500000Y-54000002D03*
X106500000Y-57750002D03*
X101500000Y-58500002D03*
X106500000Y-54750002D03*
X106500000Y-59250002D03*
X106500000Y-51750002D03*
X106500000Y-53250002D03*
X101500000Y-54000002D03*
X106500000Y-58500002D03*
X106500000Y-58500002D03*
X106500000Y-52500002D03*
X106500000Y-56250002D03*
X106500000Y-57000002D03*
X101500000Y-57000002D03*
X101500000Y-58500002D03*
D20*
X194000002Y-110999999D03*
D13*
X149945001Y-31639807D03*
D14*
X147405001Y-31639807D03*
D13*
X65552167Y-124557498D03*
D14*
X65552167Y-122017498D03*
D10*
X86835646Y-49120850D03*
X81755646Y-49120850D03*
X76675646Y-49120850D03*
X86835646Y-56740850D03*
X81755646Y-56740850D03*
X76675646Y-56740850D03*
D25*
X94455646Y-49120850D03*
D10*
X94455646Y-56740850D03*
D38*
X163600001Y-17762500D03*
D30*
X163600001Y-15222500D03*
X166140001Y-17762500D03*
X166140001Y-15222500D03*
X168680001Y-17762500D03*
X168680001Y-15222500D03*
X171220001Y-17762500D03*
X171220001Y-15222500D03*
X173760001Y-17762500D03*
X173760001Y-15222500D03*
D13*
X156193948Y-31639807D03*
D14*
X153653948Y-31639807D03*
D19*
X194705797Y-84046001D03*
X194705797Y-82746001D03*
D35*
X95400001Y-82012500D03*
D36*
X95400001Y-77012500D03*
D33*
X114910333Y-157989999D03*
X114910333Y-182989999D03*
D15*
X116330333Y-164949999D03*
D10*
X116330333Y-167719999D03*
X116330333Y-170489999D03*
X116330333Y-173259999D03*
X116330333Y-176029999D03*
X113490333Y-166334999D03*
X113490333Y-169104999D03*
X113490333Y-171874999D03*
X113490333Y-174644999D03*
D19*
X129053999Y-48505797D03*
X130353999Y-48505797D03*
D33*
X60990001Y-91089670D03*
X85990001Y-91089670D03*
D15*
X67950001Y-89669670D03*
D10*
X70720001Y-89669670D03*
X73490001Y-89669670D03*
X76260001Y-89669670D03*
X79030001Y-89669670D03*
X69335001Y-92509670D03*
X72105001Y-92509670D03*
X74875001Y-92509670D03*
X77645001Y-92509670D03*
D20*
X194000002Y-97000000D03*
D39*
X74980762Y-174481737D03*
X75900001Y-173562498D03*
D24*
X139575001Y-101500000D03*
X140325001Y-106500000D03*
X136575001Y-101500000D03*
X141075001Y-101500000D03*
X134325001Y-101500000D03*
X138075001Y-106500000D03*
X134325001Y-106500000D03*
X133575001Y-101500000D03*
X135075001Y-101500000D03*
X135075001Y-106500000D03*
X140325001Y-101500000D03*
X137325001Y-101500000D03*
X134325001Y-101500000D03*
X139575001Y-106500000D03*
X136575001Y-106500000D03*
X135825001Y-101500000D03*
X138075001Y-101500000D03*
X138825001Y-101500000D03*
X135825001Y-106500000D03*
X141075001Y-106500000D03*
X133575001Y-106500000D03*
X138825001Y-106500000D03*
X137325001Y-106500000D03*
X134325001Y-106500000D03*
D13*
X126425000Y-123400000D03*
D18*
X128965000Y-123400000D03*
D10*
X84328674Y-45750000D03*
X89408674Y-45750000D03*
X94488674Y-45750000D03*
X84328674Y-38130000D03*
X89408674Y-38130000D03*
X94488674Y-38130000D03*
D25*
X76708674Y-45750000D03*
D10*
X76708674Y-38130000D03*
X123720001Y-30000000D03*
D12*
X121180001Y-30000000D03*
D24*
X101500000Y-135074999D03*
X101500000Y-138824999D03*
X106500000Y-134324999D03*
X101500000Y-141074999D03*
X106500000Y-133574999D03*
X101500000Y-136574999D03*
X101500000Y-134324999D03*
X101500000Y-133574999D03*
X101500000Y-139574999D03*
X101500000Y-134324999D03*
X101500000Y-138074999D03*
X106500000Y-137324999D03*
X106500000Y-138074999D03*
X101500000Y-135824999D03*
X106500000Y-139574999D03*
X106500000Y-136574999D03*
X106500000Y-138824999D03*
X106500000Y-135074999D03*
X101500000Y-140324999D03*
X106500000Y-134324999D03*
X101500000Y-137324999D03*
X106500000Y-141074999D03*
X106500000Y-140324999D03*
X106500000Y-135824999D03*
D10*
X141802501Y-62000000D03*
X146882501Y-62000000D03*
X151962501Y-62000000D03*
X141802501Y-54380000D03*
X146882501Y-54380000D03*
X151962501Y-54380000D03*
D25*
X134182501Y-62000000D03*
D10*
X134182501Y-54380000D03*
D20*
X111000002Y-97000000D03*
D40*
X44330001Y-15260000D03*
D41*
X44330001Y-17800000D03*
X41790001Y-15260000D03*
X41790001Y-17800000D03*
X39250001Y-15260000D03*
X39250001Y-17800000D03*
X36710001Y-15260000D03*
X36710001Y-17800000D03*
X34170001Y-15260000D03*
X34170001Y-17800000D03*
D10*
X122800000Y-123400000D03*
D12*
X122800000Y-120860000D03*
D10*
X174380002Y-136727663D03*
X169300002Y-136727663D03*
X164220002Y-136727663D03*
X174380002Y-144347663D03*
X169300002Y-144347663D03*
X164220002Y-144347663D03*
D25*
X182000002Y-136727663D03*
D10*
X182000002Y-144347663D03*
D23*
X163663334Y-114752663D03*
D22*
X163663334Y-112212663D03*
X166203334Y-114752663D03*
X166203334Y-112212663D03*
X168743334Y-114752663D03*
X168743334Y-112212663D03*
X171283334Y-114752663D03*
X171283334Y-112212663D03*
X173823334Y-114752663D03*
X173823334Y-112212663D03*
D13*
X143250001Y-124047661D03*
D14*
X143250001Y-121507661D03*
D24*
X21400001Y-106500000D03*
X25150001Y-101500000D03*
X24400001Y-106500000D03*
X27400001Y-101500000D03*
X25900001Y-101500000D03*
X28150001Y-101500000D03*
X23650001Y-101500000D03*
X23650001Y-106500000D03*
X22900001Y-101500000D03*
X26650001Y-101500000D03*
X28900001Y-106500000D03*
X22150001Y-101500000D03*
X25900001Y-106500000D03*
X22900001Y-106500000D03*
X22150001Y-106500000D03*
X27400001Y-106500000D03*
X28150001Y-106500000D03*
X22150001Y-101500000D03*
X28900001Y-101500000D03*
X26650001Y-106500000D03*
X21400001Y-101500000D03*
X24400001Y-101500000D03*
X25150001Y-106500000D03*
X22150001Y-106500000D03*
D10*
X48881251Y-167244164D03*
X48881251Y-172324164D03*
X48881251Y-177404164D03*
X56501251Y-167244164D03*
X56501251Y-172324164D03*
X56501251Y-177404164D03*
D11*
X48881251Y-159624164D03*
D10*
X56501251Y-159624164D03*
D15*
X19475001Y-137868332D03*
D10*
X19475001Y-135268332D03*
X19475001Y-139968332D03*
X19475001Y-133168332D03*
X22275001Y-139968332D03*
X22275001Y-133168332D03*
D16*
X16625001Y-143418332D03*
D17*
X15825001Y-136568332D03*
D16*
X16625001Y-129718332D03*
D19*
X182194203Y-82807998D03*
X182194203Y-84107998D03*
X126494204Y-70416499D03*
X126494204Y-71716499D03*
D33*
X139949998Y-188589669D03*
X164949998Y-188589669D03*
D15*
X146909998Y-187169669D03*
D10*
X149679998Y-187169669D03*
X152449998Y-187169669D03*
X155219998Y-187169669D03*
X157989998Y-187169669D03*
X148294998Y-190009669D03*
X151064998Y-190009669D03*
X153834998Y-190009669D03*
X156604998Y-190009669D03*
D39*
X78847308Y-173123389D03*
X79766547Y-172204150D03*
D13*
X52350000Y-29300000D03*
D18*
X49810000Y-29300000D03*
D13*
X160775000Y-123400000D03*
D18*
X158235000Y-123400000D03*
D19*
X127405797Y-188046001D03*
X127405797Y-186746001D03*
D24*
X101500000Y-73675002D03*
X101500000Y-67675002D03*
X101500000Y-72925002D03*
X106500000Y-73675002D03*
X106500000Y-69925002D03*
X106500000Y-67675002D03*
X106500000Y-71425002D03*
X101500000Y-71425002D03*
X106500000Y-68425002D03*
X106500000Y-74425002D03*
X106500000Y-73675002D03*
X101500000Y-69925002D03*
X101500000Y-68425002D03*
X101500000Y-69175002D03*
X106500000Y-72925002D03*
X106500000Y-70675002D03*
X101500000Y-73675002D03*
X101500000Y-72175002D03*
X101500000Y-70675002D03*
X101500000Y-66925002D03*
X106500000Y-66925002D03*
X106500000Y-69175002D03*
X101500000Y-74425002D03*
X106500000Y-72175002D03*
D13*
X58552167Y-124557498D03*
D14*
X58552167Y-122017498D03*
D19*
X129053999Y-42505797D03*
X130353999Y-42505797D03*
X134946002Y-79756703D03*
X133646002Y-79756703D03*
X192205797Y-84046001D03*
X192205797Y-82746001D03*
D10*
X84328674Y-34750000D03*
X89408674Y-34750000D03*
X94488674Y-34750000D03*
X84328674Y-27130000D03*
X89408674Y-27130000D03*
X94488674Y-27130000D03*
D25*
X76708674Y-34750000D03*
D10*
X76708674Y-27130000D03*
D13*
X48052167Y-124557498D03*
D14*
X48052167Y-122017498D03*
D19*
X27554000Y-169168295D03*
X28854000Y-169168295D03*
D13*
X145153948Y-26684807D03*
D14*
X145153948Y-24144807D03*
D13*
X51552167Y-124557498D03*
D14*
X51552167Y-122017498D03*
D19*
X187194203Y-82807998D03*
X187194203Y-84107998D03*
D13*
X150250002Y-124047662D03*
D14*
X150250002Y-121507662D03*
D10*
X174955000Y-25500000D03*
D12*
X177495000Y-25500000D03*
D10*
X167302501Y-62000000D03*
X172382501Y-62000000D03*
X177462501Y-62000000D03*
X167302501Y-54380000D03*
X172382501Y-54380000D03*
X177462501Y-54380000D03*
D25*
X159682501Y-62000000D03*
D10*
X159682501Y-54380000D03*
X143380002Y-161262500D03*
X138300002Y-161262500D03*
X133220002Y-161262500D03*
X143380002Y-168882500D03*
X138300002Y-168882500D03*
X133220002Y-168882500D03*
D25*
X151000002Y-161262500D03*
D10*
X151000002Y-168882500D03*
X141052502Y-145250000D03*
X146132502Y-145250000D03*
X151212502Y-145250000D03*
X141052502Y-137630000D03*
X146132502Y-137630000D03*
X151212502Y-137630000D03*
D25*
X133432502Y-145250000D03*
D10*
X133432502Y-137630000D03*
D13*
X134200000Y-28125000D03*
D18*
X134200000Y-30665000D03*
D19*
X28846002Y-172356701D03*
X27546002Y-172356701D03*
D13*
X37179999Y-123900000D03*
D18*
X39719999Y-123900000D03*
D19*
X131294204Y-70416499D03*
X131294204Y-71716499D03*
D40*
X76823333Y-15260000D03*
D41*
X76823333Y-17800000D03*
X74283333Y-15260000D03*
X74283333Y-17800000D03*
X71743333Y-15260000D03*
X71743333Y-17800000D03*
X69203333Y-15260000D03*
X69203333Y-17800000D03*
X66663333Y-15260000D03*
X66663333Y-17800000D03*
D10*
X48880001Y-141564998D03*
X48880001Y-146644998D03*
X48880001Y-151724998D03*
X56500001Y-141564998D03*
X56500001Y-146644998D03*
X56500001Y-151724998D03*
D11*
X48880001Y-133944998D03*
D10*
X56500001Y-133944998D03*
X63052501Y-56750000D03*
X68132501Y-56750000D03*
X73212501Y-56750000D03*
X63052501Y-49130000D03*
X68132501Y-49130000D03*
X73212501Y-49130000D03*
D25*
X55432501Y-56750000D03*
D10*
X55432501Y-49130000D03*
D20*
X97000001Y-193999999D03*
X194000002Y-14000000D03*
D13*
X139750002Y-124047663D03*
D14*
X139750002Y-121507663D03*
D13*
X162442283Y-31639807D03*
D14*
X159902283Y-31639807D03*
D20*
X111000002Y-193999999D03*
D10*
X75554999Y-123900000D03*
D12*
X78094999Y-123900000D03*
D20*
X14000001Y-97000001D03*
D26*
X15895001Y-59772500D03*
X21685001Y-59772500D03*
D27*
X19185001Y-57637500D03*
X16145001Y-61907500D03*
X23235001Y-61907500D03*
D24*
X106500000Y-152499999D03*
X101500000Y-149499999D03*
X101500000Y-150249999D03*
X106500000Y-155499999D03*
X101500000Y-152499999D03*
X101500000Y-153999999D03*
X101500000Y-153249999D03*
X101500000Y-151749999D03*
X101500000Y-156249999D03*
X106500000Y-156249999D03*
X101500000Y-148749999D03*
X101500000Y-150999999D03*
X106500000Y-149499999D03*
X106500000Y-148749999D03*
X101500000Y-155499999D03*
X106500000Y-153999999D03*
X106500000Y-150999999D03*
X106500000Y-153249999D03*
X106500000Y-154749999D03*
X101500000Y-154749999D03*
X106500000Y-151749999D03*
X106500000Y-150249999D03*
X101500000Y-149499999D03*
X106500000Y-149499999D03*
D10*
X64000001Y-167244164D03*
X64000001Y-172324164D03*
X64000001Y-177404164D03*
X71620001Y-167244164D03*
X71620001Y-172324164D03*
X71620001Y-177404164D03*
D11*
X64000001Y-159624164D03*
D10*
X71620001Y-159624164D03*
D13*
X24400000Y-70175000D03*
D18*
X24400000Y-67635000D03*
D13*
X17100000Y-26717500D03*
D14*
X17100000Y-29257500D03*
D39*
X78828265Y-168191916D03*
X79747504Y-167272677D03*
D13*
X162653948Y-26684807D03*
D14*
X162653948Y-24144807D03*
D19*
X129053999Y-46505797D03*
X130353999Y-46505797D03*
D35*
X95400001Y-67262500D03*
D36*
X95400001Y-62262500D03*
D19*
X145446002Y-85006964D03*
X144146002Y-85006964D03*
D13*
X152153948Y-26684807D03*
D14*
X152153948Y-24144807D03*
D13*
X170500000Y-28125000D03*
D18*
X170500000Y-30665000D03*
D24*
X101500000Y-125149999D03*
X101500000Y-124399999D03*
X106500000Y-122149999D03*
X106500000Y-125149999D03*
X101500000Y-122149999D03*
X101500000Y-119149999D03*
X106500000Y-122899999D03*
X101500000Y-119899999D03*
X101500000Y-120649999D03*
X101500000Y-121399999D03*
X101500000Y-119149999D03*
X106500000Y-123649999D03*
X101500000Y-125899999D03*
X106500000Y-125899999D03*
X106500000Y-121399999D03*
X106500000Y-119899999D03*
X106500000Y-120649999D03*
X101500000Y-123649999D03*
X101500000Y-122899999D03*
X106500000Y-118399999D03*
X106500000Y-119149999D03*
X101500000Y-118399999D03*
X106500000Y-119149999D03*
X106500000Y-124399999D03*
D20*
X97000001Y-110999999D03*
D19*
X129053999Y-38505797D03*
X130353999Y-38505797D03*
D13*
X43675000Y-35900000D03*
D18*
X41135000Y-35900000D03*
D24*
X101500000Y-166174999D03*
X106500000Y-166924999D03*
X101500000Y-166924999D03*
X106500000Y-166174999D03*
X101500000Y-169924999D03*
X101500000Y-164674999D03*
X101500000Y-170674999D03*
X101500000Y-165424999D03*
X106500000Y-169174999D03*
X101500000Y-163924999D03*
X106500000Y-171424999D03*
X106500000Y-168424999D03*
X106500000Y-164674999D03*
X106500000Y-165424999D03*
X101500000Y-169174999D03*
X106500000Y-169924999D03*
X106500000Y-170674999D03*
X101500000Y-164674999D03*
X106500000Y-167674999D03*
X101500000Y-167674999D03*
X101500000Y-168424999D03*
X106500000Y-164674999D03*
X106500000Y-163924999D03*
X101500000Y-171424999D03*
D10*
X171985002Y-132440163D03*
X177065002Y-132440163D03*
X182145002Y-132440163D03*
X171985002Y-124820163D03*
X177065002Y-124820163D03*
X182145002Y-124820163D03*
D25*
X164365002Y-132440163D03*
D10*
X164365002Y-124820163D03*
D13*
X35015001Y-29300000D03*
D18*
X32475001Y-29300000D03*
D13*
X141653948Y-26684807D03*
D14*
X141653948Y-24144807D03*
D20*
X14000001Y-110999999D03*
D19*
X129053999Y-34505797D03*
X130353999Y-34505797D03*
X121105797Y-188046001D03*
X121105797Y-186746001D03*
D10*
X184500001Y-68632500D03*
X184500001Y-73712500D03*
X184500001Y-78792500D03*
X192120001Y-68632500D03*
X192120001Y-73712500D03*
X192120001Y-78792500D03*
D11*
X184500001Y-61012500D03*
D10*
X192120001Y-61012500D03*
D13*
X155653948Y-26684807D03*
D14*
X155653948Y-24144807D03*
D19*
X128894204Y-70416499D03*
X128894204Y-71716499D03*
D20*
X14000001Y-193999999D03*
D13*
X20400000Y-26717500D03*
D14*
X20400000Y-29257500D03*
D10*
X64000001Y-141564998D03*
X64000001Y-146644998D03*
X64000001Y-151724998D03*
X71620001Y-141564998D03*
X71620001Y-146644998D03*
X71620001Y-151724998D03*
D11*
X64000001Y-133944998D03*
D10*
X71620001Y-133944998D03*
D13*
X23700000Y-26717500D03*
D14*
X23700000Y-29257500D03*
D20*
X111000002Y-110999999D03*
D13*
X40793334Y-29300000D03*
D18*
X38253334Y-29300000D03*
D13*
X52375000Y-35900000D03*
D18*
X49835000Y-35900000D03*
D20*
X97000001Y-97000001D03*
D10*
X33762501Y-167244164D03*
X33762501Y-172324164D03*
X33762501Y-177404164D03*
X41382501Y-167244164D03*
X41382501Y-172324164D03*
X41382501Y-177404164D03*
D11*
X33762501Y-159624164D03*
D10*
X41382501Y-159624164D03*
D24*
X151750001Y-106500000D03*
X149500001Y-106500000D03*
X154750001Y-101500000D03*
X155500001Y-101500000D03*
X154000001Y-101500000D03*
X156250001Y-106500000D03*
X152500001Y-101500000D03*
X148750001Y-106500000D03*
X148750001Y-101500000D03*
X154000001Y-106500000D03*
X154750001Y-106500000D03*
X150250001Y-106500000D03*
X150250001Y-101500000D03*
X149500001Y-106500000D03*
X155500001Y-106500000D03*
X151000001Y-106500000D03*
X149500001Y-101500000D03*
X152500001Y-106500000D03*
X153250001Y-101500000D03*
X149500001Y-101500000D03*
X153250001Y-106500000D03*
X151750001Y-101500000D03*
X151000001Y-101500000D03*
X156250001Y-101500000D03*
D10*
X41802501Y-56750000D03*
X46882501Y-56750000D03*
X51962501Y-56750000D03*
X41802501Y-49130000D03*
X46882501Y-49130000D03*
X51962501Y-49130000D03*
D25*
X34182501Y-56750000D03*
D10*
X34182501Y-49130000D03*
D28*
X92795001Y-142088332D03*
X92795001Y-131028332D03*
D29*
X85525001Y-133346332D03*
D30*
X82975001Y-132071332D03*
X85525001Y-135896332D03*
X82975001Y-134621332D03*
X85525001Y-138446332D03*
X82975001Y-137171332D03*
X85525001Y-140996332D03*
X82975001Y-139721332D03*
D31*
X95530001Y-143993332D03*
X95530001Y-129123332D03*
D19*
X123205797Y-188046001D03*
X123205797Y-186746001D03*
D24*
X85100001Y-106500000D03*
X88850001Y-106500000D03*
X84350001Y-101500000D03*
X86600001Y-101500000D03*
X88100001Y-106500000D03*
X84350001Y-106500000D03*
X82850001Y-101500000D03*
X83600001Y-101500000D03*
X82850001Y-106500000D03*
X89600001Y-106500000D03*
X89600001Y-101500000D03*
X87350001Y-106500000D03*
X87350001Y-101500000D03*
X82100001Y-101500000D03*
X86600001Y-106500000D03*
X85100001Y-101500000D03*
X83600001Y-106500000D03*
X85850001Y-106500000D03*
X82100001Y-106500000D03*
X88100001Y-101500000D03*
X88850001Y-101500000D03*
X82850001Y-101500000D03*
X85850001Y-101500000D03*
X82850001Y-106500000D03*
D19*
X76494204Y-151516497D03*
X76494204Y-152816497D03*
D28*
X18205001Y-36120500D03*
X18205001Y-47180500D03*
D29*
X25475001Y-44862500D03*
D30*
X28025001Y-46137500D03*
X25475001Y-42312500D03*
X28025001Y-43587500D03*
X25475001Y-39762500D03*
X28025001Y-41037500D03*
X25475001Y-37212500D03*
X28025001Y-38487500D03*
D31*
X15470001Y-49085500D03*
X15470001Y-34215500D03*
D24*
X106500000Y-43325002D03*
X101500000Y-41825002D03*
X101500000Y-38075002D03*
X106500000Y-39575002D03*
X106500000Y-37325002D03*
X101500000Y-42575002D03*
X101500000Y-44075002D03*
X106500000Y-36575002D03*
X101500000Y-39575002D03*
X101500000Y-41075002D03*
X106500000Y-41825002D03*
X101500000Y-38825002D03*
X106500000Y-40325002D03*
X106500000Y-43325002D03*
X101500000Y-36575002D03*
X106500000Y-44075002D03*
X106500000Y-38075002D03*
X106500000Y-42575002D03*
X101500000Y-40325002D03*
X106500000Y-38825002D03*
X101500000Y-43325002D03*
X101500000Y-37325002D03*
X101500000Y-43325002D03*
X106500000Y-41075002D03*
D39*
X74900001Y-179762498D03*
X75819240Y-178843259D03*
D19*
X189694203Y-82807998D03*
X189694203Y-84107998D03*
D20*
X14000001Y-14000001D03*
M02*
