M48
; DRILL file {KiCad (6.0.1)} date Sat Mar  4 18:11:41 2023
; FORMAT={-:-/ absolute / metric / decimal}
; #@! TF.CreationDate,2023-03-04T18:11:41-05:00
; #@! TF.GenerationSoftware,Kicad,Pcbnew,(6.0.1)
; #@! TF.FileFunction,NonPlated,1,2,NPTH
FMAT,2
METRIC
; #@! TA.AperFunction,NonPlated,NPTH,ComponentDrill
T1C0.500
; #@! TA.AperFunction,NonPlated,NPTH,ComponentDrill
T2C0.700
; #@! TA.AperFunction,NonPlated,NPTH,ComponentDrill
T3C3.250
; #@! TA.AperFunction,NonPlated,NPTH,ComponentDrill
T4C4.000
%
G90
G05
T1
X21.4Y-101.5
X21.4Y-106.5
X22.15Y-101.5
X22.15Y-101.5
X22.15Y-106.5
X22.15Y-106.5
X22.9Y-101.5
X22.9Y-106.5
X23.65Y-101.5
X23.65Y-106.5
X24.4Y-101.5
X24.4Y-106.5
X25.15Y-101.5
X25.15Y-106.5
X25.9Y-101.5
X25.9Y-106.5
X26.65Y-101.5
X26.65Y-106.5
X27.4Y-101.5
X27.4Y-106.5
X28.15Y-101.5
X28.15Y-106.5
X28.9Y-101.5
X28.9Y-106.5
X36.575Y-101.5
X36.575Y-106.5
X37.325Y-101.5
X37.325Y-101.5
X37.325Y-106.5
X37.325Y-106.5
X38.075Y-101.5
X38.075Y-106.5
X38.825Y-101.5
X38.825Y-106.5
X39.575Y-101.5
X39.575Y-106.5
X40.325Y-101.5
X40.325Y-106.5
X41.075Y-101.5
X41.075Y-106.5
X41.825Y-101.5
X41.825Y-106.5
X42.575Y-101.5
X42.575Y-106.5
X43.325Y-101.5
X43.325Y-106.5
X44.075Y-101.5
X44.075Y-106.5
X51.75Y-101.5
X51.75Y-106.5
X52.5Y-101.5
X52.5Y-101.5
X52.5Y-106.5
X52.5Y-106.5
X53.25Y-101.5
X53.25Y-106.5
X54.0Y-101.5
X54.0Y-106.5
X54.75Y-101.5
X54.75Y-106.5
X55.5Y-101.5
X55.5Y-106.5
X56.25Y-101.5
X56.25Y-106.5
X57.0Y-101.5
X57.0Y-106.5
X57.75Y-101.5
X57.75Y-106.5
X58.5Y-101.5
X58.5Y-106.5
X59.25Y-101.5
X59.25Y-106.5
X66.925Y-101.5
X66.925Y-106.5
X67.675Y-101.5
X67.675Y-101.5
X67.675Y-106.5
X67.675Y-106.5
X68.425Y-101.5
X68.425Y-106.5
X69.175Y-101.5
X69.175Y-106.5
X69.925Y-101.5
X69.925Y-106.5
X70.675Y-101.5
X70.675Y-106.5
X71.425Y-101.5
X71.425Y-106.5
X72.175Y-101.5
X72.175Y-106.5
X72.925Y-101.5
X72.925Y-106.5
X73.675Y-101.5
X73.675Y-106.5
X74.425Y-101.5
X74.425Y-106.5
X82.1Y-101.5
X82.1Y-106.5
X82.85Y-101.5
X82.85Y-101.5
X82.85Y-106.5
X82.85Y-106.5
X83.6Y-101.5
X83.6Y-106.5
X84.35Y-101.5
X84.35Y-106.5
X85.1Y-101.5
X85.1Y-106.5
X85.85Y-101.5
X85.85Y-106.5
X86.6Y-101.5
X86.6Y-106.5
X87.35Y-101.5
X87.35Y-106.5
X88.1Y-101.5
X88.1Y-106.5
X88.85Y-101.5
X88.85Y-106.5
X89.6Y-101.5
X89.6Y-106.5
X101.5Y-21.4
X101.5Y-22.15
X101.5Y-22.9
X101.5Y-23.65
X101.5Y-24.4
X101.5Y-25.15
X101.5Y-25.9
X101.5Y-26.65
X101.5Y-27.4
X101.5Y-28.15
X101.5Y-28.15
X101.5Y-28.9
X101.5Y-36.575
X101.5Y-37.325
X101.5Y-38.075
X101.5Y-38.825
X101.5Y-39.575
X101.5Y-40.325
X101.5Y-41.075
X101.5Y-41.825
X101.5Y-42.575
X101.5Y-43.325
X101.5Y-43.325
X101.5Y-44.075
X101.5Y-51.75
X101.5Y-52.5
X101.5Y-53.25
X101.5Y-54.0
X101.5Y-54.75
X101.5Y-55.5
X101.5Y-56.25
X101.5Y-57.0
X101.5Y-57.75
X101.5Y-58.5
X101.5Y-58.5
X101.5Y-59.25
X101.5Y-66.925
X101.5Y-67.675
X101.5Y-68.425
X101.5Y-69.175
X101.5Y-69.925
X101.5Y-70.675
X101.5Y-71.425
X101.5Y-72.175
X101.5Y-72.925
X101.5Y-73.675
X101.5Y-73.675
X101.5Y-74.425
X101.5Y-82.1
X101.5Y-82.85
X101.5Y-83.6
X101.5Y-84.35
X101.5Y-85.1
X101.5Y-85.85
X101.5Y-86.6
X101.5Y-87.35
X101.5Y-88.1
X101.5Y-88.85
X101.5Y-88.85
X101.5Y-89.6
X101.5Y-118.4
X101.5Y-119.15
X101.5Y-119.15
X101.5Y-119.9
X101.5Y-120.65
X101.5Y-121.4
X101.5Y-122.15
X101.5Y-122.9
X101.5Y-123.65
X101.5Y-124.4
X101.5Y-125.15
X101.5Y-125.9
X101.5Y-133.575
X101.5Y-134.325
X101.5Y-134.325
X101.5Y-135.075
X101.5Y-135.825
X101.5Y-136.575
X101.5Y-137.325
X101.5Y-138.075
X101.5Y-138.825
X101.5Y-139.575
X101.5Y-140.325
X101.5Y-141.075
X101.5Y-148.75
X101.5Y-149.5
X101.5Y-149.5
X101.5Y-150.25
X101.5Y-151.0
X101.5Y-151.75
X101.5Y-152.5
X101.5Y-153.25
X101.5Y-154.0
X101.5Y-154.75
X101.5Y-155.5
X101.5Y-156.25
X101.5Y-163.925
X101.5Y-164.675
X101.5Y-164.675
X101.5Y-165.425
X101.5Y-166.175
X101.5Y-166.925
X101.5Y-167.675
X101.5Y-168.425
X101.5Y-169.175
X101.5Y-169.925
X101.5Y-170.675
X101.5Y-171.425
X101.5Y-179.1
X101.5Y-179.85
X101.5Y-179.85
X101.5Y-180.6
X101.5Y-181.35
X101.5Y-182.1
X101.5Y-182.85
X101.5Y-183.6
X101.5Y-184.35
X101.5Y-185.1
X101.5Y-185.85
X101.5Y-186.6
X106.5Y-21.4
X106.5Y-22.15
X106.5Y-22.9
X106.5Y-23.65
X106.5Y-24.4
X106.5Y-25.15
X106.5Y-25.9
X106.5Y-26.65
X106.5Y-27.4
X106.5Y-28.15
X106.5Y-28.15
X106.5Y-28.9
X106.5Y-36.575
X106.5Y-37.325
X106.5Y-38.075
X106.5Y-38.825
X106.5Y-39.575
X106.5Y-40.325
X106.5Y-41.075
X106.5Y-41.825
X106.5Y-42.575
X106.5Y-43.325
X106.5Y-43.325
X106.5Y-44.075
X106.5Y-51.75
X106.5Y-52.5
X106.5Y-53.25
X106.5Y-54.0
X106.5Y-54.75
X106.5Y-55.5
X106.5Y-56.25
X106.5Y-57.0
X106.5Y-57.75
X106.5Y-58.5
X106.5Y-58.5
X106.5Y-59.25
X106.5Y-66.925
X106.5Y-67.675
X106.5Y-68.425
X106.5Y-69.175
X106.5Y-69.925
X106.5Y-70.675
X106.5Y-71.425
X106.5Y-72.175
X106.5Y-72.925
X106.5Y-73.675
X106.5Y-73.675
X106.5Y-74.425
X106.5Y-82.1
X106.5Y-82.85
X106.5Y-83.6
X106.5Y-84.35
X106.5Y-85.1
X106.5Y-85.85
X106.5Y-86.6
X106.5Y-87.35
X106.5Y-88.1
X106.5Y-88.85
X106.5Y-88.85
X106.5Y-89.6
X106.5Y-118.4
X106.5Y-119.15
X106.5Y-119.15
X106.5Y-119.9
X106.5Y-120.65
X106.5Y-121.4
X106.5Y-122.15
X106.5Y-122.9
X106.5Y-123.65
X106.5Y-124.4
X106.5Y-125.15
X106.5Y-125.9
X106.5Y-133.575
X106.5Y-134.325
X106.5Y-134.325
X106.5Y-135.075
X106.5Y-135.825
X106.5Y-136.575
X106.5Y-137.325
X106.5Y-138.075
X106.5Y-138.825
X106.5Y-139.575
X106.5Y-140.325
X106.5Y-141.075
X106.5Y-148.75
X106.5Y-149.5
X106.5Y-149.5
X106.5Y-150.25
X106.5Y-151.0
X106.5Y-151.75
X106.5Y-152.5
X106.5Y-153.25
X106.5Y-154.0
X106.5Y-154.75
X106.5Y-155.5
X106.5Y-156.25
X106.5Y-163.925
X106.5Y-164.675
X106.5Y-164.675
X106.5Y-165.425
X106.5Y-166.175
X106.5Y-166.925
X106.5Y-167.675
X106.5Y-168.425
X106.5Y-169.175
X106.5Y-169.925
X106.5Y-170.675
X106.5Y-171.425
X106.5Y-179.1
X106.5Y-179.85
X106.5Y-179.85
X106.5Y-180.6
X106.5Y-181.35
X106.5Y-182.1
X106.5Y-182.85
X106.5Y-183.6
X106.5Y-184.35
X106.5Y-185.1
X106.5Y-185.85
X106.5Y-186.6
X118.4Y-101.5
X118.4Y-106.5
X119.15Y-101.5
X119.15Y-101.5
X119.15Y-106.5
X119.15Y-106.5
X119.9Y-101.5
X119.9Y-106.5
X120.65Y-101.5
X120.65Y-106.5
X121.4Y-101.5
X121.4Y-106.5
X122.15Y-101.5
X122.15Y-106.5
X122.9Y-101.5
X122.9Y-106.5
X123.65Y-101.5
X123.65Y-106.5
X124.4Y-101.5
X124.4Y-106.5
X125.15Y-101.5
X125.15Y-106.5
X125.9Y-101.5
X125.9Y-106.5
X133.575Y-101.5
X133.575Y-106.5
X134.325Y-101.5
X134.325Y-101.5
X134.325Y-106.5
X134.325Y-106.5
X135.075Y-101.5
X135.075Y-106.5
X135.825Y-101.5
X135.825Y-106.5
X136.575Y-101.5
X136.575Y-106.5
X137.325Y-101.5
X137.325Y-106.5
X138.075Y-101.5
X138.075Y-106.5
X138.825Y-101.5
X138.825Y-106.5
X139.575Y-101.5
X139.575Y-106.5
X140.325Y-101.5
X140.325Y-106.5
X141.075Y-101.5
X141.075Y-106.5
X148.75Y-101.5
X148.75Y-106.5
X149.5Y-101.5
X149.5Y-101.5
X149.5Y-106.5
X149.5Y-106.5
X150.25Y-101.5
X150.25Y-106.5
X151.0Y-101.5
X151.0Y-106.5
X151.75Y-101.5
X151.75Y-106.5
X152.5Y-101.5
X152.5Y-106.5
X153.25Y-101.5
X153.25Y-106.5
X154.0Y-101.5
X154.0Y-106.5
X154.75Y-101.5
X154.75Y-106.5
X155.5Y-101.5
X155.5Y-106.5
X156.25Y-101.5
X156.25Y-106.5
X163.925Y-101.5
X163.925Y-106.5
X164.675Y-101.5
X164.675Y-101.5
X164.675Y-106.5
X164.675Y-106.5
X165.425Y-101.5
X165.425Y-106.5
X166.175Y-101.5
X166.175Y-106.5
X166.925Y-101.5
X166.925Y-106.5
X167.675Y-101.5
X167.675Y-106.5
X168.425Y-101.5
X168.425Y-106.5
X169.175Y-101.5
X169.175Y-106.5
X169.925Y-101.5
X169.925Y-106.5
X170.675Y-101.5
X170.675Y-106.5
X171.425Y-101.5
X171.425Y-106.5
X179.1Y-101.5
X179.1Y-106.5
X179.85Y-101.5
X179.85Y-101.5
X179.85Y-106.5
X179.85Y-106.5
X180.6Y-101.5
X180.6Y-106.5
X181.35Y-101.5
X181.35Y-106.5
X182.1Y-101.5
X182.1Y-106.5
X182.85Y-101.5
X182.85Y-106.5
X183.6Y-101.5
X183.6Y-106.5
X184.35Y-101.5
X184.35Y-106.5
X185.1Y-101.5
X185.1Y-106.5
X185.85Y-101.5
X185.85Y-106.5
X186.6Y-101.5
X186.6Y-106.5
T2
X15.895Y-59.772
X21.685Y-59.772
X112.895Y-61.272
X112.895Y-24.01
X118.685Y-61.272
X118.685Y-24.01
X133.518Y-89.21
X133.518Y-95.0
X150.0Y-89.21
X150.0Y-95.0
T3
X18.205Y-36.12
X18.205Y-47.18
X92.795Y-131.028
X92.795Y-142.088
X92.795Y-162.912
X92.795Y-173.972
X115.205Y-37.97
X115.205Y-49.03
X115.205Y-76.97
X115.205Y-88.03
X165.97Y-92.295
X177.03Y-92.295
T4
X44.3Y-63.462
X79.7Y-82.062
T0
M30
